<?xml version="1.0" encoding="UTF-8" standalone="no"?>
<svg
   version="1.1"
   viewBox="0 0 1200 629.99999"
   stroke-miterlimit="10"
   id="svg285"
   width="1200"
   height="630"
   style="fill:none;stroke:none;stroke-linecap:square;stroke-miterlimit:10"
   sodipodi:docname="ucmllogo-og.svg"
   inkscape:version="1.1.2 (b8e25be8, 2022-02-05)"
   xmlns:inkscape="http://www.inkscape.org/namespaces/inkscape"
   xmlns:sodipodi="http://sodipodi.sourceforge.net/DTD/sodipodi-0.dtd"
   xmlns="http://www.w3.org/2000/svg"
   xmlns:svg="http://www.w3.org/2000/svg">
  <sodipodi:namedview
     id="namedview34"
     pagecolor="#ffffff"
     bordercolor="#666666"
     borderopacity="1.0"
     inkscape:pageshadow="2"
     inkscape:pageopacity="0.0"
     inkscape:pagecheckerboard="0"
     showgrid="false"
     showguides="true"
     inkscape:guide-bbox="true"
     inkscape:zoom="1.9095238"
     inkscape:cx="599.88778"
     inkscape:cy="273.10474"
     inkscape:window-width="3440"
     inkscape:window-height="1387"
     inkscape:window-x="0"
     inkscape:window-y="25"
     inkscape:window-maximized="1"
     inkscape:current-layer="svg285">
    <sodipodi:guide
       position="544.11471,322.59351"
       orientation="0,-1"
       id="guide1035" />
    <sodipodi:guide
       position="600.14963,548.30423"
       orientation="1,0"
       id="guide1037" />
  </sodipodi:namedview>
  <defs
     id="defs38" />
  <path
     d="m 456.2212,425.93346 v 0 c 0,-14.64527 11.87206,-26.51733 26.51733,-26.51733 v 0 c 7.03314,0 13.77814,2.7935 18.75099,7.76635 4.97284,4.97284 7.76635,11.71784 7.76635,18.75098 v 0 c 0,14.64528 -11.87206,26.51734 -26.51734,26.51734 v 0 c -14.64527,0 -26.51733,-11.87206 -26.51733,-26.51734 z"
     id="path25"
     style="fill:#000000;fill-opacity:0;fill-rule:evenodd;stroke:#d6001c;stroke-width:1.35279;stroke-dasharray:10.8223px;stroke-opacity:1" />
  <path
     d="M 482.73853,213.98418 V 399.41342"
     id="path37"
     style="fill:#000000;fill-opacity:0;fill-rule:evenodd;stroke:#d6001c;stroke-width:1.35279;stroke-miterlimit:10;stroke-dasharray:2.70557, 5.41115;stroke-dashoffset:0;stroke-opacity:1" />
  <g
     id="path39"
     style="fill:#d6001c;fill-opacity:1">
    <path
       style="color:#000000;fill:#d6001c;fill-rule:evenodd;stroke-width:13.528;stroke-linecap:butt;stroke-linejoin:round;-inkscape-stroke:none;fill-opacity:1"
       d="M 482.73853,213.98418 V 399.41342"
       id="path7510" />
    <path
       style="color:#000000;fill:#d6001c;fill-rule:evenodd;stroke-linecap:butt;stroke-linejoin:round;-inkscape-stroke:none;fill-opacity:1"
       d="m 475.97461,213.98437 v 185.42969 h 13.52734 V 213.98437 Z"
       id="path7512" />
  </g>
  <g
     id="path47"
     style="fill:#d6001c;fill-opacity:1">
    <path
       style="color:#000000;fill:#d6001c;fill-rule:evenodd;stroke-width:13.528;stroke-linecap:butt;stroke-linejoin:round;-inkscape-stroke:none;fill-opacity:1"
       d="M 717.56616,213.98418 V 399.41342"
       id="path7494" />
    <path
       style="color:#000000;fill:#d6001c;fill-rule:evenodd;stroke-linecap:butt;stroke-linejoin:round;-inkscape-stroke:none;fill-opacity:1"
       d="m 710.80273,213.98437 v 185.42969 h 13.52735 V 213.98437 Z"
       id="path7496" />
  </g>
  <g
     id="path71"
     style="fill:#d6001c;fill-opacity:1">
    <path
       style="color:#000000;fill:#d6001c;fill-rule:evenodd;stroke-width:13.528;stroke-linecap:butt;stroke-linejoin:round;-inkscape-stroke:none;fill-opacity:1"
       d="M 717.56616,213.98418 600.1564,399.41342"
       id="path7518" />
    <path
       style="color:#000000;fill:#d6001c;fill-rule:evenodd;stroke-linecap:butt;stroke-linejoin:round;-inkscape-stroke:none;fill-opacity:1"
       d="m 711.85156,210.36523 -117.41015,185.42969 11.42968,7.23633 117.41016,-185.42773 z"
       id="path7520" />
  </g>
  <g
     id="path59"
     style="fill:#d6001c;fill-opacity:1">
    <path
       style="color:#000000;fill:#d6001c;fill-rule:evenodd;stroke-width:13.528;stroke-linecap:butt;stroke-linejoin:round;-inkscape-stroke:none;fill-opacity:1"
       d="M 482.73853,213.98418 600.14964,399.41342"
       id="path7502" />
    <path
       style="color:#000000;fill:#d6001c;fill-rule:evenodd;stroke-linecap:butt;stroke-linejoin:round;-inkscape-stroke:none;fill-opacity:1"
       d="m 488.45312,210.36523 -11.42968,7.23829 117.41211,185.42773 11.42968,-7.23633 z"
       id="path7504" />
  </g>
  <path
     d="m 456.2212,187.46819 v 0 c 0,-14.64527 11.87206,-26.51733 26.51733,-26.51733 v 0 c 7.03314,0 13.77814,2.7935 18.75099,7.76635 4.97284,4.97285 7.76635,11.71784 7.76635,18.75098 v 0 c 0,14.64392 -11.87206,26.51734 -26.51734,26.51734 v 0 c -14.64527,0 -26.51733,-11.87342 -26.51733,-26.51734 z"
     id="path11"
     style="fill:#d6001c;fill-opacity:1;fill-rule:evenodd;stroke:#ffcd00;stroke-width:13.5279;stroke-miterlimit:10;stroke-dasharray:none;stroke-opacity:1" />
  <path
     d="m 573.63501,425.93346 v 0 c 0,-14.64527 11.87341,-26.51733 26.51734,-26.51733 v 0 c 7.03314,0 13.77813,2.7935 18.75098,7.76635 4.97284,4.97284 7.76635,11.71784 7.76635,18.75098 v 0 c 0,14.64528 -11.87206,26.51734 -26.51733,26.51734 v 0 c -14.64393,0 -26.51734,-11.87206 -26.51734,-26.51734 z"
     id="path21"
     style="fill-rule:evenodd;stroke:#ffcd00;stroke-width:13.5279;stroke-miterlimit:10;stroke-dasharray:none;stroke-opacity:1" />
  <path
     d="m 691.05018,425.93346 v 0 c 0,-14.64527 11.87206,-26.51733 26.51733,-26.51733 v 0 c 7.03179,0 13.77678,2.7935 18.74963,7.76635 4.97285,4.97284 7.7677,11.71784 7.7677,18.75098 v 0 c 0,14.64528 -11.87341,26.51734 -26.51733,26.51734 v 0 c -14.64527,0 -26.51733,-11.87206 -26.51733,-26.51734 z"
     id="path23"
     style="fill:#d6001c;fill-opacity:1;fill-rule:evenodd;stroke:#ffcd00;stroke-width:13.5279;stroke-miterlimit:10;stroke-dasharray:none;stroke-opacity:1" />
  <path
     d="m 456.2212,425.93346 v 0 c 0,-14.64527 11.87206,-26.51733 26.51733,-26.51733 v 0 c 7.03314,0 13.77814,2.7935 18.75099,7.76635 4.97284,4.97284 7.76635,11.71784 7.76635,18.75098 v 0 c 0,14.64528 -11.87206,26.51734 -26.51734,26.51734 v 0 c -14.64527,0 -26.51733,-11.87206 -26.51733,-26.51734 z"
     id="path27"
     style="fill:#d6001c;fill-opacity:1;fill-rule:evenodd;stroke:#ffcd00;stroke-width:13.5279;stroke-linecap:butt;stroke-linejoin:round;stroke-miterlimit:10;stroke-dasharray:none;stroke-dashoffset:20;stroke-opacity:1" />
  <path
     d="m 573.63501,425.93346 v 0 c 0,-14.64527 11.87341,-26.51733 26.51734,-26.51733 v 0 c 7.03314,0 13.77813,2.7935 18.75098,7.76635 4.97284,4.97284 7.76635,11.71784 7.76635,18.75098 v 0 c 0,14.64528 -11.87206,26.51734 -26.51733,26.51734 v 0 c -14.64393,0 -26.51734,-11.87206 -26.51734,-26.51734 z"
     id="path6687"
     style="fill:#d6001c;fill-opacity:1;fill-rule:evenodd;stroke:#ffcd00;stroke-width:13.5279;stroke-miterlimit:10;stroke-dasharray:none;stroke-opacity:1" />
  <path
     d="m 775.47898,425.93346 v 0 c 0,-14.64527 11.87206,-26.51733 26.51733,-26.51733 v 0 c 7.03314,0 13.77814,2.7935 18.75099,7.76635 4.97284,4.97284 7.76635,11.71784 7.76635,18.75098 v 0 c 0,14.64528 -11.87206,26.51734 -26.51734,26.51734 v 0 c -14.64527,0 -26.51733,-11.87206 -26.51733,-26.51734 z"
     id="path6855"
     style="fill:#000000;fill-opacity:0;fill-rule:evenodd;stroke:#d6001c;stroke-width:1.35279;stroke-dasharray:10.8223px;stroke-opacity:1" />
  <path
     d="M 801.99631,213.98418 V 399.41342"
     id="path6857"
     style="fill:#000000;fill-opacity:0;fill-rule:evenodd;stroke:#d6001c;stroke-width:1.35279;stroke-miterlimit:10;stroke-dasharray:2.70557, 5.41115;stroke-dashoffset:0;stroke-opacity:1" />
  <path
     d="M 801.99631,213.98418 V 399.41342"
     id="path6859"
     style="mix-blend-mode:normal;fill-rule:evenodd;stroke:#ffcd00;stroke-width:13.528;stroke-linecap:butt;stroke-linejoin:round;stroke-miterlimit:10;stroke-dasharray:none;stroke-dashoffset:0;stroke-opacity:1;fill:#d6001c;fill-opacity:1" />
  <path
     d="m 775.47898,187.46819 v 0 c 0,-14.64527 11.87206,-26.51733 26.51733,-26.51733 v 0 c 7.03314,0 13.77814,2.7935 18.75099,7.76635 4.97284,4.97285 7.76635,11.71784 7.76635,18.75098 v 0 c 0,14.64392 -11.87206,26.51734 -26.51734,26.51734 v 0 c -14.64527,0 -26.51733,-11.87342 -26.51733,-26.51734 z"
     id="path6883"
     style="fill:#d6001c;fill-opacity:1;fill-rule:evenodd;stroke:#ffcd00;stroke-width:13.5279;stroke-miterlimit:10;stroke-dasharray:none;stroke-opacity:1" />
  <path
     d="m 892.89279,425.93346 v 0 c 0,-14.64527 11.87341,-26.51733 26.51733,-26.51733 v 0 c 7.03314,0 13.77814,2.7935 18.75099,7.76635 4.97284,4.97284 7.76635,11.71784 7.76635,18.75098 v 0 c 0,14.64528 -11.87206,26.51734 -26.51734,26.51734 v 0 c -14.64392,0 -26.51733,-11.87206 -26.51733,-26.51734 z"
     id="path6885"
     style="fill-rule:evenodd;stroke:#ffcd00;stroke-width:13.5279;stroke-miterlimit:10;stroke-dasharray:none;stroke-opacity:1" />
  <path
     d="m 1010.308,425.93346 v 0 c 0,-14.64527 11.872,-26.51733 26.5173,-26.51733 v 0 c 7.0318,0 13.7768,2.7935 18.7496,7.76635 4.9729,4.97284 7.7677,11.71784 7.7677,18.75098 v 0 c 0,14.64528 -11.8734,26.51734 -26.5173,26.51734 v 0 c -14.6453,0 -26.5173,-11.87206 -26.5173,-26.51734 z"
     id="path6887"
     style="fill:#d6001c;fill-opacity:1;fill-rule:evenodd;stroke:#ffcd00;stroke-width:13.5279;stroke-miterlimit:10;stroke-dasharray:none;stroke-opacity:1" />
  <path
     d="m 775.47898,425.93346 v 0 c 0,-14.64527 11.87206,-26.51733 26.51733,-26.51733 v 0 c 7.03314,0 13.77814,2.7935 18.75099,7.76635 4.97284,4.97284 7.76635,11.71784 7.76635,18.75098 v 0 c 0,14.64528 -11.87206,26.51734 -26.51734,26.51734 v 0 c -14.64527,0 -26.51733,-11.87206 -26.51733,-26.51734 z"
     id="path6889"
     style="fill:#d6001c;fill-opacity:1;fill-rule:evenodd;stroke:#ffcd00;stroke-width:13.5279;stroke-linecap:butt;stroke-linejoin:round;stroke-miterlimit:10;stroke-dasharray:none;stroke-dashoffset:20;stroke-opacity:1" />
  <path
     d="m 892.89279,425.93346 v 0 c 0,-14.64527 11.87341,-26.51733 26.51733,-26.51733 v 0 c 7.03314,0 13.77814,2.7935 18.75099,7.76635 4.97284,4.97284 7.76635,11.71784 7.76635,18.75098 v 0 c 0,14.64528 -11.87206,26.51734 -26.51734,26.51734 v 0 c -14.64392,0 -26.51733,-11.87206 -26.51733,-26.51734 z"
     id="path6891"
     style="fill:#d6001c;fill-opacity:1;fill-rule:evenodd;stroke:#ffcd00;stroke-width:13.5279;stroke-miterlimit:10;stroke-dasharray:none;stroke-opacity:1" />
  <path
     d="m 691.60617,187.46819 v 0 c 0,-14.64527 11.87206,-26.51733 26.51734,-26.51733 v 0 c 7.03314,0 13.77813,2.7935 18.75098,7.76635 4.97284,4.97285 7.76635,11.71784 7.76635,18.75098 v 0 c 0,14.64392 -11.87206,26.51734 -26.51733,26.51734 v 0 c -14.64528,0 -26.51734,-11.87342 -26.51734,-26.51734 z"
     id="path7626"
     style="fill:#d6001c;fill-opacity:1;fill-rule:evenodd;stroke:#ffcd00;stroke-width:13.5279;stroke-miterlimit:10;stroke-dasharray:none;stroke-opacity:1" />
  <g
     aria-label="C"
     id="text877"
     style="font-weight:bold;font-size:322.54px;line-height:1.25;font-family:'Proxima Nova';-inkscape-font-specification:'Proxima Nova, Bold';fill:#d6001c;stroke:#ffcd00;stroke-width:10"
     transform="matrix(1.3527872,0,0,1.3527872,143.14544,153.71212)">
    <path
       d="m 117.889,227.55261 c 49.02608,0 76.11945,-26.12574 91.60137,-52.89656 l -39.34989,-19.02986 c -9.03112,17.7397 -28.38352,31.28638 -52.25148,31.28638 -37.414638,0 -65.798159,-29.99622 -65.798159,-70.63626 0,-40.640045 28.383521,-70.636266 65.798159,-70.636266 23.86796,0 43.22036,13.869221 52.25148,31.286381 l 39.34989,-19.3524 C 194.33099,30.803204 166.91508,5.0000031 117.889,5.0000031 54.993702,5.0000031 5.0000002,50.155604 5.0000002,116.27631 c 0,66.1207 49.9937018,111.2763 112.8889998,111.2763 z"
       id="path850" />
  </g>
</svg>
