<?xml version="1.0" encoding="UTF-8"?>
<svg xmlns="http://www.w3.org/2000/svg" xmlns:xlink="http://www.w3.org/1999/xlink" width="1791.534375pt" height="1294.996875pt" viewBox="0 0 1791.534375 1294.996875">
<defs>
<g>
<g id="glyph-0-0">
<path d="M 22.253906 -46.46875 C 18.683594 -46.46875 16.027344 -44.71875 14.207031 -41.21875 C 12.386719 -37.71875 11.546875 -32.472656 11.546875 -25.472656 C 11.546875 -18.476562 12.386719 -13.226562 14.207031 -9.726562 C 16.027344 -6.226562 18.683594 -4.480469 22.253906 -4.480469 C 25.824219 -4.480469 28.484375 -6.226562 30.300781 -9.726562 C 32.050781 -13.226562 32.960938 -18.476562 32.960938 -25.472656 C 32.960938 -32.472656 32.050781 -37.71875 30.300781 -41.21875 C 28.484375 -44.71875 25.824219 -46.46875 22.253906 -46.46875 Z M 22.253906 -51.925781 C 27.921875 -51.925781 32.261719 -49.617188 35.339844 -45.136719 C 38.351562 -40.589844 39.890625 -34.011719 39.890625 -25.472656 C 39.890625 -16.867188 38.351562 -10.289062 35.339844 -5.808594 C 32.261719 -1.328125 27.921875 0.910156 22.183594 0.910156 C 16.445312 0.910156 12.105469 -1.328125 9.097656 -5.808594 C 6.089844 -10.289062 4.617188 -16.867188 4.617188 -25.472656 C 4.617188 -34.011719 6.089844 -40.589844 9.097656 -45.136719 C 12.105469 -49.617188 16.515625 -51.925781 22.253906 -51.925781 Z M 22.253906 -51.925781 "/>
</g>
<g id="glyph-0-1">
<path d="M 7.488281 -8.679688 L 14.695312 -8.679688 L 14.695312 0 L 7.488281 0 Z M 7.488281 -8.679688 "/>
</g>
<g id="glyph-0-2">
<path d="M 13.4375 -5.808594 L 37.511719 -5.808594 L 37.511719 0 L 5.109375 0 L 5.109375 -5.808594 C 7.699219 -8.46875 11.265625 -12.105469 15.816406 -16.726562 C 20.292969 -21.273438 23.164062 -24.214844 24.355469 -25.542969 C 26.59375 -27.992188 28.132812 -30.09375 28.972656 -31.839844 C 29.8125 -33.519531 30.300781 -35.269531 30.300781 -36.949219 C 30.300781 -39.609375 29.324219 -41.847656 27.433594 -43.527344 C 25.542969 -45.207031 23.09375 -46.117188 20.015625 -46.117188 C 17.84375 -46.117188 15.535156 -45.699219 13.15625 -45 C 10.777344 -44.226562 8.1875 -43.109375 5.457031 -41.570312 L 5.457031 -48.566406 C 8.257812 -49.6875 10.847656 -50.527344 13.226562 -51.085938 C 15.605469 -51.648438 17.84375 -51.925781 19.875 -51.925781 C 25.125 -51.925781 29.324219 -50.597656 32.472656 -47.9375 C 35.621094 -45.277344 37.230469 -41.777344 37.230469 -37.371094 C 37.230469 -35.269531 36.808594 -33.242188 36.039062 -31.421875 C 35.269531 -29.53125 33.871094 -27.292969 31.773438 -24.773438 C 31.210938 -24.074219 29.390625 -22.183594 26.3125 -19.035156 C 23.234375 -15.886719 18.964844 -11.476562 13.4375 -5.808594 Z M 13.4375 -5.808594 "/>
</g>
<g id="glyph-0-3">
<path d="M 26.453125 -45 L 9.027344 -17.773438 L 26.453125 -17.773438 Z M 24.632812 -51.015625 L 33.3125 -51.015625 L 33.3125 -17.773438 L 40.589844 -17.773438 L 40.589844 -12.035156 L 33.3125 -12.035156 L 33.3125 0 L 26.453125 0 L 26.453125 -12.035156 L 3.429688 -12.035156 L 3.429688 -18.683594 Z M 24.632812 -51.015625 "/>
</g>
<g id="glyph-0-4">
<path d="M 23.09375 -28.273438 C 20.015625 -28.273438 17.566406 -27.152344 15.746094 -25.054688 C 13.925781 -22.953125 13.015625 -20.015625 13.015625 -16.375 C 13.015625 -12.667969 13.925781 -9.726562 15.746094 -7.628906 C 17.566406 -5.527344 20.015625 -4.480469 23.09375 -4.480469 C 26.171875 -4.480469 28.621094 -5.527344 30.441406 -7.628906 C 32.261719 -9.726562 33.171875 -12.667969 33.171875 -16.375 C 33.171875 -20.015625 32.261719 -22.953125 30.441406 -25.054688 C 28.621094 -27.152344 26.171875 -28.273438 23.09375 -28.273438 Z M 36.808594 -49.898438 L 36.808594 -43.597656 C 35.0625 -44.4375 33.3125 -45.066406 31.5625 -45.488281 C 29.742188 -45.90625 27.992188 -46.117188 26.3125 -46.117188 C 21.695312 -46.117188 18.195312 -44.578125 15.816406 -41.5 C 13.4375 -38.421875 12.035156 -33.730469 11.757812 -27.574219 C 13.085938 -29.53125 14.765625 -31.070312 16.796875 -32.121094 C 18.824219 -33.171875 21.066406 -33.730469 23.515625 -33.730469 C 28.621094 -33.730469 32.679688 -32.121094 35.621094 -29.042969 C 38.558594 -25.964844 40.097656 -21.695312 40.097656 -16.375 C 40.097656 -11.128906 38.488281 -6.929688 35.410156 -3.777344 C 32.332031 -0.628906 28.203125 0.910156 23.09375 0.910156 C 17.214844 0.910156 12.667969 -1.328125 9.585938 -5.808594 C 6.4375 -10.289062 4.898438 -16.867188 4.898438 -25.472656 C 4.898438 -33.519531 6.789062 -39.960938 10.636719 -44.71875 C 14.417969 -49.476562 19.59375 -51.925781 26.035156 -51.925781 C 27.710938 -51.925781 29.460938 -51.714844 31.28125 -51.4375 C 33.03125 -51.085938 34.851562 -50.597656 36.808594 -49.898438 Z M 36.808594 -49.898438 "/>
</g>
<g id="glyph-0-5">
<path d="M 22.253906 -24.214844 C 18.964844 -24.214844 16.375 -23.304688 14.484375 -21.554688 C 12.597656 -19.804688 11.6875 -17.425781 11.6875 -14.347656 C 11.6875 -11.265625 12.597656 -8.816406 14.484375 -7.066406 C 16.375 -5.320312 18.964844 -4.480469 22.253906 -4.480469 C 25.472656 -4.480469 28.0625 -5.320312 29.953125 -7.136719 C 31.839844 -8.886719 32.820312 -11.265625 32.820312 -14.347656 C 32.820312 -17.425781 31.839844 -19.804688 30.023438 -21.554688 C 28.132812 -23.304688 25.542969 -24.214844 22.253906 -24.214844 Z M 15.324219 -27.152344 C 12.386719 -27.851562 10.078125 -29.253906 8.398438 -31.28125 C 6.71875 -33.3125 5.949219 -35.761719 5.949219 -38.699219 C 5.949219 -42.757812 7.347656 -45.976562 10.289062 -48.359375 C 13.15625 -50.738281 17.144531 -51.925781 22.253906 -51.925781 C 27.292969 -51.925781 31.28125 -50.738281 34.222656 -48.359375 C 37.089844 -45.976562 38.558594 -42.757812 38.558594 -38.699219 C 38.558594 -35.761719 37.71875 -33.3125 36.039062 -31.28125 C 34.359375 -29.253906 32.121094 -27.851562 29.183594 -27.152344 C 32.472656 -26.382812 35.0625 -24.84375 36.949219 -22.605469 C 38.769531 -20.363281 39.75 -17.566406 39.75 -14.347656 C 39.75 -9.378906 38.210938 -5.597656 35.199219 -3.007812 C 32.121094 -0.351562 27.78125 0.910156 22.183594 0.910156 C 16.585938 0.910156 12.246094 -0.351562 9.238281 -3.007812 C 6.226562 -5.597656 4.757812 -9.378906 4.757812 -14.347656 C 4.757812 -17.566406 5.667969 -20.363281 7.558594 -22.605469 C 9.378906 -24.84375 11.96875 -26.382812 15.324219 -27.152344 Z M 12.808594 -38.070312 C 12.808594 -35.410156 13.578125 -33.3125 15.257812 -31.839844 C 16.9375 -30.371094 19.246094 -29.671875 22.253906 -29.671875 C 25.195312 -29.671875 27.503906 -30.371094 29.183594 -31.839844 C 30.863281 -33.3125 31.703125 -35.410156 31.703125 -38.070312 C 31.703125 -40.730469 30.863281 -42.757812 29.183594 -44.226562 C 27.503906 -45.699219 25.195312 -46.46875 22.253906 -46.46875 C 19.246094 -46.46875 16.9375 -45.699219 15.257812 -44.226562 C 13.578125 -42.757812 12.808594 -40.730469 12.808594 -38.070312 Z M 12.808594 -38.070312 "/>
</g>
<g id="glyph-0-6">
<path d="M 8.679688 -5.808594 L 19.945312 -5.808594 L 19.945312 -44.71875 L 7.699219 -42.269531 L 7.699219 -48.566406 L 19.875 -51.015625 L 26.804688 -51.015625 L 26.804688 -5.808594 L 38.070312 -5.808594 L 38.070312 0 L 8.679688 0 Z M 8.679688 -5.808594 "/>
</g>
<g id="glyph-0-7">
<path d="M 7.558594 -51.015625 L 34.640625 -51.015625 L 34.640625 -45.207031 L 13.855469 -45.207031 L 13.855469 -32.679688 C 14.835938 -33.03125 15.886719 -33.3125 16.867188 -33.453125 C 17.84375 -33.589844 18.894531 -33.730469 19.875 -33.730469 C 25.542969 -33.730469 30.023438 -32.121094 33.382812 -29.042969 C 36.742188 -25.894531 38.421875 -21.695312 38.421875 -16.375 C 38.421875 -10.847656 36.671875 -6.578125 33.242188 -3.570312 C 29.8125 -0.558594 24.984375 0.910156 18.824219 0.910156 C 16.65625 0.910156 14.484375 0.699219 12.246094 0.417969 C 10.007812 0.0703125 7.769531 -0.417969 5.386719 -1.191406 L 5.386719 -8.117188 C 7.417969 -7 9.515625 -6.160156 11.757812 -5.597656 C 13.925781 -5.039062 16.234375 -4.828125 18.683594 -4.828125 C 22.605469 -4.828125 25.753906 -5.808594 28.0625 -7.90625 C 30.300781 -10.007812 31.492188 -12.808594 31.492188 -16.375 C 31.492188 -19.875 30.300781 -22.675781 28.0625 -24.773438 C 25.753906 -26.871094 22.605469 -27.921875 18.683594 -27.921875 C 16.867188 -27.921875 14.976562 -27.710938 13.15625 -27.292969 C 11.335938 -26.871094 9.449219 -26.242188 7.558594 -25.402344 Z M 7.558594 -51.015625 "/>
</g>
<g id="glyph-0-8">
<path d="M 28.414062 -27.503906 C 31.703125 -26.804688 34.292969 -25.332031 36.109375 -23.09375 C 37.929688 -20.855469 38.910156 -18.054688 38.910156 -14.835938 C 38.910156 -9.796875 37.160156 -5.878906 33.730469 -3.148438 C 30.230469 -0.417969 25.332031 0.910156 18.964844 0.910156 C 16.796875 0.910156 14.554688 0.699219 12.316406 0.28125 C 10.078125 -0.0703125 7.699219 -0.699219 5.320312 -1.539062 L 5.320312 -8.1875 C 7.207031 -7.066406 9.308594 -6.226562 11.617188 -5.667969 C 13.855469 -5.109375 16.234375 -4.828125 18.753906 -4.828125 C 23.09375 -4.828125 26.382812 -5.667969 28.621094 -7.347656 C 30.863281 -9.027344 32.050781 -11.546875 32.050781 -14.835938 C 32.050781 -17.773438 31 -20.15625 28.902344 -21.835938 C 26.804688 -23.515625 23.863281 -24.421875 20.085938 -24.421875 L 14.136719 -24.421875 L 14.136719 -30.09375 L 20.363281 -30.09375 C 23.722656 -30.09375 26.3125 -30.722656 28.132812 -32.121094 C 29.953125 -33.453125 30.863281 -35.410156 30.863281 -38 C 30.863281 -40.589844 29.882812 -42.617188 28.0625 -44.019531 C 26.171875 -45.417969 23.515625 -46.117188 20.085938 -46.117188 C 18.195312 -46.117188 16.164062 -45.90625 13.996094 -45.488281 C 11.828125 -45.066406 9.449219 -44.4375 6.859375 -43.597656 L 6.859375 -49.757812 C 9.449219 -50.457031 11.898438 -51.015625 14.207031 -51.367188 C 16.445312 -51.714844 18.613281 -51.925781 20.714844 -51.925781 C 25.894531 -51.925781 30.023438 -50.738281 33.101562 -48.359375 C 36.179688 -45.976562 37.71875 -42.757812 37.71875 -38.699219 C 37.71875 -35.902344 36.878906 -33.519531 35.269531 -31.5625 C 33.660156 -29.601562 31.351562 -28.203125 28.414062 -27.503906 Z M 28.414062 -27.503906 "/>
</g>
<g id="glyph-1-0">
<path d="M 47.90625 -56.464844 L 47.90625 -44.148438 C 44.707031 -45.589844 41.589844 -46.628906 38.550781 -47.347656 C 35.511719 -48.066406 32.632812 -48.46875 29.914062 -48.46875 C 26.3125 -48.46875 23.675781 -47.90625 21.914062 -46.949219 C 20.15625 -45.988281 19.355469 -44.46875 19.355469 -42.390625 C 19.355469 -40.789062 19.914062 -39.507812 21.113281 -38.710938 C 22.234375 -37.832031 24.394531 -37.109375 27.433594 -36.46875 L 33.832031 -35.191406 C 40.230469 -33.910156 44.867188 -31.910156 47.585938 -29.273438 C 50.308594 -26.554688 51.746094 -22.792969 51.746094 -17.914062 C 51.746094 -11.515625 49.828125 -6.71875 45.988281 -3.597656 C 42.148438 -0.480469 36.390625 1.039062 28.550781 1.039062 C 24.875 1.039062 21.113281 0.640625 17.433594 0 C 13.675781 -0.640625 9.917969 -1.597656 6.238281 -3.039062 L 6.238281 -15.757812 C 9.917969 -13.757812 13.515625 -12.238281 17.035156 -11.277344 C 20.476562 -10.238281 23.832031 -9.757812 27.113281 -9.757812 C 30.3125 -9.757812 32.871094 -10.238281 34.632812 -11.355469 C 36.390625 -12.476562 37.269531 -13.996094 37.269531 -16.074219 C 37.269531 -17.835938 36.628906 -19.273438 35.429688 -20.234375 C 34.230469 -21.195312 31.910156 -22.152344 28.394531 -22.953125 L 22.554688 -24.234375 C 16.714844 -25.511719 12.476562 -27.511719 9.757812 -30.230469 C 7.039062 -32.953125 5.757812 -36.628906 5.757812 -41.269531 C 5.757812 -47.027344 7.597656 -51.507812 11.355469 -54.625 C 15.035156 -57.746094 20.476562 -59.34375 27.511719 -59.34375 C 30.710938 -59.34375 33.992188 -59.105469 37.351562 -58.625 C 40.710938 -58.144531 44.226562 -57.425781 47.90625 -56.464844 Z M 47.90625 -56.464844 "/>
</g>
<g id="glyph-1-1">
<path d="M 20.714844 -6.316406 L 20.714844 16.554688 L 6.71875 16.554688 L 6.71875 -43.75 L 20.714844 -43.75 L 20.714844 -37.351562 C 22.632812 -39.910156 24.714844 -41.75 27.113281 -42.949219 C 29.433594 -44.148438 32.152344 -44.789062 35.191406 -44.789062 C 40.550781 -44.789062 44.949219 -42.628906 48.46875 -38.308594 C 51.90625 -33.992188 53.667969 -28.472656 53.667969 -21.753906 C 53.667969 -15.035156 51.90625 -9.515625 48.46875 -5.277344 C 44.949219 -1.039062 40.550781 1.039062 35.191406 1.039062 C 32.152344 1.039062 29.433594 0.398438 27.113281 -0.71875 C 24.714844 -1.839844 22.632812 -3.757812 20.714844 -6.316406 Z M 29.992188 -34.632812 C 26.953125 -34.632812 24.714844 -33.511719 23.113281 -31.351562 C 21.515625 -29.113281 20.714844 -25.992188 20.714844 -21.835938 C 20.714844 -17.675781 21.515625 -14.476562 23.113281 -12.316406 C 24.714844 -10.078125 26.953125 -9.039062 29.992188 -9.039062 C 32.953125 -9.039062 35.191406 -10.078125 36.789062 -12.316406 C 38.390625 -14.476562 39.191406 -17.675781 39.191406 -21.835938 C 39.191406 -25.992188 38.390625 -29.113281 36.789062 -31.351562 C 35.191406 -33.511719 32.953125 -34.632812 29.992188 -34.632812 Z M 29.992188 -34.632812 "/>
</g>
<g id="glyph-1-2">
<path d="M 26.3125 -19.675781 C 23.355469 -19.675781 21.113281 -19.113281 19.675781 -18.15625 C 18.234375 -17.195312 17.515625 -15.757812 17.515625 -13.835938 C 17.515625 -12.078125 18.074219 -10.636719 19.273438 -9.675781 C 20.476562 -8.636719 22.152344 -8.15625 24.234375 -8.15625 C 26.871094 -8.15625 29.113281 -9.039062 30.871094 -10.957031 C 32.632812 -12.875 33.589844 -15.195312 33.589844 -18.074219 L 33.589844 -19.675781 Z M 47.667969 -24.953125 L 47.667969 0 L 33.589844 0 L 33.589844 -6.476562 C 31.671875 -3.757812 29.59375 -1.839844 27.273438 -0.71875 C 24.875 0.398438 22.074219 1.039062 18.714844 1.039062 C 14.15625 1.039062 10.476562 -0.238281 7.679688 -2.878906 C 4.796875 -5.4375 3.4375 -8.878906 3.4375 -13.117188 C 3.4375 -18.234375 5.199219 -21.996094 8.71875 -24.394531 C 12.238281 -26.792969 17.753906 -27.992188 25.351562 -27.992188 L 33.589844 -27.992188 L 33.589844 -29.113281 C 33.589844 -31.273438 32.710938 -32.871094 30.953125 -33.910156 C 29.191406 -34.949219 26.472656 -35.511719 22.792969 -35.511719 C 19.753906 -35.511719 16.957031 -35.191406 14.394531 -34.550781 C 11.835938 -33.910156 9.4375 -33.03125 7.277344 -31.910156 L 7.277344 -42.550781 C 10.238281 -43.269531 13.195312 -43.828125 16.234375 -44.226562 C 19.273438 -44.546875 22.3125 -44.789062 25.351562 -44.789062 C 33.191406 -44.789062 38.871094 -43.1875 42.390625 -40.070312 C 45.90625 -36.949219 47.667969 -31.910156 47.667969 -24.953125 Z M 47.667969 -24.953125 "/>
</g>
<g id="glyph-1-3">
<path d="M 39.191406 -31.832031 C 37.910156 -32.390625 36.710938 -32.792969 35.511719 -33.113281 C 34.3125 -33.351562 33.113281 -33.511719 31.910156 -33.511719 C 28.3125 -33.511719 25.511719 -32.3125 23.59375 -30.070312 C 21.675781 -27.753906 20.714844 -24.472656 20.714844 -20.15625 L 20.714844 0 L 6.71875 0 L 6.71875 -43.75 L 20.714844 -43.75 L 20.714844 -36.550781 C 22.472656 -39.429688 24.472656 -41.507812 26.871094 -42.789062 C 29.191406 -44.070312 31.992188 -44.789062 35.269531 -44.789062 C 35.75 -44.789062 36.230469 -44.707031 36.789062 -44.707031 C 37.269531 -44.707031 38.070312 -44.628906 39.191406 -44.46875 Z M 39.191406 -31.832031 "/>
</g>
<g id="glyph-1-4">
<path d="M 40.871094 -42.390625 L 40.871094 -31.75 C 37.832031 -32.953125 34.949219 -33.910156 32.230469 -34.550781 C 29.433594 -35.191406 26.792969 -35.511719 24.3125 -35.511719 C 21.59375 -35.511719 19.675781 -35.109375 18.394531 -34.472656 C 17.117188 -33.832031 16.476562 -32.792969 16.476562 -31.433594 C 16.476562 -30.3125 16.957031 -29.433594 17.914062 -28.871094 C 18.875 -28.234375 20.632812 -27.832031 23.195312 -27.511719 L 25.671875 -27.191406 C 32.792969 -26.234375 37.589844 -24.792969 40.070312 -22.714844 C 42.550781 -20.632812 43.828125 -17.355469 43.828125 -12.875 C 43.828125 -8.238281 42.070312 -4.71875 38.628906 -2.398438 C 35.191406 -0.078125 30.070312 1.039062 23.273438 1.039062 C 20.394531 1.039062 17.355469 0.800781 14.316406 0.398438 C 11.195312 0 7.996094 -0.640625 4.796875 -1.597656 L 4.796875 -12.238281 C 7.519531 -10.796875 10.398438 -9.757812 13.355469 -9.117188 C 16.234375 -8.476562 19.273438 -8.15625 22.3125 -8.15625 C 25.035156 -8.15625 27.03125 -8.476562 28.472656 -9.277344 C 29.832031 -9.996094 30.550781 -11.117188 30.550781 -12.636719 C 30.550781 -13.917969 30.070312 -14.796875 29.113281 -15.4375 C 28.152344 -16.074219 26.234375 -16.554688 23.433594 -16.875 L 20.953125 -17.195312 C 14.714844 -17.914062 10.398438 -19.355469 7.917969 -21.515625 C 5.359375 -23.59375 4.160156 -26.792969 4.160156 -31.113281 C 4.160156 -35.75 5.679688 -39.191406 8.878906 -41.429688 C 12.078125 -43.667969 16.957031 -44.789062 23.515625 -44.789062 C 26.074219 -44.789062 28.710938 -44.546875 31.589844 -44.148438 C 34.472656 -43.75 37.511719 -43.1875 40.871094 -42.390625 Z M 40.871094 -42.390625 "/>
</g>
<g id="glyph-1-5">
<path d="M 6.71875 -43.75 L 20.714844 -43.75 L 20.714844 0 L 6.71875 0 Z M 6.71875 -60.785156 L 20.714844 -60.785156 L 20.714844 -49.347656 L 6.71875 -49.347656 Z M 6.71875 -60.785156 "/>
</g>
<g id="glyph-1-6">
<path d="M 21.996094 -56.144531 L 21.996094 -43.75 L 36.390625 -43.75 L 36.390625 -33.75 L 21.996094 -33.75 L 21.996094 -15.195312 C 21.996094 -13.117188 22.394531 -11.757812 23.195312 -11.039062 C 23.992188 -10.316406 25.59375 -9.996094 27.992188 -9.996094 L 35.191406 -9.996094 L 35.191406 0 L 23.195312 0 C 17.675781 0 13.757812 -1.121094 11.4375 -3.4375 C 9.117188 -5.679688 7.996094 -9.597656 7.996094 -15.195312 L 7.996094 -33.75 L 1.039062 -33.75 L 1.039062 -43.75 L 7.996094 -43.75 L 7.996094 -56.144531 Z M 21.996094 -56.144531 "/>
</g>
<g id="glyph-1-7">
<path d="M 0.960938 -43.75 L 14.957031 -43.75 L 26.714844 -14.078125 L 36.710938 -43.75 L 50.707031 -43.75 L 32.3125 4.078125 C 30.390625 8.878906 28.234375 12.316406 25.832031 14.234375 C 23.355469 16.15625 20.074219 17.195312 16.074219 17.195312 L 7.996094 17.195312 L 7.996094 7.996094 L 12.398438 7.996094 C 14.714844 7.996094 16.394531 7.597656 17.515625 6.878906 C 18.636719 6.078125 19.433594 4.71875 20.074219 2.800781 L 20.476562 1.597656 Z M 0.960938 -43.75 "/>
</g>
<g id="glyph-1-8">
</g>
<g id="glyph-1-9">
<path d="M 30.152344 10.476562 L 18.554688 10.476562 C 14.554688 4 11.597656 -2.078125 9.675781 -7.839844 C 7.757812 -13.597656 6.878906 -19.273438 6.878906 -25.035156 C 6.878906 -30.710938 7.839844 -36.46875 9.757812 -42.308594 C 11.675781 -48.148438 14.554688 -54.304688 18.554688 -60.703125 L 30.152344 -60.703125 C 26.792969 -54.464844 24.234375 -48.46875 22.632812 -42.550781 C 20.953125 -36.628906 20.15625 -30.871094 20.15625 -25.113281 C 20.15625 -19.355469 20.953125 -13.515625 22.632812 -7.597656 C 24.234375 -1.679688 26.792969 4.238281 30.152344 10.476562 Z M 30.152344 10.476562 "/>
</g>
<g id="glyph-1-10">
<path d="M 6.398438 10.476562 C 9.757812 4.238281 12.238281 -1.679688 13.917969 -7.597656 C 15.515625 -13.515625 16.394531 -19.355469 16.394531 -25.113281 C 16.394531 -30.871094 15.515625 -36.628906 13.917969 -42.550781 C 12.238281 -48.46875 9.757812 -54.464844 6.398438 -60.703125 L 17.996094 -60.703125 C 21.914062 -54.304688 24.875 -48.148438 26.792969 -42.308594 C 28.710938 -36.46875 29.671875 -30.710938 29.671875 -25.035156 C 29.671875 -19.273438 28.710938 -13.597656 26.792969 -7.839844 C 24.875 -2.078125 21.996094 4 17.996094 10.476562 Z M 6.398438 10.476562 "/>
</g>
<g id="glyph-2-0">
<path d="M -32.472656 -28.710938 C -32.472656 -31.832031 -33.03125 -34.070312 -34.230469 -35.429688 C -35.351562 -36.789062 -37.269531 -37.511719 -39.988281 -37.511719 C -42.628906 -37.511719 -44.546875 -36.789062 -45.667969 -35.429688 C -46.789062 -34.070312 -47.425781 -31.832031 -47.425781 -28.710938 L -47.425781 -22.394531 L -32.472656 -22.394531 Z M -22.074219 -22.394531 L 0 -22.394531 L 0 -7.359375 L -58.304688 -7.359375 L -58.304688 -30.3125 C -58.304688 -37.988281 -56.945312 -43.589844 -54.386719 -47.1875 C -51.828125 -50.707031 -47.746094 -52.546875 -42.230469 -52.546875 C -38.390625 -52.546875 -35.191406 -51.585938 -32.710938 -49.746094 C -30.230469 -47.828125 -28.394531 -45.027344 -27.273438 -41.347656 C -26.792969 -43.429688 -25.671875 -45.269531 -24.074219 -46.867188 C -22.394531 -48.46875 -19.914062 -50.148438 -16.554688 -51.828125 L 0 -59.984375 L 0 -43.988281 L -14.476562 -36.871094 C -17.355469 -35.429688 -19.355469 -33.910156 -20.476562 -32.472656 C -21.515625 -31.03125 -22.074219 -29.03125 -22.074219 -26.632812 Z M -22.074219 -22.394531 "/>
</g>
<g id="glyph-2-1">
<path d="M -19.675781 -26.3125 C -19.675781 -23.355469 -19.113281 -21.113281 -18.15625 -19.675781 C -17.195312 -18.234375 -15.757812 -17.515625 -13.835938 -17.515625 C -12.078125 -17.515625 -10.636719 -18.074219 -9.675781 -19.273438 C -8.636719 -20.476562 -8.15625 -22.152344 -8.15625 -24.234375 C -8.15625 -26.871094 -9.039062 -29.113281 -10.957031 -30.871094 C -12.875 -32.632812 -15.195312 -33.589844 -18.074219 -33.589844 L -19.675781 -33.589844 Z M -24.953125 -47.667969 L 0 -47.667969 L 0 -33.589844 L -6.476562 -33.589844 C -3.757812 -31.671875 -1.839844 -29.59375 -0.71875 -27.273438 C 0.398438 -24.875 1.039062 -22.074219 1.039062 -18.714844 C 1.039062 -14.15625 -0.238281 -10.476562 -2.878906 -7.679688 C -5.4375 -4.796875 -8.878906 -3.4375 -13.117188 -3.4375 C -18.234375 -3.4375 -21.996094 -5.199219 -24.394531 -8.71875 C -26.792969 -12.238281 -27.992188 -17.753906 -27.992188 -25.351562 L -27.992188 -33.589844 L -29.113281 -33.589844 C -31.273438 -33.589844 -32.871094 -32.710938 -33.910156 -30.953125 C -34.949219 -29.191406 -35.511719 -26.472656 -35.511719 -22.792969 C -35.511719 -19.753906 -35.191406 -16.957031 -34.550781 -14.394531 C -33.910156 -11.835938 -33.03125 -9.4375 -31.910156 -7.277344 L -42.550781 -7.277344 C -43.269531 -10.238281 -43.828125 -13.195312 -44.226562 -16.234375 C -44.546875 -19.273438 -44.789062 -22.3125 -44.789062 -25.351562 C -44.789062 -33.191406 -43.1875 -38.871094 -40.070312 -42.390625 C -36.949219 -45.90625 -31.910156 -47.667969 -24.953125 -47.667969 Z M -24.953125 -47.667969 "/>
</g>
<g id="glyph-2-2">
<path d="M -56.144531 -21.996094 L -43.75 -21.996094 L -43.75 -36.390625 L -33.75 -36.390625 L -33.75 -21.996094 L -15.195312 -21.996094 C -13.117188 -21.996094 -11.757812 -22.394531 -11.039062 -23.195312 C -10.316406 -23.992188 -9.996094 -25.59375 -9.996094 -27.992188 L -9.996094 -35.191406 L 0 -35.191406 L 0 -23.195312 C 0 -17.675781 -1.121094 -13.757812 -3.4375 -11.4375 C -5.679688 -9.117188 -9.597656 -7.996094 -15.195312 -7.996094 L -33.75 -7.996094 L -33.75 -1.039062 L -43.75 -1.039062 L -43.75 -7.996094 L -56.144531 -7.996094 Z M -56.144531 -21.996094 "/>
</g>
<g id="glyph-2-3">
<path d="M -43.75 -6.71875 L -43.75 -20.714844 L 0 -20.714844 L 0 -6.71875 Z M -60.785156 -6.71875 L -60.785156 -20.714844 L -49.347656 -20.714844 L -49.347656 -6.71875 Z M -60.785156 -6.71875 "/>
</g>
<g id="glyph-2-4">
<path d="M -34.789062 -27.511719 C -34.789062 -24.394531 -33.671875 -21.996094 -31.433594 -20.394531 C -29.191406 -18.796875 -25.992188 -17.996094 -21.835938 -17.996094 C -17.59375 -17.996094 -14.394531 -18.796875 -12.15625 -20.394531 C -9.917969 -21.996094 -8.878906 -24.394531 -8.878906 -27.511719 C -8.878906 -30.550781 -9.917969 -32.871094 -12.15625 -34.472656 C -14.394531 -36.070312 -17.59375 -36.949219 -21.835938 -36.949219 C -25.992188 -36.949219 -29.191406 -36.070312 -31.433594 -34.472656 C -33.671875 -32.871094 -34.789062 -30.550781 -34.789062 -27.511719 Z M -44.789062 -27.511719 C -44.789062 -35.03125 -42.707031 -40.871094 -38.710938 -45.109375 C -34.632812 -49.347656 -29.03125 -51.507812 -21.835938 -51.507812 C -14.636719 -51.507812 -8.957031 -49.347656 -4.957031 -45.109375 C -0.960938 -40.871094 1.039062 -35.03125 1.039062 -27.511719 C 1.039062 -19.996094 -0.960938 -14.078125 -4.957031 -9.835938 C -8.957031 -5.519531 -14.636719 -3.4375 -21.835938 -3.4375 C -29.03125 -3.4375 -34.632812 -5.519531 -38.710938 -9.835938 C -42.707031 -14.078125 -44.789062 -19.996094 -44.789062 -27.511719 Z M -44.789062 -27.511719 "/>
</g>
<g id="glyph-3-0">
<path d="M 5.878906 -43.730469 L 33.53125 -43.730469 L 33.53125 -38.75 L 11.816406 -38.75 L 11.816406 -25.792969 L 32.632812 -25.792969 L 32.632812 -20.816406 L 11.816406 -20.816406 L 11.816406 -4.980469 L 34.070312 -4.980469 L 34.070312 0 L 5.878906 0 Z M 5.878906 -43.730469 "/>
</g>
<g id="glyph-3-1">
<path d="M 31.191406 -26.511719 C 32.511719 -28.914062 34.132812 -30.652344 35.992188 -31.851562 C 37.851562 -32.992188 40.070312 -33.589844 42.648438 -33.589844 C 46.007812 -33.589844 48.648438 -32.390625 50.507812 -29.992188 C 52.367188 -27.59375 53.324219 -24.171875 53.324219 -19.792969 L 53.324219 0 L 47.925781 0 L 47.925781 -19.613281 C 47.925781 -22.734375 47.328125 -25.074219 46.246094 -26.632812 C 45.109375 -28.132812 43.429688 -28.914062 41.148438 -28.914062 C 38.328125 -28.914062 36.109375 -27.953125 34.492188 -26.09375 C 32.871094 -24.234375 32.089844 -21.714844 32.089844 -18.535156 L 32.089844 0 L 26.691406 0 L 26.691406 -19.613281 C 26.691406 -22.734375 26.09375 -25.074219 25.011719 -26.632812 C 23.875 -28.132812 22.132812 -28.914062 19.855469 -28.914062 C 17.09375 -28.914062 14.875 -27.953125 13.257812 -26.09375 C 11.636719 -24.234375 10.855469 -21.714844 10.855469 -18.535156 L 10.855469 0 L 5.457031 0 L 5.457031 -32.8125 L 10.855469 -32.8125 L 10.855469 -27.710938 C 12.058594 -29.691406 13.554688 -31.191406 15.296875 -32.152344 C 16.976562 -33.113281 19.015625 -33.589844 21.414062 -33.589844 C 23.8125 -33.589844 25.792969 -32.992188 27.472656 -31.792969 C 29.152344 -30.59375 30.351562 -28.792969 31.191406 -26.511719 Z M 31.191406 -26.511719 "/>
</g>
<g id="glyph-3-2">
<path d="M 10.855469 -4.917969 L 10.855469 12.417969 L 5.457031 12.417969 L 5.457031 -32.8125 L 10.855469 -32.8125 L 10.855469 -27.832031 C 11.9375 -29.753906 13.375 -31.191406 15.117188 -32.152344 C 16.855469 -33.113281 18.953125 -33.589844 21.355469 -33.589844 C 25.3125 -33.589844 28.550781 -31.972656 31.070312 -28.851562 C 33.53125 -25.671875 34.789062 -21.535156 34.789062 -16.375 C 34.789062 -11.21875 33.53125 -7.019531 31.070312 -3.898438 C 28.550781 -0.78125 25.3125 0.78125 21.355469 0.78125 C 18.953125 0.78125 16.855469 0.300781 15.117188 -0.601562 C 13.375 -1.5 11.9375 -2.9375 10.855469 -4.917969 Z M 29.210938 -16.375 C 29.210938 -20.335938 28.371094 -23.394531 26.753906 -25.671875 C 25.074219 -27.953125 22.855469 -29.09375 20.035156 -29.09375 C 17.15625 -29.09375 14.9375 -27.953125 13.316406 -25.671875 C 11.636719 -23.394531 10.855469 -20.335938 10.855469 -16.375 C 10.855469 -12.417969 11.636719 -9.296875 13.316406 -7.019531 C 14.9375 -4.738281 17.15625 -3.660156 20.035156 -3.660156 C 22.855469 -3.660156 25.074219 -4.738281 26.753906 -7.019531 C 28.371094 -9.296875 29.210938 -12.417969 29.210938 -16.375 Z M 29.210938 -16.375 "/>
</g>
<g id="glyph-3-3">
<path d="M 5.636719 -32.8125 L 11.039062 -32.8125 L 11.039062 0 L 5.636719 0 Z M 5.636719 -45.589844 L 11.039062 -45.589844 L 11.039062 -38.75 L 5.636719 -38.75 Z M 5.636719 -45.589844 "/>
</g>
<g id="glyph-3-4">
<path d="M 24.652344 -27.773438 C 24.054688 -28.132812 23.394531 -28.371094 22.675781 -28.550781 C 21.953125 -28.671875 21.175781 -28.792969 20.335938 -28.792969 C 17.277344 -28.792969 14.9375 -27.773438 13.316406 -25.792969 C 11.636719 -23.8125 10.855469 -20.996094 10.855469 -17.277344 L 10.855469 0 L 5.457031 0 L 5.457031 -32.8125 L 10.855469 -32.8125 L 10.855469 -27.710938 C 11.9375 -29.691406 13.4375 -31.191406 15.234375 -32.152344 C 17.035156 -33.113281 19.253906 -33.589844 21.894531 -33.589844 C 22.253906 -33.589844 22.675781 -33.53125 23.152344 -33.53125 C 23.574219 -33.472656 24.054688 -33.410156 24.652344 -33.292969 Z M 24.652344 -27.773438 "/>
</g>
<g id="glyph-3-5">
<path d="M 29.273438 -31.550781 L 29.273438 -26.511719 C 27.710938 -27.351562 26.214844 -27.953125 24.652344 -28.371094 C 23.09375 -28.792969 21.59375 -29.03125 20.035156 -29.03125 C 16.554688 -29.03125 13.796875 -27.894531 11.875 -25.671875 C 9.957031 -23.453125 8.996094 -20.335938 8.996094 -16.375 C 8.996094 -12.355469 9.957031 -9.238281 11.875 -7.019531 C 13.796875 -4.796875 16.554688 -3.71875 20.035156 -3.71875 C 21.59375 -3.71875 23.09375 -3.898438 24.652344 -4.320312 C 26.214844 -4.738281 27.710938 -5.398438 29.273438 -6.238281 L 29.273438 -1.257812 C 27.710938 -0.539062 26.152344 0 24.59375 0.300781 C 22.972656 0.601562 21.234375 0.78125 19.433594 0.78125 C 14.515625 0.78125 10.558594 -0.71875 7.679688 -3.839844 C 4.738281 -6.898438 3.300781 -11.097656 3.300781 -16.375 C 3.300781 -21.714844 4.738281 -25.914062 7.679688 -28.972656 C 10.617188 -32.03125 14.636719 -33.589844 19.792969 -33.589844 C 21.472656 -33.589844 23.09375 -33.410156 24.652344 -33.050781 C 26.214844 -32.691406 27.773438 -32.210938 29.273438 -31.550781 Z M 29.273438 -31.550781 "/>
</g>
<g id="glyph-3-6">
<path d="M 20.574219 -16.496094 C 16.195312 -16.496094 13.195312 -15.957031 11.515625 -14.996094 C 9.835938 -13.976562 8.996094 -12.296875 8.996094 -9.898438 C 8.996094 -7.976562 9.597656 -6.417969 10.855469 -5.339844 C 12.117188 -4.199219 13.855469 -3.660156 16.015625 -3.660156 C 19.015625 -3.660156 21.414062 -4.679688 23.214844 -6.839844 C 25.011719 -8.9375 25.914062 -11.757812 25.914062 -15.296875 L 25.914062 -16.496094 Z M 31.3125 -18.714844 L 31.3125 0 L 25.914062 0 L 25.914062 -4.980469 C 24.652344 -2.9375 23.09375 -1.5 21.292969 -0.601562 C 19.496094 0.300781 17.214844 0.78125 14.578125 0.78125 C 11.21875 0.78125 8.519531 -0.121094 6.539062 -1.980469 C 4.558594 -3.839844 3.597656 -6.359375 3.597656 -9.539062 C 3.597656 -13.195312 4.796875 -15.957031 7.316406 -17.875 C 9.777344 -19.734375 13.4375 -20.695312 18.355469 -20.695312 L 25.914062 -20.695312 L 25.914062 -21.234375 C 25.914062 -23.695312 25.074219 -25.613281 23.453125 -26.992188 C 21.835938 -28.3125 19.554688 -29.03125 16.617188 -29.03125 C 14.695312 -29.03125 12.898438 -28.792969 11.097656 -28.3125 C 9.296875 -27.832031 7.617188 -27.171875 6 -26.332031 L 6 -31.3125 C 7.917969 -32.03125 9.835938 -32.632812 11.695312 -32.992188 C 13.554688 -33.351562 15.355469 -33.589844 17.15625 -33.589844 C 21.894531 -33.589844 25.433594 -32.332031 27.773438 -29.871094 C 30.113281 -27.414062 31.3125 -23.695312 31.3125 -18.714844 Z M 31.3125 -18.714844 "/>
</g>
<g id="glyph-3-7">
<path d="M 5.636719 -45.589844 L 11.039062 -45.589844 L 11.039062 0 L 5.636719 0 Z M 5.636719 -45.589844 "/>
</g>
<g id="glyph-3-8">
</g>
<g id="glyph-3-9">
<path d="M 2.519531 -32.8125 L 7.917969 -32.8125 L 14.636719 -7.199219 L 21.355469 -32.8125 L 27.710938 -32.8125 L 34.429688 -7.199219 L 41.148438 -32.8125 L 46.546875 -32.8125 L 37.96875 0 L 31.613281 0 L 24.535156 -26.871094 L 17.457031 0 L 11.097656 0 Z M 2.519531 -32.8125 "/>
</g>
<g id="glyph-3-10">
<path d="M 15.234375 -43.730469 L 20.214844 -43.730469 L 4.980469 5.519531 L 0 5.519531 Z M 15.234375 -43.730469 "/>
</g>
<g id="glyph-3-11">
<path d="M 11.816406 -20.875 L 11.816406 -4.859375 L 21.292969 -4.859375 C 24.472656 -4.859375 26.8125 -5.519531 28.371094 -6.839844 C 29.871094 -8.15625 30.652344 -10.136719 30.652344 -12.898438 C 30.652344 -15.597656 29.871094 -17.574219 28.371094 -18.894531 C 26.8125 -20.214844 24.472656 -20.875 21.292969 -20.875 Z M 11.816406 -38.871094 L 11.816406 -25.671875 L 20.574219 -25.671875 C 23.453125 -25.671875 25.554688 -26.214844 26.992188 -27.292969 C 28.433594 -28.371094 29.152344 -29.992188 29.152344 -32.273438 C 29.152344 -34.429688 28.433594 -36.109375 26.992188 -37.191406 C 25.554688 -38.269531 23.453125 -38.871094 20.574219 -38.871094 Z M 5.878906 -43.730469 L 20.996094 -43.730469 C 25.492188 -43.730469 28.972656 -42.769531 31.433594 -40.910156 C 33.832031 -38.988281 35.089844 -36.351562 35.089844 -32.929688 C 35.089844 -30.230469 34.429688 -28.074219 33.171875 -26.511719 C 31.910156 -24.953125 30.113281 -23.933594 27.710938 -23.574219 C 30.59375 -22.914062 32.871094 -21.59375 34.492188 -19.613281 C 36.050781 -17.636719 36.890625 -15.175781 36.890625 -12.238281 C 36.890625 -8.277344 35.511719 -5.277344 32.871094 -3.179688 C 30.230469 -1.019531 26.453125 0 21.59375 0 L 5.878906 0 Z M 5.878906 -43.730469 "/>
</g>
<g id="glyph-3-12">
<path d="M 5.878906 -43.730469 L 13.855469 -43.730469 L 33.230469 -7.136719 L 33.230469 -43.730469 L 38.988281 -43.730469 L 38.988281 0 L 31.011719 0 L 11.636719 -36.589844 L 11.636719 0 L 5.878906 0 Z M 5.878906 -43.730469 "/>
</g>
<g id="glyph-3-13">
<path d="M 18.355469 -29.03125 C 15.476562 -29.03125 13.195312 -27.894531 11.515625 -25.613281 C 9.835938 -23.332031 8.996094 -20.273438 8.996094 -16.375 C 8.996094 -12.417969 9.777344 -9.359375 11.457031 -7.078125 C 13.136719 -4.796875 15.414062 -3.71875 18.355469 -3.71875 C 21.234375 -3.71875 23.515625 -4.796875 25.195312 -7.078125 C 26.871094 -9.359375 27.710938 -12.417969 27.710938 -16.375 C 27.710938 -20.214844 26.871094 -23.332031 25.195312 -25.613281 C 23.515625 -27.894531 21.234375 -29.03125 18.355469 -29.03125 Z M 18.355469 -33.589844 C 23.035156 -33.589844 26.691406 -32.03125 29.390625 -29.03125 C 32.03125 -25.972656 33.410156 -21.773438 33.410156 -16.375 C 33.410156 -10.976562 32.03125 -6.777344 29.390625 -3.777344 C 26.691406 -0.71875 23.035156 0.78125 18.355469 0.78125 C 13.617188 0.78125 9.898438 -0.71875 7.257812 -3.777344 C 4.617188 -6.777344 3.300781 -10.976562 3.300781 -16.375 C 3.300781 -21.773438 4.617188 -25.972656 7.257812 -29.03125 C 9.898438 -32.03125 13.617188 -33.589844 18.355469 -33.589844 Z M 18.355469 -33.589844 "/>
</g>
<g id="glyph-3-14">
<path d="M -0.121094 -43.730469 L 36.832031 -43.730469 L 36.832031 -38.75 L 21.292969 -38.75 L 21.292969 0 L 15.355469 0 L 15.355469 -38.75 L -0.121094 -38.75 Z M -0.121094 -43.730469 "/>
</g>
<g id="glyph-3-15">
<path d="M 32.929688 -19.792969 L 32.929688 0 L 27.53125 0 L 27.53125 -19.613281 C 27.53125 -22.734375 26.871094 -25.011719 25.671875 -26.574219 C 24.472656 -28.132812 22.675781 -28.914062 20.273438 -28.914062 C 17.335938 -28.914062 15.054688 -27.953125 13.375 -26.09375 C 11.695312 -24.234375 10.855469 -21.714844 10.855469 -18.535156 L 10.855469 0 L 5.457031 0 L 5.457031 -45.589844 L 10.855469 -45.589844 L 10.855469 -27.710938 C 12.117188 -29.632812 13.617188 -31.132812 15.414062 -32.089844 C 17.15625 -33.050781 19.195312 -33.589844 21.472656 -33.589844 C 25.195312 -33.589844 28.074219 -32.390625 29.992188 -30.050781 C 31.910156 -27.710938 32.929688 -24.292969 32.929688 -19.792969 Z M 32.929688 -19.792969 "/>
</g>
<g id="glyph-3-16">
<path d="M 33.710938 -17.753906 L 33.710938 -15.117188 L 8.9375 -15.117188 C 9.175781 -11.398438 10.257812 -8.519531 12.296875 -6.597656 C 14.277344 -4.679688 17.035156 -3.71875 20.632812 -3.71875 C 22.675781 -3.71875 24.714844 -3.957031 26.632812 -4.4375 C 28.550781 -4.917969 30.53125 -5.699219 32.453125 -6.777344 L 32.453125 -1.679688 C 30.53125 -0.839844 28.550781 -0.179688 26.511719 0.179688 C 24.472656 0.539062 22.375 0.78125 20.335938 0.78125 C 15.054688 0.78125 10.917969 -0.71875 7.859375 -3.71875 C 4.796875 -6.71875 3.300781 -10.855469 3.300781 -16.074219 C 3.300781 -21.414062 4.738281 -25.671875 7.617188 -28.851562 C 10.496094 -31.972656 14.457031 -33.589844 19.375 -33.589844 C 23.8125 -33.589844 27.292969 -32.152344 29.871094 -29.332031 C 32.390625 -26.453125 33.710938 -22.613281 33.710938 -17.753906 Z M 28.3125 -19.316406 C 28.253906 -22.253906 27.414062 -24.59375 25.851562 -26.394531 C 24.234375 -28.132812 22.074219 -29.03125 19.433594 -29.03125 C 16.4375 -29.03125 14.035156 -28.132812 12.238281 -26.453125 C 10.4375 -24.773438 9.359375 -22.375 9.117188 -19.316406 Z M 28.3125 -19.316406 "/>
</g>
<g id="glyph-3-17">
<path d="M 10.976562 -42.109375 L 10.976562 -32.8125 L 22.074219 -32.8125 L 22.074219 -28.613281 L 10.976562 -28.613281 L 10.976562 -10.796875 C 10.976562 -8.097656 11.335938 -6.359375 12.058594 -5.636719 C 12.777344 -4.859375 14.277344 -4.5 16.554688 -4.5 L 22.074219 -4.5 L 22.074219 0 L 16.554688 0 C 12.355469 0 9.476562 -0.78125 7.917969 -2.339844 C 6.359375 -3.898438 5.578125 -6.71875 5.578125 -10.796875 L 5.578125 -28.613281 L 1.621094 -28.613281 L 1.621094 -32.8125 L 5.578125 -32.8125 L 5.578125 -42.109375 Z M 10.976562 -42.109375 "/>
</g>
<g id="glyph-3-18">
<path d="M 18.59375 -45.527344 C 15.957031 -40.96875 14.035156 -36.53125 12.777344 -32.152344 C 11.457031 -27.773438 10.855469 -23.332031 10.855469 -18.835938 C 10.855469 -14.277344 11.457031 -9.835938 12.777344 -5.457031 C 14.035156 -1.019531 15.957031 3.359375 18.59375 7.859375 L 13.917969 7.859375 C 10.976562 3.238281 8.757812 -1.199219 7.316406 -5.636719 C 5.878906 -10.078125 5.160156 -14.457031 5.160156 -18.835938 C 5.160156 -23.152344 5.878906 -27.53125 7.316406 -31.972656 C 8.757812 -36.410156 10.917969 -40.910156 13.917969 -45.527344 Z M 18.59375 -45.527344 "/>
</g>
<g id="glyph-3-19">
<path d="M 4.796875 -45.527344 L 9.476562 -45.527344 C 12.355469 -40.910156 14.578125 -36.410156 16.015625 -31.972656 C 17.457031 -27.53125 18.234375 -23.152344 18.234375 -18.835938 C 18.234375 -14.457031 17.457031 -10.078125 16.015625 -5.636719 C 14.578125 -1.199219 12.355469 3.238281 9.476562 7.859375 L 4.796875 7.859375 C 7.378906 3.359375 9.296875 -1.019531 10.617188 -5.457031 C 11.875 -9.835938 12.535156 -14.277344 12.535156 -18.835938 C 12.535156 -23.332031 11.875 -27.773438 10.617188 -32.152344 C 9.296875 -36.53125 7.378906 -40.96875 4.796875 -45.527344 Z M 4.796875 -45.527344 "/>
</g>
<g id="glyph-4-0">
<path d="M 5.207031 -3.484375 L 11.96875 -3.484375 L 11.96875 -26.832031 L 4.617188 -25.363281 L 4.617188 -29.140625 L 11.925781 -30.609375 L 16.082031 -30.609375 L 16.082031 -3.484375 L 22.84375 -3.484375 L 22.84375 0 L 5.207031 0 Z M 5.207031 -3.484375 "/>
</g>
<g id="glyph-5-0">
<path d="M 20.996094 -22.296875 L 20.28125 -18.726562 C 19.273438 -19.230469 18.179688 -19.652344 17.089844 -19.945312 C 15.996094 -20.195312 14.863281 -20.363281 13.6875 -20.363281 C 11.671875 -20.363281 10.121094 -20.027344 8.984375 -19.355469 C 7.851562 -18.683594 7.304688 -17.761719 7.304688 -16.585938 C 7.304688 -15.242188 8.609375 -14.191406 11.296875 -13.476562 C 11.464844 -13.394531 11.632812 -13.351562 11.714844 -13.351562 L 12.933594 -12.976562 C 15.453125 -12.261719 17.132812 -11.503906 17.972656 -10.75 C 18.8125 -9.992188 19.230469 -8.945312 19.230469 -7.640625 C 19.230469 -5.207031 18.265625 -3.234375 16.332031 -1.722656 C 14.402344 -0.210938 11.839844 0.546875 8.734375 0.546875 C 7.515625 0.546875 6.257812 0.417969 4.914062 0.210938 C 3.570312 0 2.058594 -0.335938 0.460938 -0.839844 L 1.21875 -4.746094 C 2.5625 -3.988281 3.945312 -3.441406 5.289062 -3.105469 C 6.632812 -2.730469 7.894531 -2.5625 9.152344 -2.5625 C 11 -2.5625 12.472656 -2.9375 13.644531 -3.738281 C 14.78125 -4.535156 15.367188 -5.542969 15.367188 -6.761719 C 15.367188 -8.0625 13.855469 -9.113281 10.832031 -9.953125 L 10.457031 -10.035156 L 9.152344 -10.371094 C 7.222656 -10.875 5.792969 -11.503906 4.914062 -12.34375 C 4.03125 -13.183594 3.609375 -14.234375 3.609375 -15.535156 C 3.609375 -17.972656 4.492188 -19.945312 6.339844 -21.371094 C 8.1875 -22.800781 10.664062 -23.515625 13.855469 -23.515625 C 15.117188 -23.515625 16.332031 -23.386719 17.507812 -23.179688 C 18.683594 -22.96875 19.820312 -22.675781 20.996094 -22.296875 Z M 20.996094 -22.296875 "/>
</g>
</g>
<clipPath id="clip-0">
<path clip-rule="nonzero" d="M 0 0.167969 L 1791.070312 0.167969 L 1791.070312 1294.828125 L 0 1294.828125 Z M 0 0.167969 "/>
</clipPath>
</defs>
<g clip-path="url(#clip-0)">
<path fill-rule="nonzero" fill="rgb(100%, 100%, 100%)" fill-opacity="1" d="M 0 1294.828125 L 1791.070312 1294.828125 L 1791.070312 0.167969 L 0 0.167969 Z M 0 1294.828125 "/>
</g>
<path fill-rule="nonzero" fill="rgb(100%, 100%, 100%)" fill-opacity="1" d="M 221.875 1115.875 L 1783.871094 1115.875 L 1783.871094 7.363281 L 221.875 7.363281 Z M 221.875 1115.875 "/>
<path fill="none" stroke-width="15" stroke-linecap="butt" stroke-linejoin="round" stroke="rgb(14.99939%, 14.99939%, 14.99939%)" stroke-opacity="1" stroke-miterlimit="10" d="M 292.951119 163.998589 L 292.951119 193.998571 " transform="matrix(0.99974, 0, 0, -0.99974, -0.000000000000028422, 1294.82707)"/>
<g fill="rgb(14.99939%, 14.99939%, 14.99939%)" fill-opacity="1">
<use xlink:href="#glyph-0-0" x="237.234649" y="1189.045188"/>
<use xlink:href="#glyph-0-1" x="281.743081" y="1189.045188"/>
<use xlink:href="#glyph-0-0" x="303.997297" y="1189.045188"/>
</g>
<path fill="none" stroke-width="15" stroke-linecap="butt" stroke-linejoin="round" stroke="rgb(14.99939%, 14.99939%, 14.99939%)" stroke-opacity="1" stroke-miterlimit="10" d="M 608.58782 163.998589 L 608.58782 193.998571 " transform="matrix(0.99974, 0, 0, -0.99974, -0.000000000000028422, 1294.82707)"/>
<g fill="rgb(14.99939%, 14.99939%, 14.99939%)" fill-opacity="1">
<use xlink:href="#glyph-0-0" x="552.788999" y="1189.045188"/>
<use xlink:href="#glyph-0-1" x="597.297431" y="1189.045188"/>
<use xlink:href="#glyph-0-2" x="619.551647" y="1189.045188"/>
</g>
<path fill="none" stroke-width="15" stroke-linecap="butt" stroke-linejoin="round" stroke="rgb(14.99939%, 14.99939%, 14.99939%)" stroke-opacity="1" stroke-miterlimit="10" d="M 924.224521 163.998589 L 924.224521 193.998571 " transform="matrix(0.99974, 0, 0, -0.99974, -0.000000000000028422, 1294.82707)"/>
<g fill="rgb(14.99939%, 14.99939%, 14.99939%)" fill-opacity="1">
<use xlink:href="#glyph-0-0" x="868.343349" y="1189.045188"/>
<use xlink:href="#glyph-0-1" x="912.851781" y="1189.045188"/>
<use xlink:href="#glyph-0-3" x="935.105997" y="1189.045188"/>
</g>
<path fill="none" stroke-width="15" stroke-linecap="butt" stroke-linejoin="round" stroke="rgb(14.99939%, 14.99939%, 14.99939%)" stroke-opacity="1" stroke-miterlimit="10" d="M 1239.861222 163.998589 L 1239.861222 193.998571 " transform="matrix(0.99974, 0, 0, -0.99974, -0.000000000000028422, 1294.82707)"/>
<g fill="rgb(14.99939%, 14.99939%, 14.99939%)" fill-opacity="1">
<use xlink:href="#glyph-0-0" x="1183.897699" y="1189.045188"/>
<use xlink:href="#glyph-0-1" x="1228.406131" y="1189.045188"/>
<use xlink:href="#glyph-0-4" x="1250.660347" y="1189.045188"/>
</g>
<path fill="none" stroke-width="15" stroke-linecap="butt" stroke-linejoin="round" stroke="rgb(14.99939%, 14.99939%, 14.99939%)" stroke-opacity="1" stroke-miterlimit="10" d="M 1555.497923 163.998589 L 1555.497923 193.998571 " transform="matrix(0.99974, 0, 0, -0.99974, -0.000000000000028422, 1294.82707)"/>
<g fill="rgb(14.99939%, 14.99939%, 14.99939%)" fill-opacity="1">
<use xlink:href="#glyph-0-0" x="1499.452049" y="1189.045188"/>
<use xlink:href="#glyph-0-1" x="1543.960482" y="1189.045188"/>
<use xlink:href="#glyph-0-5" x="1566.214698" y="1189.045188"/>
</g>
<g fill="rgb(14.901733%, 14.901733%, 14.901733%)" fill-opacity="1">
<use xlink:href="#glyph-1-0" x="741.74628" y="1270.367802"/>
<use xlink:href="#glyph-1-1" x="799.331314" y="1270.367802"/>
<use xlink:href="#glyph-1-2" x="856.596431" y="1270.367802"/>
<use xlink:href="#glyph-1-3" x="910.582399" y="1270.367802"/>
<use xlink:href="#glyph-1-4" x="950.012152" y="1270.367802"/>
<use xlink:href="#glyph-1-5" x="997.599783" y="1270.367802"/>
<use xlink:href="#glyph-1-6" x="1025.032654" y="1270.367802"/>
<use xlink:href="#glyph-1-7" x="1063.262717" y="1270.367802"/>
<use xlink:href="#glyph-1-8" x="1115.409164" y="1270.367802"/>
<use xlink:href="#glyph-1-9" x="1143.241931" y="1270.367802"/>
<use xlink:href="#glyph-1-4" x="1179.792431" y="1270.367802"/>
<use xlink:href="#glyph-1-10" x="1227.380063" y="1270.367802"/>
</g>
<path fill="none" stroke-width="15" stroke-linecap="butt" stroke-linejoin="round" stroke="rgb(14.99939%, 14.99939%, 14.99939%)" stroke-opacity="1" stroke-miterlimit="10" d="M 236.932657 229.398394 L 206.932675 229.398394 " transform="matrix(0.99974, 0, 0, -0.99974, -0.000000000000028422, 1294.82707)"/>
<g fill="rgb(14.99939%, 14.99939%, 14.99939%)" fill-opacity="1">
<use xlink:href="#glyph-0-6" x="90.598328" y="1092.07664"/>
<use xlink:href="#glyph-0-1" x="135.10676" y="1092.07664"/>
<use xlink:href="#glyph-0-0" x="157.360976" y="1092.07664"/>
</g>
<path fill="none" stroke-width="15" stroke-linecap="butt" stroke-linejoin="round" stroke="rgb(14.99939%, 14.99939%, 14.99939%)" stroke-opacity="1" stroke-miterlimit="10" d="M 236.932657 427.08648 L 206.932675 427.08648 " transform="matrix(0.99974, 0, 0, -0.99974, -0.000000000000028422, 1294.82707)"/>
<g fill="rgb(14.99939%, 14.99939%, 14.99939%)" fill-opacity="1">
<use xlink:href="#glyph-0-6" x="90.598328" y="894.440004"/>
<use xlink:href="#glyph-0-1" x="135.10676" y="894.440004"/>
<use xlink:href="#glyph-0-7" x="157.360976" y="894.440004"/>
</g>
<path fill="none" stroke-width="15" stroke-linecap="butt" stroke-linejoin="round" stroke="rgb(14.99939%, 14.99939%, 14.99939%)" stroke-opacity="1" stroke-miterlimit="10" d="M 236.932657 624.774565 L 206.932675 624.774565 " transform="matrix(0.99974, 0, 0, -0.99974, -0.000000000000028422, 1294.82707)"/>
<g fill="rgb(14.99939%, 14.99939%, 14.99939%)" fill-opacity="1">
<use xlink:href="#glyph-0-2" x="90.598328" y="696.803367"/>
<use xlink:href="#glyph-0-1" x="135.10676" y="696.803367"/>
<use xlink:href="#glyph-0-0" x="157.360976" y="696.803367"/>
</g>
<path fill="none" stroke-width="15" stroke-linecap="butt" stroke-linejoin="round" stroke="rgb(14.99939%, 14.99939%, 14.99939%)" stroke-opacity="1" stroke-miterlimit="10" d="M 236.932657 822.46265 L 206.932675 822.46265 " transform="matrix(0.99974, 0, 0, -0.99974, -0.000000000000028422, 1294.82707)"/>
<g fill="rgb(14.99939%, 14.99939%, 14.99939%)" fill-opacity="1">
<use xlink:href="#glyph-0-2" x="90.598328" y="499.16673"/>
<use xlink:href="#glyph-0-1" x="135.10676" y="499.16673"/>
<use xlink:href="#glyph-0-7" x="157.360976" y="499.16673"/>
</g>
<path fill="none" stroke-width="15" stroke-linecap="butt" stroke-linejoin="round" stroke="rgb(14.99939%, 14.99939%, 14.99939%)" stroke-opacity="1" stroke-miterlimit="10" d="M 236.932657 1020.150735 L 206.932675 1020.150735 " transform="matrix(0.99974, 0, 0, -0.99974, -0.000000000000028422, 1294.82707)"/>
<g fill="rgb(14.99939%, 14.99939%, 14.99939%)" fill-opacity="1">
<use xlink:href="#glyph-0-8" x="90.598328" y="301.530093"/>
<use xlink:href="#glyph-0-1" x="135.10676" y="301.530093"/>
<use xlink:href="#glyph-0-0" x="157.360976" y="301.530093"/>
</g>
<path fill="none" stroke-width="15" stroke-linecap="butt" stroke-linejoin="round" stroke="rgb(14.99939%, 14.99939%, 14.99939%)" stroke-opacity="1" stroke-miterlimit="10" d="M 236.932657 1217.83882 L 206.932675 1217.83882 " transform="matrix(0.99974, 0, 0, -0.99974, -0.000000000000028422, 1294.82707)"/>
<g fill="rgb(14.99939%, 14.99939%, 14.99939%)" fill-opacity="1">
<use xlink:href="#glyph-0-8" x="90.598328" y="103.893457"/>
<use xlink:href="#glyph-0-1" x="135.10676" y="103.893457"/>
<use xlink:href="#glyph-0-7" x="157.360976" y="103.893457"/>
</g>
<g fill="rgb(14.901733%, 14.901733%, 14.901733%)" fill-opacity="1">
<use xlink:href="#glyph-2-0" x="67.963586" y="679.707254"/>
<use xlink:href="#glyph-2-1" x="67.963586" y="618.12326"/>
<use xlink:href="#glyph-2-2" x="67.963586" y="564.137291"/>
<use xlink:href="#glyph-2-3" x="67.963586" y="525.907227"/>
<use xlink:href="#glyph-2-4" x="67.963586" y="498.474357"/>
</g>
<path fill="none" stroke-width="17" stroke-linecap="round" stroke-linejoin="round" stroke="rgb(39.99939%, 76.077271%, 64.704895%)" stroke-opacity="1" stroke-miterlimit="10" d="M 292.951119 229.398394 L 450.76947 252.27934 L 608.58782 279.11053 L 766.406171 320.879196 L 924.224521 373.529595 L 1082.042872 441.867664 L 1239.861222 517.820993 L 1397.679573 621.179881 L 1555.497923 783.179005 L 1713.316274 1237.39859 " transform="matrix(0.99974, 0, 0, -0.99974, -0.000000000000028422, 1294.82707)"/>
<path fill-rule="nonzero" fill="rgb(39.99939%, 76.077271%, 64.704895%)" fill-opacity="1" stroke-width="1" stroke-linecap="butt" stroke-linejoin="round" stroke="rgb(39.99939%, 76.077271%, 64.704895%)" stroke-opacity="1" stroke-miterlimit="10" d="M -0.00143775 -25.001071 C 6.629191 -25.001071 12.990219 -22.367574 17.678937 -17.678856 C 22.367656 -12.990137 25.001153 -6.62911 25.001153 0.00151947 C 25.001153 6.628241 22.367656 12.989269 17.678937 17.677987 C 12.990219 22.366706 6.629191 25.000203 -0.00143775 25.000203 C -6.62816 25.000203 -12.989187 22.366706 -17.677906 17.677987 C -22.366624 12.989269 -25.000121 6.628241 -25.000121 0.00151947 C -25.000121 -6.62911 -22.366624 -12.990137 -17.677906 -17.678856 C -12.989187 -22.367574 -6.62816 -25.001071 -0.00143775 -25.001071 Z M -0.00143775 -25.001071 " transform="matrix(0.99974, 0, 0, -0.99974, 292.876437, 1065.4898)"/>
<path fill-rule="nonzero" fill="rgb(39.99939%, 76.077271%, 64.704895%)" fill-opacity="1" stroke-width="1" stroke-linecap="butt" stroke-linejoin="round" stroke="rgb(39.99939%, 76.077271%, 64.704895%)" stroke-opacity="1" stroke-miterlimit="10" d="M -0.00126903 -25.001348 C 6.62936 -25.001348 12.990388 -22.363944 17.679106 -17.679133 C 22.363917 -12.990415 25.001321 -6.629387 25.001321 0.001242 C 25.001321 6.631871 22.363917 12.988992 17.679106 17.67771 C 12.990388 22.366428 6.62936 24.999925 -0.00126903 24.999925 C -6.631898 24.999925 -12.989019 22.366428 -17.677737 17.67771 C -22.366455 12.988992 -24.999952 6.631871 -24.999952 0.001242 C -24.999952 -6.629387 -22.366455 -12.990415 -17.677737 -17.679133 C -12.989019 -22.363944 -6.631898 -25.001348 -0.00126903 -25.001348 Z M -0.00126903 -25.001348 " transform="matrix(0.99974, 0, 0, -0.99974, 450.653612, 1042.614523)"/>
<path fill-rule="nonzero" fill="rgb(39.99939%, 76.077271%, 64.704895%)" fill-opacity="1" stroke-width="1" stroke-linecap="butt" stroke-linejoin="round" stroke="rgb(39.99939%, 76.077271%, 64.704895%)" stroke-opacity="1" stroke-miterlimit="10" d="M -0.00110031 -24.999344 C 6.629529 -24.999344 12.990557 -22.365848 17.679275 -17.677129 C 22.364086 -12.988411 25.00149 -6.63129 25.00149 -0.0006613 C 25.00149 6.629968 22.364086 12.990996 17.679275 17.675807 C 12.990557 22.364525 6.629529 25.001929 -0.00110031 25.001929 C -6.631729 25.001929 -12.98885 22.364525 -17.677568 17.675807 C -22.366287 12.990996 -24.999783 6.629968 -24.999783 -0.0006613 C -24.999783 -6.63129 -22.366287 -12.988411 -17.677568 -17.677129 C -12.98885 -22.365848 -6.631729 -24.999344 -0.00110031 -24.999344 Z M -0.00110031 -24.999344 " transform="matrix(0.99974, 0, 0, -0.99974, 608.430788, 1015.788401)"/>
<path fill-rule="nonzero" fill="rgb(39.99939%, 76.077271%, 64.704895%)" fill-opacity="1" stroke-width="1" stroke-linecap="butt" stroke-linejoin="round" stroke="rgb(39.99939%, 76.077271%, 64.704895%)" stroke-opacity="1" stroke-miterlimit="10" d="M -0.000931585 -25.000809 C 6.629698 -25.000809 12.990725 -22.367312 17.679444 -17.678594 C 22.364255 -12.989876 25.001659 -6.628848 25.001659 0.00178134 C 25.001659 6.628503 22.364255 12.989531 17.679444 17.678249 C 12.990725 22.366968 6.629698 25.000464 -0.000931585 25.000464 C -6.631561 25.000464 -12.988681 22.366968 -17.6774 17.678249 C -22.366118 12.989531 -24.999615 6.628503 -24.999615 0.00178134 C -24.999615 -6.628848 -22.366118 -12.989876 -17.6774 -17.678594 C -12.988681 -22.367312 -6.631561 -25.000809 -0.000931585 -25.000809 Z M -0.000931585 -25.000809 " transform="matrix(0.99974, 0, 0, -0.99974, 766.207963, 974.033031)"/>
<path fill-rule="nonzero" fill="rgb(39.99939%, 76.077271%, 64.704895%)" fill-opacity="1" stroke-width="1" stroke-linecap="butt" stroke-linejoin="round" stroke="rgb(39.99939%, 76.077271%, 64.704895%)" stroke-opacity="1" stroke-miterlimit="10" d="M -0.000762862 -24.998634 C 6.629866 -24.998634 12.990894 -22.365138 17.679612 -17.676419 C 22.364423 -12.987701 25.001827 -6.63058 25.001827 0.0000486238 C 25.001827 6.630678 22.364423 12.987798 17.679612 17.676517 C 12.990894 22.365235 6.629866 24.998732 -0.000762862 24.998732 C -6.631392 24.998732 -12.988513 22.365235 -17.677231 17.676517 C -22.365949 12.987798 -24.999446 6.630678 -24.999446 0.0000486238 C -24.999446 -6.63058 -22.365949 -12.987701 -17.677231 -17.676419 C -12.988513 -22.365138 -6.631392 -24.998634 -0.000762862 -24.998634 Z M -0.000762862 -24.998634 " transform="matrix(0.99974, 0, 0, -0.99974, 923.985138, 921.39458)"/>
<path fill-rule="nonzero" fill="rgb(39.99939%, 76.077271%, 64.704895%)" fill-opacity="1" stroke-width="1" stroke-linecap="butt" stroke-linejoin="round" stroke="rgb(39.99939%, 76.077271%, 64.704895%)" stroke-opacity="1" stroke-miterlimit="10" d="M -0.000594139 -25.001214 C 6.630035 -25.001214 12.991063 -22.367717 17.675874 -17.678999 C 22.364592 -12.990281 24.998089 -6.629253 24.998089 0.00137631 C 24.998089 6.632005 22.364592 12.989126 17.675874 17.677844 C 12.991063 22.366563 6.630035 25.000059 -0.000594139 25.000059 C -6.631223 25.000059 -12.988344 22.366563 -17.677062 17.677844 C -22.36578 12.989126 -24.999277 6.632005 -24.999277 0.00137631 C -24.999277 -6.629253 -22.36578 -12.990281 -17.677062 -17.678999 C -12.988344 -22.367717 -6.631223 -25.001214 -0.000594139 -25.001214 Z M -0.000594139 -25.001214 " transform="matrix(0.99974, 0, 0, -0.99974, 1081.762313, 853.075595)"/>
<path fill-rule="nonzero" fill="rgb(39.99939%, 76.077271%, 64.704895%)" fill-opacity="1" stroke-width="1" stroke-linecap="butt" stroke-linejoin="round" stroke="rgb(39.99939%, 76.077271%, 64.704895%)" stroke-opacity="1" stroke-miterlimit="10" d="M -0.000425416 -24.998508 C 6.630204 -24.998508 12.991232 -22.365011 17.676043 -17.676293 C 22.364761 -12.987575 24.998258 -6.630454 24.998258 0.000174812 C 24.998258 6.630804 22.364761 12.987924 17.676043 17.676643 C 12.991232 22.365361 6.630204 24.998858 -0.000425416 24.998858 C -6.631055 24.998858 -12.988175 22.365361 -17.676893 17.676643 C -22.365612 12.987924 -24.999108 6.630804 -24.999108 0.000174812 C -24.999108 -6.630454 -22.365612 -12.987575 -17.676893 -17.676293 C -12.988175 -22.365011 -6.631055 -24.998508 -0.000425416 -24.998508 Z M -0.000425416 -24.998508 " transform="matrix(0.99974, 0, 0, -0.99974, 1239.539488, 777.1408)"/>
<path fill-rule="nonzero" fill="rgb(39.99939%, 76.077271%, 64.704895%)" fill-opacity="1" stroke-width="1" stroke-linecap="butt" stroke-linejoin="round" stroke="rgb(39.99939%, 76.077271%, 64.704895%)" stroke-opacity="1" stroke-miterlimit="10" d="M -0.000256693 -25.00155 C 6.630372 -25.00155 12.9914 -22.364146 17.676211 -17.679335 C 22.36493 -12.990616 24.998426 -6.629589 24.998426 0.00104058 C 24.998426 6.63167 22.36493 12.98879 17.676211 17.677509 C 12.9914 22.366227 6.630372 24.999724 -0.000256693 24.999724 C -6.630886 24.999724 -12.988006 22.366227 -17.676725 17.677509 C -22.365443 12.98879 -24.99894 6.63167 -24.99894 0.00104058 C -24.99894 -6.629589 -22.365443 -12.990616 -17.676725 -17.679335 C -12.988006 -22.364146 -6.630886 -25.00155 -0.000256693 -25.00155 Z M -0.000256693 -25.00155 " transform="matrix(0.99974, 0, 0, -0.99974, 1397.316663, 673.809634)"/>
<path fill-rule="nonzero" fill="rgb(39.99939%, 76.077271%, 64.704895%)" fill-opacity="1" stroke-width="1" stroke-linecap="butt" stroke-linejoin="round" stroke="rgb(39.99939%, 76.077271%, 64.704895%)" stroke-opacity="1" stroke-miterlimit="10" d="M -0.0000879706 -25.001422 C 6.630541 -25.001422 12.987662 -22.364018 17.67638 -17.679207 C 22.365098 -12.990489 24.998595 -6.629461 24.998595 0.00116818 C 24.998595 6.631797 22.365098 12.988918 17.67638 17.677636 C 12.987662 22.366354 6.630541 24.999851 -0.0000879706 24.999851 C -6.630717 24.999851 -12.987838 22.366354 -17.676556 17.677636 C -22.365274 12.988918 -24.998771 6.631797 -24.998771 0.00116818 C -24.998771 -6.629461 -22.365274 -12.990489 -17.676556 -17.679207 C -12.987838 -22.364018 -6.630717 -25.001422 -0.0000879706 -25.001422 Z M -0.0000879706 -25.001422 " transform="matrix(0.99974, 0, 0, -0.99974, 1555.093838, 511.85273)"/>
<path fill-rule="nonzero" fill="rgb(39.99939%, 76.077271%, 64.704895%)" fill-opacity="1" stroke-width="1" stroke-linecap="butt" stroke-linejoin="round" stroke="rgb(39.99939%, 76.077271%, 64.704895%)" stroke-opacity="1" stroke-miterlimit="10" d="M 0.0000807522 -25.000875 C 6.63071 -25.000875 12.98783 -22.367379 17.676549 -17.67866 C 22.365267 -12.989942 24.998764 -6.628914 24.998764 0.00171484 C 24.998764 6.628437 22.365267 12.989465 17.676549 17.678183 C 12.98783 22.366901 6.63071 25.000398 0.0000807522 25.000398 C -6.630548 25.000398 -12.987669 22.366901 -17.676387 17.678183 C -22.365106 12.989465 -24.998602 6.628437 -24.998602 0.00171484 C -24.998602 -6.628914 -22.365106 -12.989942 -17.676387 -17.67866 C -12.987669 -22.367379 -6.630548 -25.000875 0.0000807522 -25.000875 Z M 0.0000807522 -25.000875 " transform="matrix(0.99974, 0, 0, -0.99974, 1712.871013, 57.751714)"/>
<path fill="none" stroke-width="17" stroke-linecap="round" stroke-linejoin="round" stroke="rgb(55.293274%, 62.744141%, 79.606628%)" stroke-opacity="1" stroke-miterlimit="10" d="M 292.951119 229.398394 L 450.76947 242.683096 L 608.58782 243.644284 L 766.406171 247.625787 L 924.224521 253.439798 L 1082.042872 230.453356 L 1239.861222 252.490332 L 1397.679573 262.289753 L 1555.497923 259.562482 L 1713.316274 247.629694 " transform="matrix(0.99974, 0, 0, -0.99974, -0.000000000000028422, 1294.82707)"/>
<path fill-rule="nonzero" fill="rgb(55.293274%, 62.744141%, 79.606628%)" fill-opacity="1" stroke-width="1" stroke-linecap="butt" stroke-linejoin="round" stroke="rgb(55.293274%, 62.744141%, 79.606628%)" stroke-opacity="1" stroke-miterlimit="10" d="M -0.00143775 -25.001071 C 6.629191 -25.001071 12.990219 -22.367574 17.678937 -17.678856 C 22.367656 -12.990137 25.001153 -6.62911 25.001153 0.00151947 C 25.001153 6.628241 22.367656 12.989269 17.678937 17.677987 C 12.990219 22.366706 6.629191 25.000203 -0.00143775 25.000203 C -6.62816 25.000203 -12.989187 22.366706 -17.677906 17.677987 C -22.366624 12.989269 -25.000121 6.628241 -25.000121 0.00151947 C -25.000121 -6.62911 -22.366624 -12.990137 -17.677906 -17.678856 C -12.989187 -22.367574 -6.62816 -25.001071 -0.00143775 -25.001071 Z M -0.00143775 -25.001071 " transform="matrix(0.99974, 0, 0, -0.99974, 292.876437, 1065.4898)"/>
<path fill-rule="nonzero" fill="rgb(55.293274%, 62.744141%, 79.606628%)" fill-opacity="1" stroke-width="1" stroke-linecap="butt" stroke-linejoin="round" stroke="rgb(55.293274%, 62.744141%, 79.606628%)" stroke-opacity="1" stroke-miterlimit="10" d="M -0.00126903 -25.001935 C 6.62936 -25.001935 12.990388 -22.364531 17.679106 -17.675812 C 22.363917 -12.991001 25.001321 -6.629973 25.001321 0.000655634 C 25.001321 6.631285 22.363917 12.988405 17.679106 17.677124 C 12.990388 22.365842 6.62936 24.999339 -0.00126903 24.999339 C -6.631898 24.999339 -12.989019 22.365842 -17.677737 17.677124 C -22.366455 12.988405 -24.999952 6.631285 -24.999952 0.000655634 C -24.999952 -6.629973 -22.366455 -12.991001 -17.677737 -17.675812 C -12.989019 -22.364531 -6.631898 -25.001935 -0.00126903 -25.001935 Z M -0.00126903 -25.001935 " transform="matrix(0.99974, 0, 0, -0.99974, 450.653612, 1052.207687)"/>
<path fill-rule="nonzero" fill="rgb(55.293274%, 62.744141%, 79.606628%)" fill-opacity="1" stroke-width="1" stroke-linecap="butt" stroke-linejoin="round" stroke="rgb(55.293274%, 62.744141%, 79.606628%)" stroke-opacity="1" stroke-miterlimit="10" d="M -0.00110031 -25.00159 C 6.629529 -25.00159 12.990557 -22.364186 17.679275 -17.679375 C 22.364086 -12.990657 25.00149 -6.629629 25.00149 0.000999886 C 25.00149 6.631629 22.364086 12.98875 17.679275 17.677468 C 12.990557 22.366186 6.629529 24.999683 -0.00110031 24.999683 C -6.631729 24.999683 -12.98885 22.366186 -17.677568 17.677468 C -22.366287 12.98875 -24.999783 6.631629 -24.999783 0.000999886 C -24.999783 -6.629629 -22.366287 -12.990657 -17.677568 -17.679375 C -12.98885 -22.364186 -6.631729 -25.00159 -0.00110031 -25.00159 Z M -0.00110031 -25.00159 " transform="matrix(0.99974, 0, 0, -0.99974, 608.430788, 1051.247093)"/>
<path fill-rule="nonzero" fill="rgb(55.293274%, 62.744141%, 79.606628%)" fill-opacity="1" stroke-width="1" stroke-linecap="butt" stroke-linejoin="round" stroke="rgb(55.293274%, 62.744141%, 79.606628%)" stroke-opacity="1" stroke-miterlimit="10" d="M -0.000931585 -25.000945 C 6.629698 -25.000945 12.990725 -22.367448 17.679444 -17.67873 C 22.364255 -12.990011 25.001659 -6.628983 25.001659 0.0016457 C 25.001659 6.628368 22.364255 12.989395 17.679444 17.678114 C 12.990725 22.366832 6.629698 25.000329 -0.000931585 25.000329 C -6.631561 25.000329 -12.988681 22.366832 -17.6774 17.678114 C -22.366118 12.989395 -24.999615 6.628368 -24.999615 0.0016457 C -24.999615 -6.628983 -22.366118 -12.990011 -17.6774 -17.67873 C -12.988681 -22.367448 -6.631561 -25.000945 -0.000931585 -25.000945 Z M -0.000931585 -25.000945 " transform="matrix(0.99974, 0, 0, -0.99974, 766.207963, 1047.26727)"/>
<path fill-rule="nonzero" fill="rgb(55.293274%, 62.744141%, 79.606628%)" fill-opacity="1" stroke-width="1" stroke-linecap="butt" stroke-linejoin="round" stroke="rgb(55.293274%, 62.744141%, 79.606628%)" stroke-opacity="1" stroke-miterlimit="10" d="M -0.000762862 -24.999459 C 6.629866 -24.999459 12.990894 -22.365962 17.679612 -17.677244 C 22.364423 -12.988526 25.001827 -6.631405 25.001827 -0.000776024 C 25.001827 6.629853 22.364423 12.990881 17.679612 17.679599 C 12.990894 22.36441 6.629866 25.001814 -0.000762862 25.001814 C -6.631392 25.001814 -12.988513 22.36441 -17.677231 17.679599 C -22.365949 12.990881 -24.999446 6.629853 -24.999446 -0.000776024 C -24.999446 -6.631405 -22.365949 -12.988526 -17.677231 -17.677244 C -12.988513 -22.365962 -6.631392 -24.999459 -0.000762862 -24.999459 Z M -0.000762862 -24.999459 " transform="matrix(0.99974, 0, 0, -0.99974, 923.985138, 1041.452349)"/>
<path fill-rule="nonzero" fill="rgb(55.293274%, 62.744141%, 79.606628%)" fill-opacity="1" stroke-width="1" stroke-linecap="butt" stroke-linejoin="round" stroke="rgb(55.293274%, 62.744141%, 79.606628%)" stroke-opacity="1" stroke-miterlimit="10" d="M -0.000594139 -25.001406 C 6.630035 -25.001406 12.991063 -22.364002 17.675874 -17.679191 C 22.364592 -12.990472 24.998089 -6.629445 24.998089 0.00118458 C 24.998089 6.631814 22.364592 12.988934 17.675874 17.677653 C 12.991063 22.366371 6.630035 24.999868 -0.000594139 24.999868 C -6.631223 24.999868 -12.988344 22.366371 -17.677062 17.677653 C -22.36578 12.988934 -24.999277 6.631814 -24.999277 0.00118458 C -24.999277 -6.629445 -22.36578 -12.990472 -17.677062 -17.679191 C -12.988344 -22.364002 -6.631223 -25.001406 -0.000594139 -25.001406 Z M -0.000594139 -25.001406 " transform="matrix(0.99974, 0, 0, -0.99974, 1081.762313, 1064.434778)"/>
<path fill-rule="nonzero" fill="rgb(55.293274%, 62.744141%, 79.606628%)" fill-opacity="1" stroke-width="1" stroke-linecap="butt" stroke-linejoin="round" stroke="rgb(55.293274%, 62.744141%, 79.606628%)" stroke-opacity="1" stroke-miterlimit="10" d="M -0.000425416 -25.000383 C 6.630204 -25.000383 12.991232 -22.366886 17.676043 -17.678168 C 22.364761 -12.98945 24.998258 -6.628422 24.998258 -0.00170006 C 24.998258 6.628929 22.364761 12.989957 17.676043 17.678675 C 12.991232 22.367393 6.630204 25.00089 -0.000425416 25.00089 C -6.631055 25.00089 -12.988175 22.367393 -17.676893 17.678675 C -22.365612 12.989957 -24.999108 6.628929 -24.999108 -0.00170006 C -24.999108 -6.628422 -22.365612 -12.98945 -17.676893 -17.678168 C -12.988175 -22.366886 -6.631055 -25.000383 -0.000425416 -25.000383 Z M -0.000425416 -25.000383 " transform="matrix(0.99974, 0, 0, -0.99974, 1239.539488, 1042.400644)"/>
<path fill-rule="nonzero" fill="rgb(55.293274%, 62.744141%, 79.606628%)" fill-opacity="1" stroke-width="1" stroke-linecap="butt" stroke-linejoin="round" stroke="rgb(55.293274%, 62.744141%, 79.606628%)" stroke-opacity="1" stroke-miterlimit="10" d="M -0.000256693 -25.001876 C 6.630372 -25.001876 12.9914 -22.364472 17.676211 -17.675754 C 22.36493 -12.990943 24.998426 -6.629915 24.998426 0.000714088 C 24.998426 6.631343 22.36493 12.988464 17.676211 17.677182 C 12.9914 22.3659 6.630372 24.999397 -0.000256693 24.999397 C -6.630886 24.999397 -12.988006 22.3659 -17.676725 17.677182 C -22.365443 12.988464 -24.99894 6.631343 -24.99894 0.000714088 C -24.99894 -6.629915 -22.365443 -12.990943 -17.676725 -17.675754 C -12.988006 -22.364472 -6.630886 -25.001876 -0.000256693 -25.001876 Z M -0.000256693 -25.001876 " transform="matrix(0.99974, 0, 0, -0.99974, 1397.316663, 1032.606183)"/>
<path fill-rule="nonzero" fill="rgb(55.293274%, 62.744141%, 79.606628%)" fill-opacity="1" stroke-width="1" stroke-linecap="butt" stroke-linejoin="round" stroke="rgb(55.293274%, 62.744141%, 79.606628%)" stroke-opacity="1" stroke-miterlimit="10" d="M -0.0000879706 -24.999851 C 6.630541 -24.999851 12.987662 -22.366354 17.67638 -17.677636 C 22.365098 -12.988917 24.998595 -6.631797 24.998595 -0.00116779 C 24.998595 6.629461 22.365098 12.990489 17.67638 17.679207 C 12.987662 22.364018 6.630541 25.001423 -0.0000879706 25.001423 C -6.630717 25.001423 -12.987838 22.364018 -17.676556 17.679207 C -22.365274 12.990489 -24.998771 6.629461 -24.998771 -0.00116779 C -24.998771 -6.631797 -22.365274 -12.988917 -17.676556 -17.677636 C -12.987838 -22.366354 -6.630717 -24.999851 -0.0000879706 -24.999851 Z M -0.0000879706 -24.999851 " transform="matrix(0.99974, 0, 0, -0.99974, 1555.093838, 1035.330864)"/>
<path fill-rule="nonzero" fill="rgb(55.293274%, 62.744141%, 79.606628%)" fill-opacity="1" stroke-width="1" stroke-linecap="butt" stroke-linejoin="round" stroke="rgb(55.293274%, 62.744141%, 79.606628%)" stroke-opacity="1" stroke-miterlimit="10" d="M 0.0000807522 -25.000761 C 6.63071 -25.000761 12.98783 -22.367264 17.676549 -17.678546 C 22.365267 -12.989827 24.998764 -6.6288 24.998764 0.0018295 C 24.998764 6.628551 22.365267 12.989579 17.676549 17.678297 C 12.98783 22.367016 6.63071 25.000513 0.0000807522 25.000513 C -6.630548 25.000513 -12.987669 22.367016 -17.676387 17.678297 C -22.365106 12.989579 -24.998602 6.628551 -24.998602 0.0018295 C -24.998602 -6.6288 -22.365106 -12.989827 -17.676387 -17.678546 C -12.987669 -22.367264 -6.630548 -25.000761 0.0000807522 -25.000761 Z M 0.0000807522 -25.000761 " transform="matrix(0.99974, 0, 0, -0.99974, 1712.871013, 1047.263548)"/>
<path fill="none" stroke-width="17" stroke-linecap="round" stroke-linejoin="round" stroke="rgb(90.586853%, 54.116821%, 76.469421%)" stroke-opacity="1" stroke-miterlimit="10" d="M 292.951119 229.398394 L 450.76947 250.782857 L 608.58782 276.062863 L 766.406171 306.586419 L 924.224521 344.44782 L 1082.042872 393.16751 L 1239.861222 459.165127 L 1397.679573 555.873849 L 1555.497923 718.10741 L 1713.316274 1084.30803 " transform="matrix(0.99974, 0, 0, -0.99974, -0.000000000000028422, 1294.82707)"/>
<path fill-rule="nonzero" fill="rgb(90.586853%, 54.116821%, 76.469421%)" fill-opacity="1" stroke-width="1" stroke-linecap="butt" stroke-linejoin="round" stroke="rgb(90.586853%, 54.116821%, 76.469421%)" stroke-opacity="1" stroke-miterlimit="10" d="M -0.00143775 -25.001071 C 6.629191 -25.001071 12.990219 -22.367574 17.678937 -17.678856 C 22.367656 -12.990137 25.001153 -6.62911 25.001153 0.00151947 C 25.001153 6.628241 22.367656 12.989269 17.678937 17.677987 C 12.990219 22.366706 6.629191 25.000203 -0.00143775 25.000203 C -6.62816 25.000203 -12.989187 22.366706 -17.677906 17.677987 C -22.366624 12.989269 -25.000121 6.628241 -25.000121 0.00151947 C -25.000121 -6.62911 -22.366624 -12.990137 -17.677906 -17.678856 C -12.989187 -22.367574 -6.62816 -25.001071 -0.00143775 -25.001071 Z M -0.00143775 -25.001071 " transform="matrix(0.99974, 0, 0, -0.99974, 292.876437, 1065.4898)"/>
<path fill-rule="nonzero" fill="rgb(90.586853%, 54.116821%, 76.469421%)" fill-opacity="1" stroke-width="1" stroke-linecap="butt" stroke-linejoin="round" stroke="rgb(90.586853%, 54.116821%, 76.469421%)" stroke-opacity="1" stroke-miterlimit="10" d="M -0.00126903 -24.999599 C 6.62936 -24.999599 12.990388 -22.366102 17.679106 -17.677384 C 22.363917 -12.988665 25.001321 -6.631545 25.001321 -0.000915561 C 25.001321 6.629714 22.363917 12.990741 17.679106 17.67946 C 12.990388 22.364271 6.62936 25.001675 -0.00126903 25.001675 C -6.631898 25.001675 -12.989019 22.364271 -17.677737 17.67946 C -22.366455 12.990741 -24.999952 6.629714 -24.999952 -0.000915561 C -24.999952 -6.631545 -22.366455 -12.988665 -17.677737 -17.677384 C -12.989019 -22.366102 -6.631898 -24.999599 -0.00126903 -24.999599 Z M -0.00126903 -24.999599 " transform="matrix(0.99974, 0, 0, -0.99974, 450.653612, 1044.10846)"/>
<path fill-rule="nonzero" fill="rgb(90.586853%, 54.116821%, 76.469421%)" fill-opacity="1" stroke-width="1" stroke-linecap="butt" stroke-linejoin="round" stroke="rgb(90.586853%, 54.116821%, 76.469421%)" stroke-opacity="1" stroke-miterlimit="10" d="M -0.00110031 -25.000502 C 6.629529 -25.000502 12.990557 -22.367005 17.679275 -17.678287 C 22.364086 -12.989568 25.00149 -6.628541 25.00149 -0.00181876 C 25.00149 6.62881 22.364086 12.989838 17.679275 17.678556 C 12.990557 22.367275 6.629529 25.000772 -0.00110031 25.000772 C -6.631729 25.000772 -12.98885 22.367275 -17.677568 17.678556 C -22.366287 12.989838 -24.999783 6.62881 -24.999783 -0.00181876 C -24.999783 -6.628541 -22.366287 -12.989568 -17.677568 -17.678287 C -12.98885 -22.367005 -6.631729 -25.000502 -0.00110031 -25.000502 Z M -0.00110031 -25.000502 " transform="matrix(0.99974, 0, 0, -0.99974, 608.430788, 1018.834119)"/>
<path fill-rule="nonzero" fill="rgb(90.586853%, 54.116821%, 76.469421%)" fill-opacity="1" stroke-width="1" stroke-linecap="butt" stroke-linejoin="round" stroke="rgb(90.586853%, 54.116821%, 76.469421%)" stroke-opacity="1" stroke-miterlimit="10" d="M -0.000931585 -25.001754 C 6.629698 -25.001754 12.990725 -22.36435 17.679444 -17.679539 C 22.364255 -12.99082 25.001659 -6.629793 25.001659 0.000836549 C 25.001659 6.631466 22.364255 12.988586 17.679444 17.677305 C 12.990725 22.366023 6.629698 24.99952 -0.000931585 24.99952 C -6.631561 24.99952 -12.988681 22.366023 -17.6774 17.677305 C -22.366118 12.988586 -24.999615 6.631466 -24.999615 0.000836549 C -24.999615 -6.629793 -22.366118 -12.99082 -17.6774 -17.679539 C -12.988681 -22.36435 -6.631561 -25.001754 -0.000931585 -25.001754 Z M -0.000931585 -25.001754 " transform="matrix(0.99974, 0, 0, -0.99974, 766.207963, 988.321149)"/>
<path fill-rule="nonzero" fill="rgb(90.586853%, 54.116821%, 76.469421%)" fill-opacity="1" stroke-width="1" stroke-linecap="butt" stroke-linejoin="round" stroke="rgb(90.586853%, 54.116821%, 76.469421%)" stroke-opacity="1" stroke-miterlimit="10" d="M -0.000762862 -24.999961 C 6.629866 -24.999961 12.990894 -22.366465 17.679612 -17.677746 C 22.364423 -12.989028 25.001827 -6.631907 25.001827 -0.00127833 C 25.001827 6.629351 22.364423 12.990379 17.679612 17.679097 C 12.990894 22.363908 6.629866 25.001312 -0.000762862 25.001312 C -6.631392 25.001312 -12.988513 22.363908 -17.677231 17.679097 C -22.365949 12.990379 -24.999446 6.629351 -24.999446 -0.00127833 C -24.999446 -6.631907 -22.365949 -12.989028 -17.677231 -17.677746 C -12.988513 -22.366465 -6.631392 -24.999961 -0.000762862 -24.999961 Z M -0.000762862 -24.999961 " transform="matrix(0.99974, 0, 0, -0.99974, 923.985138, 950.467472)"/>
<path fill-rule="nonzero" fill="rgb(90.586853%, 54.116821%, 76.469421%)" fill-opacity="1" stroke-width="1" stroke-linecap="butt" stroke-linejoin="round" stroke="rgb(90.586853%, 54.116821%, 76.469421%)" stroke-opacity="1" stroke-miterlimit="10" d="M -0.000594139 -24.998152 C 6.630035 -24.998152 12.991063 -22.364655 17.675874 -17.675937 C 22.364592 -12.991126 24.998089 -6.630098 24.998089 0.00053098 C 24.998089 6.63116 22.364592 12.988281 17.675874 17.676999 C 12.991063 22.365717 6.630035 24.999214 -0.000594139 24.999214 C -6.631223 24.999214 -12.988344 22.365717 -17.677062 17.676999 C -22.36578 12.988281 -24.999277 6.63116 -24.999277 0.00053098 C -24.999277 -6.630098 -22.36578 -12.991126 -17.677062 -17.675937 C -12.988344 -22.364655 -6.631223 -24.998152 -0.000594139 -24.998152 Z M -0.000594139 -24.998152 " transform="matrix(0.99974, 0, 0, -0.99974, 1081.762313, 901.76225)"/>
<path fill-rule="nonzero" fill="rgb(90.586853%, 54.116821%, 76.469421%)" fill-opacity="1" stroke-width="1" stroke-linecap="butt" stroke-linejoin="round" stroke="rgb(90.586853%, 54.116821%, 76.469421%)" stroke-opacity="1" stroke-miterlimit="10" d="M -0.000425416 -24.99878 C 6.630204 -24.99878 12.991232 -22.365284 17.676043 -17.676565 C 22.364761 -12.987847 24.998258 -6.630727 24.998258 -0.0000974344 C 24.998258 6.630532 22.364761 12.987652 17.676043 17.676371 C 12.991232 22.365089 6.630204 24.998586 -0.000425416 24.998586 C -6.631055 24.998586 -12.988175 22.365089 -17.676893 17.676371 C -22.365612 12.987652 -24.999108 6.630532 -24.999108 -0.0000974344 C -24.999108 -6.630727 -22.365612 -12.987847 -17.676893 -17.676565 C -12.988175 -22.365284 -6.631055 -24.99878 -0.000425416 -24.99878 Z M -0.000425416 -24.99878 " transform="matrix(0.99974, 0, 0, -0.99974, 1239.539488, 835.781153)"/>
<path fill-rule="nonzero" fill="rgb(90.586853%, 54.116821%, 76.469421%)" fill-opacity="1" stroke-width="1" stroke-linecap="butt" stroke-linejoin="round" stroke="rgb(90.586853%, 54.116821%, 76.469421%)" stroke-opacity="1" stroke-miterlimit="10" d="M -0.000256693 -25.000227 C 6.630372 -25.000227 12.9914 -22.36673 17.676211 -17.678012 C 22.36493 -12.989293 24.998426 -6.628266 24.998426 -0.00154376 C 24.998426 6.629085 22.36493 12.990113 17.676211 17.678831 C 12.9914 22.36755 6.630372 25.001047 -0.000256693 25.001047 C -6.630886 25.001047 -12.988006 22.36755 -17.676725 17.678831 C -22.365443 12.990113 -24.99894 6.629085 -24.99894 -0.00154376 C -24.99894 -6.628266 -22.365443 -12.989293 -17.676725 -17.678012 C -12.988006 -22.36673 -6.630886 -25.000227 -0.000256693 -25.000227 Z M -0.000256693 -25.000227 " transform="matrix(0.99974, 0, 0, -0.99974, 1397.316663, 739.096113)"/>
<path fill-rule="nonzero" fill="rgb(90.586853%, 54.116821%, 76.469421%)" fill-opacity="1" stroke-width="1" stroke-linecap="butt" stroke-linejoin="round" stroke="rgb(90.586853%, 54.116821%, 76.469421%)" stroke-opacity="1" stroke-miterlimit="10" d="M -0.0000879706 -24.999769 C 6.630541 -24.999769 12.987662 -22.366272 17.67638 -17.677554 C 22.365098 -12.988835 24.998595 -6.631715 24.998595 -0.00108571 C 24.998595 6.629543 22.365098 12.990571 17.67638 17.67929 C 12.987662 22.364101 6.630541 25.001505 -0.0000879706 25.001505 C -6.630717 25.001505 -12.987838 22.364101 -17.676556 17.67929 C -22.365274 12.990571 -24.998771 6.629543 -24.998771 -0.00108571 C -24.998771 -6.631715 -22.365274 -12.988835 -17.676556 -17.677554 C -12.987838 -22.366272 -6.630717 -24.999769 -0.0000879706 -24.999769 Z M -0.0000879706 -24.999769 " transform="matrix(0.99974, 0, 0, -0.99974, 1555.093838, 576.905165)"/>
<path fill-rule="nonzero" fill="rgb(90.586853%, 54.116821%, 76.469421%)" fill-opacity="1" stroke-width="1" stroke-linecap="butt" stroke-linejoin="round" stroke="rgb(90.586853%, 54.116821%, 76.469421%)" stroke-opacity="1" stroke-miterlimit="10" d="M 0.0000807522 -25.000233 C 6.63071 -25.000233 12.98783 -22.366737 17.676549 -17.678018 C 22.365267 -12.9893 24.998764 -6.628272 24.998764 -0.00155032 C 24.998764 6.629079 22.365267 12.990107 17.676549 17.678825 C 12.98783 22.367543 6.63071 25.00104 0.0000807522 25.00104 C -6.630548 25.00104 -12.987669 22.367543 -17.676387 17.678825 C -22.365106 12.990107 -24.998602 6.629079 -24.998602 -0.00155032 C -24.998602 -6.628272 -22.365106 -12.9893 -17.676387 -17.678018 C -12.987669 -22.366737 -6.630548 -25.000233 0.0000807522 -25.000233 Z M 0.0000807522 -25.000233 " transform="matrix(0.99974, 0, 0, -0.99974, 1712.871013, 210.799231)"/>
<path fill="none" stroke-width="3" stroke-linecap="square" stroke-linejoin="miter" stroke="rgb(14.901733%, 14.901733%, 14.901733%)" stroke-opacity="1" stroke-miterlimit="10" d="M 221.932666 178.99858 L 221.932666 1287.798404 " transform="matrix(0.99974, 0, 0, -0.99974, -0.000000000000028422, 1294.82707)"/>
<path fill="none" stroke-width="3" stroke-linecap="square" stroke-linejoin="miter" stroke="rgb(14.901733%, 14.901733%, 14.901733%)" stroke-opacity="1" stroke-miterlimit="10" d="M 1784.334727 178.99858 L 1784.334727 1287.798404 " transform="matrix(0.99974, 0, 0, -0.99974, -0.000000000000028422, 1294.82707)"/>
<path fill="none" stroke-width="3" stroke-linecap="square" stroke-linejoin="miter" stroke="rgb(14.901733%, 14.901733%, 14.901733%)" stroke-opacity="1" stroke-miterlimit="10" d="M 221.932666 178.99858 L 1784.334727 178.99858 " transform="matrix(0.99974, 0, 0, -0.99974, -0.000000000000028422, 1294.82707)"/>
<path fill="none" stroke-width="3" stroke-linecap="square" stroke-linejoin="miter" stroke="rgb(14.901733%, 14.901733%, 14.901733%)" stroke-opacity="1" stroke-miterlimit="10" d="M 221.932666 1287.798404 L 1784.334727 1287.798404 " transform="matrix(0.99974, 0, 0, -0.99974, -0.000000000000028422, 1294.82707)"/>
<path fill="none" stroke-width="17" stroke-linecap="round" stroke-linejoin="round" stroke="rgb(39.99939%, 76.077271%, 64.704895%)" stroke-opacity="1" stroke-miterlimit="10" d="M 251.932649 1233.202187 L 371.932579 1233.202187 " transform="matrix(0.99974, 0, 0, -0.99974, -0.000000000000028422, 1294.82707)"/>
<path fill-rule="nonzero" fill="rgb(39.99939%, 76.077271%, 64.704895%)" fill-opacity="1" stroke-width="1" stroke-linecap="butt" stroke-linejoin="round" stroke="rgb(39.99939%, 76.077271%, 64.704895%)" stroke-opacity="1" stroke-miterlimit="10" d="M 311.932614 1208.203504 C 318.563243 1208.203504 324.924271 1210.837001 329.612989 1215.525719 C 334.301707 1220.214437 336.935204 1226.571558 336.935204 1233.202187 C 336.935204 1239.832816 334.301707 1246.193844 329.612989 1250.882562 C 324.924271 1255.567373 318.563243 1258.204777 311.932614 1258.204777 C 305.305892 1258.204777 298.944864 1255.567373 294.256146 1250.882562 C 289.567427 1246.193844 286.933931 1239.832816 286.933931 1233.202187 C 286.933931 1226.571558 289.567427 1220.214437 294.256146 1215.525719 C 298.944864 1210.837001 305.305892 1208.203504 311.932614 1208.203504 Z M 311.932614 1208.203504 " transform="matrix(0.99974, 0, 0, -0.99974, -0.000000000000028422, 1294.82707)"/>
<g fill="rgb(14.99939%, 14.99939%, 14.99939%)" fill-opacity="1">
<use xlink:href="#glyph-3-0" x="419.825261" y="82.938918"/>
<use xlink:href="#glyph-3-1" x="457.735408" y="82.938918"/>
<use xlink:href="#glyph-3-2" x="516.160223" y="82.938918"/>
<use xlink:href="#glyph-3-3" x="554.250324" y="82.938918"/>
<use xlink:href="#glyph-3-4" x="570.92599" y="82.938918"/>
<use xlink:href="#glyph-3-3" x="595.579582" y="82.938918"/>
<use xlink:href="#glyph-3-5" x="612.255248" y="82.938918"/>
<use xlink:href="#glyph-3-6" x="645.246674" y="82.938918"/>
<use xlink:href="#glyph-3-7" x="682.017117" y="82.938918"/>
<use xlink:href="#glyph-3-8" x="698.692783" y="82.938918"/>
<use xlink:href="#glyph-3-9" x="717.767825" y="82.938918"/>
<use xlink:href="#glyph-3-10" x="766.835072" y="82.938918"/>
<use xlink:href="#glyph-3-8" x="787.049818" y="82.938918"/>
<use xlink:href="#glyph-3-11" x="806.124861" y="82.938918"/>
<use xlink:href="#glyph-3-12" x="847.274166" y="82.938918"/>
</g>
<path fill="none" stroke-width="17" stroke-linecap="round" stroke-linejoin="round" stroke="rgb(55.293274%, 62.744141%, 79.606628%)" stroke-opacity="1" stroke-miterlimit="10" d="M 251.932649 1145.124614 L 371.932579 1145.124614 " transform="matrix(0.99974, 0, 0, -0.99974, -0.000000000000028422, 1294.82707)"/>
<path fill-rule="nonzero" fill="rgb(55.293274%, 62.744141%, 79.606628%)" fill-opacity="1" stroke-width="1" stroke-linecap="butt" stroke-linejoin="round" stroke="rgb(55.293274%, 62.744141%, 79.606628%)" stroke-opacity="1" stroke-miterlimit="10" d="M 311.932614 1120.125931 C 318.563243 1120.125931 324.924271 1122.759428 329.612989 1127.448146 C 334.301707 1132.136864 336.935204 1138.493985 336.935204 1145.124614 C 336.935204 1151.755243 334.301707 1158.116271 329.612989 1162.801082 C 324.924271 1167.4898 318.563243 1170.123297 311.932614 1170.123297 C 305.305892 1170.123297 298.944864 1167.4898 294.256146 1162.801082 C 289.567427 1158.116271 286.933931 1151.755243 286.933931 1145.124614 C 286.933931 1138.493985 289.567427 1132.136864 294.256146 1127.448146 C 298.944864 1122.759428 305.305892 1120.125931 311.932614 1120.125931 Z M 311.932614 1120.125931 " transform="matrix(0.99974, 0, 0, -0.99974, -0.000000000000028422, 1294.82707)"/>
<g fill="rgb(14.99939%, 14.99939%, 14.99939%)" fill-opacity="1">
<use xlink:href="#glyph-3-0" x="419.825261" y="170.994157"/>
<use xlink:href="#glyph-3-1" x="457.735408" y="170.994157"/>
<use xlink:href="#glyph-3-2" x="516.160223" y="170.994157"/>
<use xlink:href="#glyph-3-3" x="554.250324" y="170.994157"/>
<use xlink:href="#glyph-3-4" x="570.92599" y="170.994157"/>
<use xlink:href="#glyph-3-3" x="595.579582" y="170.994157"/>
<use xlink:href="#glyph-3-5" x="612.255248" y="170.994157"/>
<use xlink:href="#glyph-3-6" x="645.246674" y="170.994157"/>
<use xlink:href="#glyph-3-7" x="682.017117" y="170.994157"/>
<use xlink:href="#glyph-3-8" x="698.692783" y="170.994157"/>
<use xlink:href="#glyph-3-9" x="717.767825" y="170.994157"/>
<use xlink:href="#glyph-3-10" x="766.835072" y="170.994157"/>
<use xlink:href="#glyph-3-13" x="787.049818" y="170.994157"/>
<use xlink:href="#glyph-3-8" x="823.760277" y="170.994157"/>
<use xlink:href="#glyph-3-11" x="842.83532" y="170.994157"/>
<use xlink:href="#glyph-3-12" x="883.984625" y="170.994157"/>
</g>
<path fill="none" stroke-width="17" stroke-linecap="round" stroke-linejoin="round" stroke="rgb(90.586853%, 54.116821%, 76.469421%)" stroke-opacity="1" stroke-miterlimit="10" d="M 251.932649 1045.641733 L 371.932579 1045.641733 " transform="matrix(0.99974, 0, 0, -0.99974, -0.000000000000028422, 1294.82707)"/>
<path fill-rule="nonzero" fill="rgb(90.586853%, 54.116821%, 76.469421%)" fill-opacity="1" stroke-width="1" stroke-linecap="butt" stroke-linejoin="round" stroke="rgb(90.586853%, 54.116821%, 76.469421%)" stroke-opacity="1" stroke-miterlimit="10" d="M 311.932614 1020.639143 C 318.563243 1020.639143 324.924271 1023.276547 329.612989 1027.961358 C 334.301707 1032.650076 336.935204 1039.011104 336.935204 1045.641733 C 336.935204 1052.272362 334.301707 1058.629483 329.612989 1063.318201 C 324.924271 1068.00692 318.563243 1070.640416 311.932614 1070.640416 C 305.305892 1070.640416 298.944864 1068.00692 294.256146 1063.318201 C 289.567427 1058.629483 286.933931 1052.272362 286.933931 1045.641733 C 286.933931 1039.011104 289.567427 1032.650076 294.256146 1027.961358 C 298.944864 1023.276547 305.305892 1020.639143 311.932614 1020.639143 Z M 311.932614 1020.639143 " transform="matrix(0.99974, 0, 0, -0.99974, -0.000000000000028422, 1294.82707)"/>
<g fill="rgb(14.99939%, 14.99939%, 14.99939%)" fill-opacity="1">
<use xlink:href="#glyph-3-14" x="419.825261" y="270.348022"/>
</g>
<g fill="rgb(14.99939%, 14.99939%, 14.99939%)" fill-opacity="1">
<use xlink:href="#glyph-3-15" x="456.466129" y="270.348022"/>
</g>
<g fill="rgb(14.99939%, 14.99939%, 14.99939%)" fill-opacity="1">
<use xlink:href="#glyph-3-16" x="494.483592" y="270.348022"/>
</g>
<g fill="rgb(14.99939%, 14.99939%, 14.99939%)" fill-opacity="1">
<use xlink:href="#glyph-3-13" x="531.388063" y="270.348022"/>
</g>
<g fill="rgb(14.99939%, 14.99939%, 14.99939%)" fill-opacity="1">
<use xlink:href="#glyph-3-4" x="568.087509" y="270.348022"/>
</g>
<g fill="rgb(14.99939%, 14.99939%, 14.99939%)" fill-opacity="1">
<use xlink:href="#glyph-3-16" x="592.749068" y="270.348022"/>
</g>
<g fill="rgb(14.99939%, 14.99939%, 14.99939%)" fill-opacity="1">
<use xlink:href="#glyph-3-17" x="629.653539" y="270.348022"/>
</g>
<g fill="rgb(14.99939%, 14.99939%, 14.99939%)" fill-opacity="1">
<use xlink:href="#glyph-3-3" x="653.172817" y="270.348022"/>
</g>
<g fill="rgb(14.99939%, 14.99939%, 14.99939%)" fill-opacity="1">
<use xlink:href="#glyph-3-5" x="669.838407" y="270.348022"/>
</g>
<g fill="rgb(14.99939%, 14.99939%, 14.99939%)" fill-opacity="1">
<use xlink:href="#glyph-3-6" x="702.818117" y="270.348022"/>
</g>
<g fill="rgb(14.99939%, 14.99939%, 14.99939%)" fill-opacity="1">
<use xlink:href="#glyph-3-7" x="739.576141" y="270.348022"/>
</g>
<g fill="rgb(14.99939%, 14.99939%, 14.99939%)" fill-opacity="1">
<use xlink:href="#glyph-3-8" x="756.241732" y="270.348022"/>
</g>
<g fill="rgb(14.99939%, 14.99939%, 14.99939%)" fill-opacity="1">
<use xlink:href="#glyph-3-9" x="775.309042" y="270.348022"/>
</g>
<g fill="rgb(14.99939%, 14.99939%, 14.99939%)" fill-opacity="1">
<use xlink:href="#glyph-3-10" x="824.368557" y="270.348022"/>
</g>
<g fill="rgb(14.99939%, 14.99939%, 14.99939%)" fill-opacity="1">
<use xlink:href="#glyph-3-8" x="844.578148" y="270.348022"/>
</g>
<g fill="rgb(14.99939%, 14.99939%, 14.99939%)" fill-opacity="1">
<use xlink:href="#glyph-3-11" x="863.645458" y="270.348022"/>
</g>
<g fill="rgb(14.99939%, 14.99939%, 14.99939%)" fill-opacity="1">
<use xlink:href="#glyph-3-12" x="904.796872" y="270.348022"/>
</g>
<g fill="rgb(14.99939%, 14.99939%, 14.99939%)" fill-opacity="1">
<use xlink:href="#glyph-3-8" x="949.668022" y="270.348022"/>
</g>
<g fill="rgb(14.99939%, 14.99939%, 14.99939%)" fill-opacity="1">
<use xlink:href="#glyph-3-18" x="968.735332" y="270.348022"/>
</g>
<g fill="rgb(14.99939%, 14.99939%, 14.99939%)" fill-opacity="1">
<use xlink:href="#glyph-4-0" x="1047.123162" y="244.073601"/>
</g>
<g fill="rgb(14.99939%, 14.99939%, 14.99939%)" fill-opacity="1">
<use xlink:href="#glyph-4-0" x="1022.721072" y="309.045777"/>
</g>
<g fill="rgb(14.99939%, 14.99939%, 14.99939%)" fill-opacity="1">
<use xlink:href="#glyph-5-0" x="1100.979053" y="309.045777"/>
</g>
<g fill="rgb(14.99939%, 14.99939%, 14.99939%)" fill-opacity="1">
<use xlink:href="#glyph-3-19" x="1135.601891" y="270.348022"/>
</g>
<path fill-rule="nonzero" fill="rgb(14.99939%, 14.99939%, 14.99939%)" fill-opacity="1" d="M 1018.265625 265.027344 L 1004.78125 309.316406 L 1003.773438 309.316406 L 998.230469 291.324219 C 998.039062 290.746094 997.847656 290.339844 997.632812 290.074219 C 997.390625 289.835938 997.105469 289.691406 996.742188 289.691406 C 996.191406 289.691406 995.640625 289.90625 995.113281 290.339844 L 994.824219 289.859375 L 998.757812 286.835938 L 999.359375 286.835938 L 1004.804688 304.496094 L 1004.902344 304.496094 L 1016.898438 265.027344 Z M 1018.265625 265.027344 "/>
<path fill-rule="nonzero" fill="rgb(14.99939%, 14.99939%, 14.99939%)" fill-opacity="1" d="M 1062.066406 294.140625 L 1088.351562 294.140625 L 1088.351562 297.625 L 1062.066406 297.625 Z M 1062.066406 294.140625 "/>
<path fill-rule="nonzero" fill="rgb(14.99939%, 14.99939%, 14.99939%)" fill-opacity="1" d="M 992.136719 259.070312 L 1128.105469 259.070312 L 1128.105469 255.320312 L 992.136719 255.320312 Z M 992.136719 259.070312 "/>
<path fill-rule="nonzero" fill="rgb(14.99939%, 14.99939%, 14.99939%)" fill-opacity="1" d="M 1017.472656 268.066406 L 1128.105469 268.066406 L 1128.105469 265.441406 L 1017.472656 265.441406 Z M 1017.472656 268.066406 "/>
</svg>
