<svg width="600" height="350" viewBox="0 0 600 350" xmlns="http://www.w3.org/2000/svg" style="background-color: transparent; font-family: -apple-system, BlinkMacSystemFont, 'Segoe UI', Roboto, Helvetica, Arial, sans-serif;">
  <!-- Grid Lines -->
  <line x1="60.0" y1="300.0" x2="430.0" y2="300.0" stroke="#e0e0e0" stroke-width="1" />
  <line x1="60.0" y1="213.3" x2="430.0" y2="213.3" stroke="#e5e5e5" stroke-dasharray="4,4" stroke-width="1" />
  <line x1="60.0" y1="126.7" x2="430.0" y2="126.7" stroke="#e5e5e5" stroke-dasharray="4,4" stroke-width="1" />
  <line x1="60.0" y1="40.0" x2="430.0" y2="40.0" stroke="#e0e0e0" stroke-width="1" />

  <!-- Vertical Epoch lines -->
  <line x1="126.6" y1="300.0" x2="126.6" y2="40.0" stroke="#b0bec5" stroke-dasharray="3,3" stroke-width="1.2" />
  <line x1="393.0" y1="300.0" x2="393.0" y2="40.0" stroke="#b0bec5" stroke-dasharray="3,3" stroke-width="1.2" />

  <!-- Axes -->
  <line x1="60" y1="300" x2="430" y2="300" stroke="#333" stroke-width="1.5" />
  <line x1="60" y1="40" x2="60" y2="300" stroke="#333" stroke-width="1.5" />

  <!-- Y-Axis Labels -->
  <text x="52" y="304.0" text-anchor="end" font-size="12" fill="#555">50%</text>
  <text x="52" y="217.3" text-anchor="end" font-size="12" fill="#555">60%</text>
  <text x="52" y="130.7" text-anchor="end" font-size="12" fill="#555">70%</text>
  <text x="52" y="44.0" text-anchor="end" font-size="12" fill="#555">80%</text>
  <text x="35" y="170.0" transform="rotate(-90 35 170.0)" text-anchor="middle" font-size="13" font-weight="bold" fill="#333">Top-1 Accuracy</text>

  <!-- X-Axis Labels -->
  <text x="60.0" y="318" text-anchor="middle" font-size="12" fill="#555">0</text>
  <text x="126.6" y="318" text-anchor="middle" font-size="12" fill="#333" font-weight="bold">90</text>
  <text x="208.0" y="318" text-anchor="middle" font-size="12" fill="#555">200</text>
  <text x="393.0" y="318" text-anchor="middle" font-size="12" fill="#333" font-weight="bold">450</text>
  <text x="245.0" y="336" text-anchor="middle" font-size="13" font-weight="bold" fill="#333">Training Epochs</text>

  <!-- Highlight labels for epochs -->
  <text x="131.6" y="282.7" font-size="10" fill="#37474f" font-style="italic">Standard Budget</text>
  <text x="388.0" y="282.7" text-anchor="end" font-size="10" fill="#37474f" font-style="italic">5× Budget</text>

  <!-- Paths -->
  <path d="M 60.0,300.0 L 63.7,258.8 L 67.4,225.1 L 71.1,197.6 L 74.8,175.0 L 78.5,156.5 L 82.2,141.3 L 85.9,128.9 L 89.6,118.8 L 93.3,110.5 L 97.0,103.7 L 100.7,98.1 L 104.4,93.5 L 108.1,89.8 L 111.8,86.7 L 115.5,84.2 L 119.2,82.2 L 122.9,80.5 L 126.6,79.1 L 130.3,78.0 L 134.0,77.1 L 137.7,76.3 L 141.4,75.7 L 145.1,75.2 L 148.8,74.8 L 152.5,74.5 L 156.2,74.2 L 159.9,74.0 L 163.6,73.8 L 167.3,73.6 L 171.0,73.5 L 174.7,73.4 L 178.4,73.3 L 182.1,73.2 L 185.8,73.2 L 189.5,73.1 L 193.2,73.1 L 196.9,73.1 L 200.6,73.0 L 204.3,73.0 L 208.0,73.0 L 211.7,73.0 L 215.4,73.0 L 219.1,73.0 L 222.8,73.0 L 226.5,73.0 L 230.2,73.0 L 233.9,73.0 L 237.6,72.9 L 241.3,72.9 L 245.0,72.9 L 248.7,72.9 L 252.4,72.9 L 256.1,72.9 L 259.8,72.9 L 263.5,72.9 L 267.2,72.9 L 270.9,72.9 L 274.6,72.9 L 278.3,72.9 L 282.0,72.9 L 285.7,72.9 L 289.4,72.9 L 293.1,72.9 L 296.8,72.9 L 300.5,72.9 L 304.2,72.9 L 307.9,72.9 L 311.6,72.9 L 315.3,72.9 L 319.0,72.9 L 322.7,72.9 L 326.4,72.9 L 330.1,72.9 L 333.8,72.9 L 337.5,72.9 L 341.2,72.9 L 344.9,72.9 L 348.6,72.9 L 352.3,72.9 L 356.0,72.9 L 359.7,72.9 L 363.4,72.9 L 367.1,72.9 L 370.8,72.9 L 374.5,72.9 L 378.2,72.9 L 381.9,72.9 L 385.6,72.9 L 389.3,72.9 L 393.0,72.9 L 396.7,72.9 L 400.4,72.9 L 404.1,72.9 L 407.8,72.9 L 411.5,72.9 L 415.2,72.9 L 418.9,72.9 L 422.6,72.9 L 426.3,72.9 L 430.0,72.9" fill="none" stroke="#29b6f6" stroke-width="3" stroke-linecap="round" stroke-linejoin="round" />
  <path d="M 60.0,300.0 L 63.7,273.3 L 67.4,249.8 L 71.1,229.0 L 74.8,210.7 L 78.5,194.5 L 82.2,180.2 L 85.9,167.6 L 89.6,156.5 L 93.3,146.7 L 97.0,138.0 L 100.7,130.3 L 104.4,123.6 L 108.1,117.6 L 111.8,112.4 L 115.5,107.8 L 119.2,103.7 L 122.9,100.1 L 126.6,96.9 L 130.3,94.1 L 134.0,91.6 L 137.7,89.4 L 141.4,87.4 L 145.1,85.7 L 148.8,84.2 L 152.5,82.9 L 156.2,81.7 L 159.9,80.7 L 163.6,79.8 L 167.3,79.0 L 171.0,78.3 L 174.7,77.6 L 178.4,77.1 L 182.1,76.6 L 185.8,76.2 L 189.5,75.8 L 193.2,75.5 L 196.9,75.2 L 200.6,74.9 L 204.3,74.7 L 208.0,74.5 L 211.7,74.3 L 215.4,74.1 L 219.1,74.0 L 222.8,73.9 L 226.5,73.8 L 230.2,73.7 L 233.9,73.6 L 237.6,73.5 L 241.3,73.4 L 245.0,73.4 L 248.7,73.3 L 252.4,73.3 L 256.1,73.2 L 259.8,73.2 L 263.5,73.2 L 267.2,73.1 L 270.9,73.1 L 274.6,73.1 L 278.3,73.1 L 282.0,73.1 L 285.7,73.0 L 289.4,73.0 L 293.1,73.0 L 296.8,73.0 L 300.5,73.0 L 304.2,73.0 L 307.9,73.0 L 311.6,73.0 L 315.3,73.0 L 319.0,73.0 L 322.7,73.0 L 326.4,73.0 L 330.1,73.0 L 333.8,73.0 L 337.5,73.0 L 341.2,73.0 L 344.9,72.9 L 348.6,72.9 L 352.3,72.9 L 356.0,72.9 L 359.7,72.9 L 363.4,72.9 L 367.1,72.9 L 370.8,72.9 L 374.5,72.9 L 378.2,72.9 L 381.9,72.9 L 385.6,72.9 L 389.3,72.9 L 393.0,72.9 L 396.7,72.9 L 400.4,72.9 L 404.1,72.9 L 407.8,72.9 L 411.5,72.9 L 415.2,72.9 L 418.9,72.9 L 422.6,72.9 L 426.3,72.9 L 430.0,72.9" fill="none" stroke="#4caf50" stroke-width="3" stroke-linecap="round" stroke-linejoin="round" />
  <path d="M 60.0,300.0 L 63.7,291.1 L 67.4,282.5 L 71.1,274.3 L 74.8,266.4 L 78.5,258.8 L 82.2,251.6 L 85.9,244.5 L 89.6,237.8 L 93.3,231.4 L 97.0,225.1 L 100.7,219.2 L 104.4,213.4 L 108.1,207.9 L 111.8,202.6 L 115.5,197.6 L 119.2,192.7 L 122.9,188.0 L 126.6,183.5 L 130.3,179.1 L 134.0,175.0 L 137.7,171.0 L 141.4,167.1 L 145.1,163.4 L 148.8,159.9 L 152.5,156.5 L 156.2,153.2 L 159.9,150.0 L 163.6,147.0 L 167.3,144.1 L 171.0,141.3 L 174.7,138.6 L 178.4,136.1 L 182.1,133.6 L 185.8,131.2 L 189.5,128.9 L 193.2,126.7 L 196.9,124.6 L 200.6,122.6 L 204.3,120.6 L 208.0,118.8 L 211.7,117.0 L 215.4,115.3 L 219.1,113.6 L 222.8,112.0 L 226.5,110.5 L 230.2,109.0 L 233.9,107.6 L 237.6,106.2 L 241.3,104.9 L 245.0,103.7 L 248.7,102.5 L 252.4,101.3 L 256.1,100.2 L 259.8,99.1 L 263.5,98.1 L 267.2,97.1 L 270.9,96.2 L 274.6,95.2 L 278.3,94.4 L 282.0,93.5 L 285.7,92.7 L 289.4,91.9 L 293.1,91.2 L 296.8,90.5 L 300.5,89.8 L 304.2,89.1 L 307.9,88.5 L 311.6,87.9 L 315.3,87.3 L 319.0,86.7 L 322.7,86.2 L 326.4,85.7 L 330.1,85.2 L 333.8,84.7 L 337.5,84.2 L 341.2,83.8 L 344.9,83.4 L 348.6,83.0 L 352.3,82.6 L 356.0,82.2 L 359.7,81.8 L 363.4,81.5 L 367.1,81.1 L 370.8,80.8 L 374.5,80.5 L 378.2,80.2 L 381.9,79.9 L 385.6,79.7 L 389.3,79.4 L 393.0,79.1 L 396.7,78.9 L 400.4,78.7 L 404.1,78.4 L 407.8,78.2 L 411.5,78.0 L 415.2,77.8 L 418.9,77.6 L 422.6,77.4 L 426.3,77.3 L 430.0,77.1" fill="none" stroke="#ff9800" stroke-width="3" stroke-linecap="round" stroke-linejoin="round" />

  <!-- Dots at key points -->
  <circle cx="126.6" cy="79.0" r="4.5" fill="#29b6f6" stroke="#fff" stroke-width="1.5" />
  <circle cx="126.6" cy="97.2" r="4.5" fill="#4caf50" stroke="#fff" stroke-width="1.5" />
  <circle cx="126.6" cy="183.9" r="4.5" fill="#ff9800" stroke="#fff" stroke-width="1.5" />
  <circle cx="393.0" cy="79.0" r="4.5" fill="#ff9800" stroke="#fff" stroke-width="1.5" />

  <!-- Value callouts -->
  <text x="118.6" y="75.0" font-size="10.5" fill="#01579b" font-weight="bold" text-anchor="end">75.5%</text>
  <text x="134.6" y="108.2" font-size="10.5" fill="#2e7d32" font-weight="bold">73.4%</text>
  <text x="134.6" y="196.9" font-size="10.5" fill="#e65100" font-weight="bold">63.4%</text>
  <text x="401.0" y="83.0" font-size="10.5" fill="#e65100" font-weight="bold">75.5%</text>

  <!-- Legend -->
  <rect x="442" y="50" width="150" height="90" rx="5" fill="#fafafa" stroke="#ddd" stroke-width="1" />
  <line x1="450" y1="68" x2="470" y2="68" stroke="#29b6f6" stroke-width="3" />
  <text x="477" y="72" font-size="11" fill="#333" font-weight="bold">Dense (SGD)</text>

  <line x1="450" y1="92" x2="470" y2="92" stroke="#4caf50" stroke-width="3" />
  <text x="477" y="96" font-size="11" fill="#333" font-weight="bold">DST + SparseOpt</text>

  <line x1="450" y1="116" x2="470" y2="116" stroke="#ff9800" stroke-width="3" />
  <text x="477" y="120" font-size="11" fill="#333" font-weight="bold">DST Baseline</text>
</svg>