<?xml version="1.0" encoding="UTF-8"?>
<svg xmlns="http://www.w3.org/2000/svg" xmlns:xlink="http://www.w3.org/1999/xlink" width="1933.58125pt" height="1358.276875pt" viewBox="0 0 1933.58125 1358.276875">
<defs>
<g>
<g id="glyph-0-0">
<path d="M 8.675781 -5.808594 L 19.9375 -5.808594 L 19.9375 -44.707031 L 7.695312 -42.257812 L 7.695312 -48.554688 L 19.871094 -51.003906 L 26.796875 -51.003906 L 26.796875 -5.808594 L 38.058594 -5.808594 L 38.058594 0 L 8.675781 0 Z M 8.675781 -5.808594 "/>
</g>
<g id="glyph-0-1">
<path d="M 7.554688 -51.003906 L 34.632812 -51.003906 L 34.632812 -45.195312 L 13.851562 -45.195312 L 13.851562 -32.671875 C 14.832031 -33.023438 15.882812 -33.300781 16.859375 -33.441406 C 17.839844 -33.582031 18.890625 -33.722656 19.871094 -33.722656 C 25.535156 -33.722656 30.015625 -32.113281 33.371094 -29.035156 C 36.730469 -25.886719 38.410156 -21.6875 38.410156 -16.371094 C 38.410156 -10.84375 36.660156 -6.578125 33.230469 -3.566406 C 29.804688 -0.558594 24.976562 0.910156 18.820312 0.910156 C 16.652344 0.910156 14.480469 0.699219 12.242188 0.417969 C 10.003906 0.0703125 7.765625 -0.417969 5.386719 -1.1875 L 5.386719 -8.117188 C 7.417969 -6.996094 9.515625 -6.15625 11.753906 -5.597656 C 13.921875 -5.039062 16.230469 -4.828125 18.679688 -4.828125 C 22.597656 -4.828125 25.746094 -5.808594 28.054688 -7.90625 C 30.292969 -10.003906 31.484375 -12.804688 31.484375 -16.371094 C 31.484375 -19.871094 30.292969 -22.667969 28.054688 -24.765625 C 25.746094 -26.867188 22.597656 -27.914062 18.679688 -27.914062 C 16.859375 -27.914062 14.972656 -27.707031 13.152344 -27.285156 C 11.332031 -26.867188 9.445312 -26.234375 7.554688 -25.394531 Z M 7.554688 -51.003906 "/>
</g>
<g id="glyph-0-2">
<path d="M 22.25 -46.457031 C 18.679688 -46.457031 16.019531 -44.707031 14.203125 -41.207031 C 12.382812 -37.710938 11.542969 -32.460938 11.542969 -25.464844 C 11.542969 -18.46875 12.382812 -13.222656 14.203125 -9.726562 C 16.019531 -6.226562 18.679688 -4.476562 22.25 -4.476562 C 25.816406 -4.476562 28.476562 -6.226562 30.292969 -9.726562 C 32.042969 -13.222656 32.953125 -18.46875 32.953125 -25.464844 C 32.953125 -32.460938 32.042969 -37.710938 30.292969 -41.207031 C 28.476562 -44.707031 25.816406 -46.457031 22.25 -46.457031 Z M 22.25 -51.914062 C 27.914062 -51.914062 32.253906 -49.605469 35.332031 -45.125 C 38.339844 -40.578125 39.878906 -34 39.878906 -25.464844 C 39.878906 -16.859375 38.339844 -10.285156 35.332031 -5.808594 C 32.253906 -1.328125 27.914062 0.910156 22.179688 0.910156 C 16.441406 0.910156 12.105469 -1.328125 9.09375 -5.808594 C 6.085938 -10.285156 4.617188 -16.859375 4.617188 -25.464844 C 4.617188 -34 6.085938 -40.578125 9.09375 -45.125 C 12.105469 -49.605469 16.511719 -51.914062 22.25 -51.914062 Z M 22.25 -51.914062 "/>
</g>
<g id="glyph-0-3">
<path d="M 13.433594 -5.808594 L 37.5 -5.808594 L 37.5 0 L 5.105469 0 L 5.105469 -5.808594 C 7.695312 -8.464844 11.265625 -12.105469 15.8125 -16.722656 C 20.289062 -21.269531 23.15625 -24.207031 24.347656 -25.535156 C 26.585938 -27.984375 28.125 -30.082031 28.964844 -31.832031 C 29.804688 -33.511719 30.292969 -35.261719 30.292969 -36.941406 C 30.292969 -39.597656 29.3125 -41.835938 27.425781 -43.515625 C 25.535156 -45.195312 23.085938 -46.105469 20.007812 -46.105469 C 17.839844 -46.105469 15.53125 -45.6875 13.152344 -44.984375 C 10.773438 -44.214844 8.1875 -43.097656 5.457031 -41.558594 L 5.457031 -48.554688 C 8.253906 -49.671875 10.84375 -50.511719 13.222656 -51.074219 C 15.601562 -51.632812 17.839844 -51.914062 19.871094 -51.914062 C 25.117188 -51.914062 29.3125 -50.582031 32.460938 -47.925781 C 35.609375 -45.265625 37.21875 -41.769531 37.21875 -37.359375 C 37.21875 -35.261719 36.800781 -33.230469 36.03125 -31.414062 C 35.261719 -29.523438 33.863281 -27.285156 31.761719 -24.765625 C 31.203125 -24.066406 29.382812 -22.179688 26.304688 -19.03125 C 23.226562 -15.882812 18.960938 -11.472656 13.433594 -5.808594 Z M 13.433594 -5.808594 "/>
</g>
<g id="glyph-0-4">
<path d="M 28.40625 -27.496094 C 31.691406 -26.796875 34.28125 -25.328125 36.101562 -23.085938 C 37.917969 -20.847656 38.898438 -18.050781 38.898438 -14.832031 C 38.898438 -9.792969 37.148438 -5.875 33.722656 -3.148438 C 30.222656 -0.417969 25.328125 0.910156 18.960938 0.910156 C 16.792969 0.910156 14.550781 0.699219 12.3125 0.28125 C 10.074219 -0.0703125 7.695312 -0.699219 5.316406 -1.539062 L 5.316406 -8.1875 C 7.207031 -7.066406 9.304688 -6.226562 11.613281 -5.667969 C 13.851562 -5.105469 16.230469 -4.828125 18.75 -4.828125 C 23.085938 -4.828125 26.375 -5.667969 28.613281 -7.347656 C 30.855469 -9.023438 32.042969 -11.542969 32.042969 -14.832031 C 32.042969 -17.769531 30.992188 -20.148438 28.894531 -21.828125 C 26.796875 -23.507812 23.855469 -24.417969 20.078125 -24.417969 L 14.132812 -24.417969 L 14.132812 -30.082031 L 20.359375 -30.082031 C 23.71875 -30.082031 26.304688 -30.714844 28.125 -32.113281 C 29.945312 -33.441406 30.855469 -35.402344 30.855469 -37.988281 C 30.855469 -40.578125 29.875 -42.605469 28.054688 -44.007812 C 26.167969 -45.40625 23.507812 -46.105469 20.078125 -46.105469 C 18.191406 -46.105469 16.160156 -45.894531 13.992188 -45.476562 C 11.824219 -45.054688 9.445312 -44.425781 6.855469 -43.585938 L 6.855469 -49.742188 C 9.445312 -50.441406 11.894531 -51.003906 14.203125 -51.351562 C 16.441406 -51.703125 18.609375 -51.914062 20.707031 -51.914062 C 25.886719 -51.914062 30.015625 -50.722656 33.09375 -48.34375 C 36.171875 -45.964844 37.710938 -42.746094 37.710938 -38.6875 C 37.710938 -35.890625 36.871094 -33.511719 35.261719 -31.554688 C 33.652344 -29.59375 31.34375 -28.195312 28.40625 -27.496094 Z M 28.40625 -27.496094 "/>
</g>
<g id="glyph-0-5">
<path d="M 7.484375 -8.675781 L 14.691406 -8.675781 L 14.691406 0 L 7.484375 0 Z M 7.484375 -8.675781 "/>
</g>
<g id="glyph-0-6">
<path d="M 26.445312 -44.984375 L 9.023438 -17.769531 L 26.445312 -17.769531 Z M 24.625 -51.003906 L 33.300781 -51.003906 L 33.300781 -17.769531 L 40.578125 -17.769531 L 40.578125 -12.035156 L 33.300781 -12.035156 L 33.300781 0 L 26.445312 0 L 26.445312 -12.035156 L 3.429688 -12.035156 L 3.429688 -18.679688 Z M 24.625 -51.003906 "/>
</g>
<g id="glyph-0-7">
<path d="M 23.085938 -28.265625 C 20.007812 -28.265625 17.5625 -27.144531 15.742188 -25.046875 C 13.921875 -22.949219 13.011719 -20.007812 13.011719 -16.371094 C 13.011719 -12.664062 13.921875 -9.726562 15.742188 -7.625 C 17.5625 -5.527344 20.007812 -4.476562 23.085938 -4.476562 C 26.167969 -4.476562 28.613281 -5.527344 30.433594 -7.625 C 32.253906 -9.726562 33.164062 -12.664062 33.164062 -16.371094 C 33.164062 -20.007812 32.253906 -22.949219 30.433594 -25.046875 C 28.613281 -27.144531 26.167969 -28.265625 23.085938 -28.265625 Z M 36.800781 -49.882812 L 36.800781 -43.585938 C 35.050781 -44.425781 33.300781 -45.054688 31.554688 -45.476562 C 29.734375 -45.894531 27.984375 -46.105469 26.304688 -46.105469 C 21.6875 -46.105469 18.191406 -44.566406 15.8125 -41.488281 C 13.433594 -38.410156 12.035156 -33.722656 11.753906 -27.566406 C 13.082031 -29.523438 14.761719 -31.0625 16.792969 -32.113281 C 18.820312 -33.164062 21.058594 -33.722656 23.507812 -33.722656 C 28.613281 -33.722656 32.671875 -32.113281 35.609375 -29.035156 C 38.550781 -25.957031 40.089844 -21.6875 40.089844 -16.371094 C 40.089844 -11.125 38.480469 -6.925781 35.402344 -3.777344 C 32.324219 -0.628906 28.195312 0.910156 23.085938 0.910156 C 17.210938 0.910156 12.664062 -1.328125 9.585938 -5.808594 C 6.4375 -10.285156 4.898438 -16.859375 4.898438 -25.464844 C 4.898438 -33.511719 6.785156 -39.949219 10.632812 -44.707031 C 14.414062 -49.464844 19.589844 -51.914062 26.027344 -51.914062 C 27.707031 -51.914062 29.453125 -51.703125 31.273438 -51.421875 C 33.023438 -51.074219 34.839844 -50.582031 36.800781 -49.882812 Z M 36.800781 -49.882812 "/>
</g>
<g id="glyph-0-8">
<path d="M 5.738281 -51.003906 L 38.550781 -51.003906 L 38.550781 -48.0625 L 20.007812 0 L 12.804688 0 L 30.222656 -45.195312 L 5.738281 -45.195312 Z M 5.738281 -51.003906 "/>
</g>
<g id="glyph-1-0">
<path d="M 0.398438 -58.289062 L 54.132812 -58.289062 L 54.132812 -46.933594 L 34.78125 -46.933594 L 34.78125 0 L 19.75 0 L 19.75 -46.933594 L 0.398438 -46.933594 Z M 0.398438 -58.289062 "/>
</g>
<g id="glyph-1-1">
<path d="M 39.179688 -31.824219 C 37.898438 -32.382812 36.699219 -32.78125 35.5 -33.101562 C 34.300781 -33.34375 33.101562 -33.503906 31.902344 -33.503906 C 28.304688 -33.503906 25.507812 -32.304688 23.585938 -30.0625 C 21.667969 -27.746094 20.707031 -24.46875 20.707031 -20.148438 L 20.707031 0 L 6.714844 0 L 6.714844 -43.738281 L 20.707031 -43.738281 L 20.707031 -36.539062 C 22.46875 -39.417969 24.46875 -41.496094 26.867188 -42.777344 C 29.183594 -44.054688 31.984375 -44.777344 35.261719 -44.777344 C 35.742188 -44.777344 36.222656 -44.695312 36.78125 -44.695312 C 37.261719 -44.695312 38.058594 -44.617188 39.179688 -44.457031 Z M 39.179688 -31.824219 "/>
</g>
<g id="glyph-1-2">
<path d="M 26.304688 -19.667969 C 23.347656 -19.667969 21.109375 -19.109375 19.667969 -18.148438 C 18.230469 -17.191406 17.511719 -15.75 17.511719 -13.832031 C 17.511719 -12.074219 18.070312 -10.632812 19.269531 -9.675781 C 20.46875 -8.636719 22.148438 -8.15625 24.226562 -8.15625 C 26.867188 -8.15625 29.105469 -9.035156 30.863281 -10.953125 C 32.621094 -12.875 33.582031 -15.191406 33.582031 -18.070312 L 33.582031 -19.667969 Z M 47.65625 -24.945312 L 47.65625 0 L 33.582031 0 L 33.582031 -6.476562 C 31.664062 -3.757812 29.585938 -1.839844 27.265625 -0.71875 C 24.867188 0.398438 22.066406 1.039062 18.710938 1.039062 C 14.152344 1.039062 10.472656 -0.238281 7.675781 -2.878906 C 4.796875 -5.4375 3.4375 -8.875 3.4375 -13.113281 C 3.4375 -18.230469 5.195312 -21.988281 8.714844 -24.386719 C 12.234375 -26.785156 17.75 -27.984375 25.347656 -27.984375 L 33.582031 -27.984375 L 33.582031 -29.105469 C 33.582031 -31.261719 32.703125 -32.863281 30.945312 -33.902344 C 29.183594 -34.941406 26.464844 -35.5 22.789062 -35.5 C 19.75 -35.5 16.949219 -35.179688 14.390625 -34.542969 C 11.832031 -33.902344 9.433594 -33.023438 7.277344 -31.902344 L 7.277344 -42.539062 C 10.234375 -43.257812 13.191406 -43.816406 16.230469 -44.214844 C 19.269531 -44.535156 22.308594 -44.777344 25.347656 -44.777344 C 33.183594 -44.777344 38.859375 -43.175781 42.378906 -40.058594 C 45.894531 -36.941406 47.65625 -31.902344 47.65625 -24.945312 Z M 47.65625 -24.945312 "/>
</g>
<g id="glyph-1-3">
<path d="M 6.714844 -43.738281 L 20.707031 -43.738281 L 20.707031 0 L 6.714844 0 Z M 6.714844 -60.769531 L 20.707031 -60.769531 L 20.707031 -49.332031 L 6.714844 -49.332031 Z M 6.714844 -60.769531 "/>
</g>
<g id="glyph-1-4">
<path d="M 50.691406 -26.625 L 50.691406 0 L 36.621094 0 L 36.621094 -20.390625 C 36.621094 -24.148438 36.539062 -26.707031 36.378906 -28.144531 C 36.222656 -29.585938 35.902344 -30.625 35.5 -31.34375 C 34.941406 -32.222656 34.222656 -32.941406 33.261719 -33.421875 C 32.304688 -33.902344 31.183594 -34.222656 30.0625 -34.222656 C 27.105469 -34.222656 24.785156 -33.101562 23.1875 -30.863281 C 21.507812 -28.625 20.707031 -25.507812 20.707031 -21.507812 L 20.707031 0 L 6.714844 0 L 6.714844 -43.738281 L 20.707031 -43.738281 L 20.707031 -37.339844 C 22.789062 -39.898438 24.945312 -41.738281 27.34375 -42.9375 C 29.746094 -44.136719 32.382812 -44.777344 35.261719 -44.777344 C 40.296875 -44.777344 44.136719 -43.175781 46.773438 -40.136719 C 49.332031 -37.019531 50.691406 -32.542969 50.691406 -26.625 Z M 50.691406 -26.625 "/>
</g>
<g id="glyph-1-5">
<path d="M 36.460938 -7.4375 C 34.542969 -4.878906 32.382812 -2.957031 30.0625 -1.757812 C 27.746094 -0.558594 25.105469 0 22.066406 0 C 16.710938 0 12.3125 -2.078125 8.796875 -6.316406 C 5.277344 -10.472656 3.597656 -15.832031 3.597656 -22.386719 C 3.597656 -28.863281 5.277344 -34.222656 8.796875 -38.378906 C 12.3125 -42.539062 16.710938 -44.695312 22.066406 -44.695312 C 25.105469 -44.695312 27.746094 -44.054688 30.0625 -42.855469 C 32.382812 -41.65625 34.542969 -39.820312 36.460938 -37.261719 L 36.460938 -43.738281 L 50.53125 -43.738281 L 50.53125 -4.398438 C 50.53125 2.558594 48.292969 7.914062 43.816406 11.59375 C 39.339844 15.273438 32.941406 17.191406 24.546875 17.191406 C 21.828125 17.191406 19.191406 16.949219 16.632812 16.550781 C 14.074219 16.070312 11.515625 15.433594 8.957031 14.632812 L 8.957031 3.757812 C 11.355469 5.117188 13.753906 6.15625 16.152344 6.875 C 18.46875 7.515625 20.789062 7.914062 23.1875 7.914062 C 27.746094 7.914062 31.101562 6.875 33.261719 4.878906 C 35.339844 2.878906 36.460938 -0.160156 36.460938 -4.398438 Z M 27.265625 -34.621094 C 24.386719 -34.621094 22.066406 -33.503906 20.46875 -31.421875 C 18.871094 -29.265625 18.070312 -26.226562 18.070312 -22.386719 C 18.070312 -18.390625 18.789062 -15.351562 20.390625 -13.273438 C 21.988281 -11.195312 24.226562 -10.15625 27.265625 -10.15625 C 30.144531 -10.15625 32.460938 -11.195312 34.0625 -13.351562 C 35.660156 -15.433594 36.460938 -18.46875 36.460938 -22.386719 C 36.460938 -26.226562 35.660156 -29.265625 34.0625 -31.421875 C 32.460938 -33.503906 30.144531 -34.621094 27.265625 -34.621094 Z M 27.265625 -34.621094 "/>
</g>
<g id="glyph-1-6">
</g>
<g id="glyph-1-7">
<path d="M 7.355469 -58.289062 L 47.894531 -58.289062 L 47.894531 -46.933594 L 22.386719 -46.933594 L 22.386719 -36.0625 L 46.375 -36.0625 L 46.375 -24.707031 L 22.386719 -24.707031 L 22.386719 -11.355469 L 48.773438 -11.355469 L 48.773438 0 L 7.355469 0 Z M 7.355469 -58.289062 "/>
</g>
<g id="glyph-1-8">
<path d="M 20.707031 -6.316406 L 20.707031 16.550781 L 6.714844 16.550781 L 6.714844 -43.738281 L 20.707031 -43.738281 L 20.707031 -37.339844 C 22.628906 -39.898438 24.707031 -41.738281 27.105469 -42.9375 C 29.425781 -44.136719 32.144531 -44.777344 35.179688 -44.777344 C 40.539062 -44.777344 44.9375 -42.617188 48.453125 -38.300781 C 51.890625 -33.980469 53.652344 -28.464844 53.652344 -21.75 C 53.652344 -15.03125 51.890625 -9.515625 48.453125 -5.277344 C 44.9375 -1.039062 40.539062 1.039062 35.179688 1.039062 C 32.144531 1.039062 29.425781 0.398438 27.105469 -0.71875 C 24.707031 -1.839844 22.628906 -3.757812 20.707031 -6.316406 Z M 29.984375 -34.621094 C 26.945312 -34.621094 24.707031 -33.503906 23.109375 -31.34375 C 21.507812 -29.105469 20.707031 -25.984375 20.707031 -21.828125 C 20.707031 -17.671875 21.507812 -14.472656 23.109375 -12.3125 C 24.707031 -10.074219 26.945312 -9.035156 29.984375 -9.035156 C 32.941406 -9.035156 35.179688 -10.074219 36.78125 -12.3125 C 38.378906 -14.472656 39.179688 -17.671875 39.179688 -21.828125 C 39.179688 -25.984375 38.378906 -29.105469 36.78125 -31.34375 C 35.179688 -33.503906 32.941406 -34.621094 29.984375 -34.621094 Z M 29.984375 -34.621094 "/>
</g>
<g id="glyph-1-9">
<path d="M 27.503906 -34.78125 C 24.386719 -34.78125 21.988281 -33.660156 20.390625 -31.421875 C 18.789062 -29.183594 17.992188 -25.984375 17.992188 -21.828125 C 17.992188 -17.589844 18.789062 -14.390625 20.390625 -12.152344 C 21.988281 -9.914062 24.386719 -8.875 27.503906 -8.875 C 30.542969 -8.875 32.863281 -9.914062 34.460938 -12.152344 C 36.0625 -14.390625 36.941406 -17.589844 36.941406 -21.828125 C 36.941406 -25.984375 36.0625 -29.183594 34.460938 -31.421875 C 32.863281 -33.660156 30.542969 -34.78125 27.503906 -34.78125 Z M 27.503906 -44.777344 C 35.019531 -44.777344 40.859375 -42.699219 45.097656 -38.699219 C 49.332031 -34.621094 51.492188 -29.023438 51.492188 -21.828125 C 51.492188 -14.632812 49.332031 -8.957031 45.097656 -4.957031 C 40.859375 -0.960938 35.019531 1.039062 27.503906 1.039062 C 19.988281 1.039062 14.074219 -0.960938 9.835938 -4.957031 C 5.515625 -8.957031 3.4375 -14.632812 3.4375 -21.828125 C 3.4375 -29.023438 5.515625 -34.621094 9.835938 -38.699219 C 14.074219 -42.699219 19.988281 -44.777344 27.503906 -44.777344 Z M 27.503906 -44.777344 "/>
</g>
<g id="glyph-1-10">
<path d="M 42.058594 -42.378906 L 42.058594 -30.945312 C 40.136719 -32.222656 38.21875 -33.183594 36.300781 -33.820312 C 34.382812 -34.460938 32.382812 -34.78125 30.382812 -34.78125 C 26.464844 -34.78125 23.425781 -33.582031 21.269531 -31.34375 C 19.03125 -29.105469 17.992188 -25.90625 17.992188 -21.828125 C 17.992188 -17.671875 19.03125 -14.472656 21.269531 -12.234375 C 23.425781 -9.996094 26.464844 -8.875 30.382812 -8.875 C 32.542969 -8.875 34.621094 -9.195312 36.621094 -9.835938 C 38.539062 -10.472656 40.378906 -11.433594 42.058594 -12.714844 L 42.058594 -1.28125 C 39.820312 -0.480469 37.578125 0.078125 35.339844 0.480469 C 33.101562 0.800781 30.863281 1.039062 28.625 1.039062 C 20.707031 1.039062 14.550781 -0.960938 10.074219 -4.957031 C 5.597656 -8.957031 3.4375 -14.632812 3.4375 -21.828125 C 3.4375 -29.023438 5.597656 -34.621094 10.074219 -38.699219 C 14.550781 -42.699219 20.707031 -44.777344 28.625 -44.777344 C 30.863281 -44.777344 33.101562 -44.535156 35.339844 -44.136719 C 37.578125 -43.738281 39.820312 -43.175781 42.058594 -42.378906 Z M 42.058594 -42.378906 "/>
</g>
<g id="glyph-1-11">
<path d="M 50.691406 -26.625 L 50.691406 0 L 36.621094 0 L 36.621094 -20.308594 C 36.621094 -24.148438 36.539062 -26.707031 36.378906 -28.144531 C 36.222656 -29.585938 35.902344 -30.625 35.5 -31.34375 C 34.941406 -32.222656 34.222656 -32.941406 33.261719 -33.421875 C 32.304688 -33.902344 31.183594 -34.222656 30.0625 -34.222656 C 27.105469 -34.222656 24.785156 -33.101562 23.1875 -30.863281 C 21.507812 -28.625 20.707031 -25.507812 20.707031 -21.507812 L 20.707031 0 L 6.714844 0 L 6.714844 -60.769531 L 20.707031 -60.769531 L 20.707031 -37.339844 C 22.789062 -39.898438 24.945312 -41.738281 27.34375 -42.9375 C 29.746094 -44.136719 32.382812 -44.777344 35.261719 -44.777344 C 40.296875 -44.777344 44.136719 -43.175781 46.773438 -40.136719 C 49.332031 -37.019531 50.691406 -32.542969 50.691406 -26.625 Z M 50.691406 -26.625 "/>
</g>
<g id="glyph-1-12">
<path d="M 40.859375 -42.378906 L 40.859375 -31.742188 C 37.820312 -32.941406 34.941406 -33.902344 32.222656 -34.542969 C 29.425781 -35.179688 26.785156 -35.5 24.308594 -35.5 C 21.589844 -35.5 19.667969 -35.101562 18.390625 -34.460938 C 17.109375 -33.820312 16.472656 -32.78125 16.472656 -31.421875 C 16.472656 -30.304688 16.949219 -29.425781 17.910156 -28.863281 C 18.871094 -28.226562 20.628906 -27.824219 23.1875 -27.503906 L 25.667969 -27.183594 C 32.78125 -26.226562 37.578125 -24.785156 40.058594 -22.707031 C 42.539062 -20.628906 43.816406 -17.351562 43.816406 -12.875 C 43.816406 -8.234375 42.058594 -4.71875 38.621094 -2.398438 C 35.179688 -0.078125 30.0625 1.039062 23.269531 1.039062 C 20.390625 1.039062 17.351562 0.800781 14.3125 0.398438 C 11.195312 0 7.996094 -0.640625 4.796875 -1.597656 L 4.796875 -12.234375 C 7.515625 -10.792969 10.394531 -9.753906 13.351562 -9.113281 C 16.230469 -8.476562 19.269531 -8.15625 22.308594 -8.15625 C 25.027344 -8.15625 27.027344 -8.476562 28.464844 -9.273438 C 29.824219 -9.996094 30.542969 -11.113281 30.542969 -12.632812 C 30.542969 -13.914062 30.0625 -14.792969 29.105469 -15.433594 C 28.144531 -16.070312 26.226562 -16.550781 23.425781 -16.871094 L 20.949219 -17.191406 C 14.710938 -17.910156 10.394531 -19.351562 7.914062 -21.507812 C 5.355469 -23.585938 4.15625 -26.785156 4.15625 -31.101562 C 4.15625 -35.742188 5.675781 -39.179688 8.875 -41.417969 C 12.074219 -43.65625 16.949219 -44.777344 23.507812 -44.777344 C 26.066406 -44.777344 28.703125 -44.535156 31.582031 -44.136719 C 34.460938 -43.738281 37.5 -43.175781 40.859375 -42.378906 Z M 40.859375 -42.378906 "/>
</g>
<g id="glyph-2-0">
<path d="M -58.289062 -0.398438 L -58.289062 -54.132812 L -46.933594 -54.132812 L -46.933594 -34.78125 L 0 -34.78125 L 0 -19.75 L -46.933594 -19.75 L -46.933594 -0.398438 Z M -58.289062 -0.398438 "/>
</g>
<g id="glyph-2-1">
<path d="M -34.78125 -27.503906 C -34.78125 -24.386719 -33.660156 -21.988281 -31.421875 -20.390625 C -29.183594 -18.789062 -25.984375 -17.992188 -21.828125 -17.992188 C -17.589844 -17.992188 -14.390625 -18.789062 -12.152344 -20.390625 C -9.914062 -21.988281 -8.875 -24.386719 -8.875 -27.503906 C -8.875 -30.542969 -9.914062 -32.863281 -12.152344 -34.460938 C -14.390625 -36.0625 -17.589844 -36.941406 -21.828125 -36.941406 C -25.984375 -36.941406 -29.183594 -36.0625 -31.421875 -34.460938 C -33.660156 -32.863281 -34.78125 -30.542969 -34.78125 -27.503906 Z M -44.777344 -27.503906 C -44.777344 -35.019531 -42.699219 -40.859375 -38.699219 -45.097656 C -34.621094 -49.332031 -29.023438 -51.492188 -21.828125 -51.492188 C -14.632812 -51.492188 -8.957031 -49.332031 -4.957031 -45.097656 C -0.960938 -40.859375 1.039062 -35.019531 1.039062 -27.503906 C 1.039062 -19.988281 -0.960938 -14.074219 -4.957031 -9.835938 C -8.957031 -5.515625 -14.632812 -3.4375 -21.828125 -3.4375 C -29.023438 -3.4375 -34.621094 -5.515625 -38.699219 -9.835938 C -42.699219 -14.074219 -44.777344 -19.988281 -44.777344 -27.503906 Z M -44.777344 -27.503906 "/>
</g>
<g id="glyph-2-2">
<path d="M -6.316406 -20.707031 L 16.550781 -20.707031 L 16.550781 -6.714844 L -43.738281 -6.714844 L -43.738281 -20.707031 L -37.339844 -20.707031 C -39.898438 -22.628906 -41.738281 -24.707031 -42.9375 -27.105469 C -44.136719 -29.425781 -44.777344 -32.144531 -44.777344 -35.179688 C -44.777344 -40.539062 -42.617188 -44.9375 -38.300781 -48.453125 C -33.980469 -51.890625 -28.464844 -53.652344 -21.75 -53.652344 C -15.03125 -53.652344 -9.515625 -51.890625 -5.277344 -48.453125 C -1.039062 -44.9375 1.039062 -40.539062 1.039062 -35.179688 C 1.039062 -32.144531 0.398438 -29.425781 -0.71875 -27.105469 C -1.839844 -24.707031 -3.757812 -22.628906 -6.316406 -20.707031 Z M -34.621094 -29.984375 C -34.621094 -26.945312 -33.503906 -24.707031 -31.34375 -23.109375 C -29.105469 -21.507812 -25.984375 -20.707031 -21.828125 -20.707031 C -17.671875 -20.707031 -14.472656 -21.507812 -12.3125 -23.109375 C -10.074219 -24.707031 -9.035156 -26.945312 -9.035156 -29.984375 C -9.035156 -32.941406 -10.074219 -35.179688 -12.3125 -36.78125 C -14.472656 -38.378906 -17.671875 -39.179688 -21.828125 -39.179688 C -25.984375 -39.179688 -29.105469 -38.378906 -31.34375 -36.78125 C -33.503906 -35.179688 -34.621094 -32.941406 -34.621094 -29.984375 Z M -34.621094 -29.984375 "/>
</g>
<g id="glyph-2-3">
<path d="M -28.703125 -4.316406 L -28.703125 -28.863281 L -17.351562 -28.863281 L -17.351562 -4.316406 Z M -28.703125 -4.316406 "/>
</g>
<g id="glyph-2-4">
<path d="M -10.394531 -9.355469 L -10.394531 -22.628906 L -48.054688 -22.628906 L -45.257812 -9.035156 L -55.492188 -9.035156 L -58.289062 -22.546875 L -58.289062 -36.859375 L -10.394531 -36.859375 L -10.394531 -50.132812 L 0 -50.132812 L 0 -9.355469 Z M -10.394531 -9.355469 "/>
</g>
<g id="glyph-2-5">
</g>
<g id="glyph-2-6">
<path d="M -21.988281 -50.375 L -17.992188 -50.375 L -17.992188 -17.671875 C -14.710938 -17.992188 -12.234375 -19.191406 -10.632812 -21.269531 C -8.957031 -23.269531 -8.15625 -26.066406 -8.15625 -29.746094 C -8.15625 -32.621094 -8.554688 -35.660156 -9.433594 -38.78125 C -10.316406 -41.816406 -11.671875 -45.015625 -13.433594 -48.292969 L -2.636719 -48.292969 C -1.359375 -44.9375 -0.480469 -41.65625 0.078125 -38.378906 C 0.71875 -35.019531 1.039062 -31.742188 1.039062 -28.464844 C 1.039062 -20.550781 -0.960938 -14.390625 -4.957031 -9.996094 C -8.957031 -5.597656 -14.550781 -3.4375 -21.828125 -3.4375 C -28.945312 -3.4375 -34.542969 -5.597656 -38.621094 -9.914062 C -42.699219 -14.234375 -44.777344 -20.148438 -44.777344 -27.664062 C -44.777344 -34.542969 -42.699219 -39.980469 -38.539062 -44.136719 C -34.382812 -48.292969 -28.863281 -50.375 -21.988281 -50.375 Z M -26.625 -35.980469 C -29.265625 -35.980469 -31.421875 -35.179688 -33.023438 -33.660156 C -34.621094 -32.0625 -35.5 -30.0625 -35.5 -27.585938 C -35.5 -24.867188 -34.703125 -22.628906 -33.183594 -20.949219 C -31.664062 -19.269531 -29.503906 -18.230469 -26.625 -17.832031 Z M -26.625 -35.980469 "/>
</g>
<g id="glyph-2-7">
<path d="M -42.378906 -40.859375 L -31.742188 -40.859375 C -32.941406 -37.820312 -33.902344 -34.941406 -34.542969 -32.222656 C -35.179688 -29.425781 -35.5 -26.785156 -35.5 -24.308594 C -35.5 -21.589844 -35.101562 -19.667969 -34.460938 -18.390625 C -33.820312 -17.109375 -32.78125 -16.472656 -31.421875 -16.472656 C -30.304688 -16.472656 -29.425781 -16.949219 -28.863281 -17.910156 C -28.226562 -18.871094 -27.824219 -20.628906 -27.503906 -23.1875 L -27.183594 -25.667969 C -26.226562 -32.78125 -24.785156 -37.578125 -22.707031 -40.058594 C -20.628906 -42.539062 -17.351562 -43.816406 -12.875 -43.816406 C -8.234375 -43.816406 -4.71875 -42.058594 -2.398438 -38.621094 C -0.078125 -35.179688 1.039062 -30.0625 1.039062 -23.269531 C 1.039062 -20.390625 0.800781 -17.351562 0.398438 -14.3125 C 0 -11.195312 -0.640625 -7.996094 -1.597656 -4.796875 L -12.234375 -4.796875 C -10.792969 -7.515625 -9.753906 -10.394531 -9.113281 -13.351562 C -8.476562 -16.230469 -8.15625 -19.269531 -8.15625 -22.308594 C -8.15625 -25.027344 -8.476562 -27.027344 -9.273438 -28.464844 C -9.996094 -29.824219 -11.113281 -30.542969 -12.632812 -30.542969 C -13.914062 -30.542969 -14.792969 -30.0625 -15.433594 -29.105469 C -16.070312 -28.144531 -16.550781 -26.226562 -16.871094 -23.425781 L -17.191406 -20.949219 C -17.910156 -14.710938 -19.351562 -10.394531 -21.507812 -7.914062 C -23.585938 -5.355469 -26.785156 -4.15625 -31.101562 -4.15625 C -35.742188 -4.15625 -39.179688 -5.675781 -41.417969 -8.875 C -43.65625 -12.074219 -44.777344 -16.949219 -44.777344 -23.507812 C -44.777344 -26.066406 -44.535156 -28.703125 -44.136719 -31.582031 C -43.738281 -34.460938 -43.175781 -37.5 -42.378906 -40.859375 Z M -42.378906 -40.859375 "/>
</g>
<g id="glyph-2-8">
<path d="M -56.128906 -21.988281 L -43.738281 -21.988281 L -43.738281 -36.378906 L -33.742188 -36.378906 L -33.742188 -21.988281 L -15.191406 -21.988281 C -13.113281 -21.988281 -11.753906 -22.386719 -11.035156 -23.1875 C -10.316406 -23.988281 -9.996094 -25.585938 -9.996094 -27.984375 L -9.996094 -35.179688 L 0 -35.179688 L 0 -23.1875 C 0 -17.671875 -1.121094 -13.753906 -3.4375 -11.433594 C -5.675781 -9.113281 -9.59375 -7.996094 -15.191406 -7.996094 L -33.742188 -7.996094 L -33.742188 -1.039062 L -43.738281 -1.039062 L -43.738281 -7.996094 L -56.128906 -7.996094 Z M -56.128906 -21.988281 "/>
</g>
<g id="glyph-2-9">
<path d="M -10.632812 -42.699219 L -10.632812 -19.191406 L 0 -15.511719 L 0 -0.398438 L -58.289062 -21.988281 L -58.289062 -39.898438 L 0 -61.488281 L 0 -46.375 Z M -21.429688 -22.949219 L -21.429688 -38.9375 L -44.617188 -30.945312 Z M -21.429688 -22.949219 "/>
</g>
<g id="glyph-2-10">
<path d="M -42.378906 -42.058594 L -30.945312 -42.058594 C -32.222656 -40.136719 -33.183594 -38.21875 -33.820312 -36.300781 C -34.460938 -34.382812 -34.78125 -32.382812 -34.78125 -30.382812 C -34.78125 -26.464844 -33.582031 -23.425781 -31.34375 -21.269531 C -29.105469 -19.03125 -25.90625 -17.992188 -21.828125 -17.992188 C -17.671875 -17.992188 -14.472656 -19.03125 -12.234375 -21.269531 C -9.996094 -23.425781 -8.875 -26.464844 -8.875 -30.382812 C -8.875 -32.542969 -9.195312 -34.621094 -9.835938 -36.621094 C -10.472656 -38.539062 -11.433594 -40.378906 -12.714844 -42.058594 L -1.28125 -42.058594 C -0.480469 -39.820312 0.078125 -37.578125 0.480469 -35.339844 C 0.800781 -33.101562 1.039062 -30.863281 1.039062 -28.625 C 1.039062 -20.707031 -0.960938 -14.550781 -4.957031 -10.074219 C -8.957031 -5.597656 -14.632812 -3.4375 -21.828125 -3.4375 C -29.023438 -3.4375 -34.621094 -5.597656 -38.699219 -10.074219 C -42.699219 -14.550781 -44.777344 -20.707031 -44.777344 -28.625 C -44.777344 -30.863281 -44.535156 -33.101562 -44.136719 -35.339844 C -43.738281 -37.578125 -43.175781 -39.820312 -42.378906 -42.058594 Z M -42.378906 -42.058594 "/>
</g>
<g id="glyph-2-11">
<path d="M -17.03125 -6.238281 L -43.738281 -6.238281 L -43.738281 -20.308594 L -39.339844 -20.308594 C -36.941406 -20.308594 -33.980469 -20.230469 -30.382812 -20.230469 C -26.785156 -20.230469 -24.386719 -20.230469 -23.269531 -20.230469 C -19.75 -20.230469 -17.191406 -20.308594 -15.671875 -20.46875 C -14.074219 -20.628906 -12.953125 -20.949219 -12.3125 -21.429688 C -11.355469 -21.988281 -10.632812 -22.707031 -10.15625 -23.667969 C -9.675781 -24.546875 -9.433594 -25.585938 -9.433594 -26.867188 C -9.433594 -29.746094 -10.554688 -32.0625 -12.792969 -33.742188 C -15.03125 -35.339844 -18.148438 -36.222656 -22.148438 -36.222656 L -43.738281 -36.222656 L -43.738281 -50.214844 L 0 -50.214844 L 0 -36.222656 L -6.316406 -36.222656 C -3.757812 -34.140625 -1.839844 -31.902344 -0.71875 -29.503906 C 0.398438 -27.105469 1.039062 -24.546875 1.039062 -21.75 C 1.039062 -16.632812 -0.480469 -12.792969 -3.519531 -10.15625 C -6.554688 -7.515625 -11.113281 -6.238281 -17.03125 -6.238281 Z M -17.03125 -6.238281 "/>
</g>
<g id="glyph-2-12">
<path d="M -31.824219 -39.179688 C -32.382812 -37.898438 -32.78125 -36.699219 -33.101562 -35.5 C -33.34375 -34.300781 -33.503906 -33.101562 -33.503906 -31.902344 C -33.503906 -28.304688 -32.304688 -25.507812 -30.0625 -23.585938 C -27.746094 -21.667969 -24.46875 -20.707031 -20.148438 -20.707031 L 0 -20.707031 L 0 -6.714844 L -43.738281 -6.714844 L -43.738281 -20.707031 L -36.539062 -20.707031 C -39.417969 -22.46875 -41.496094 -24.46875 -42.777344 -26.867188 C -44.054688 -29.183594 -44.777344 -31.984375 -44.777344 -35.261719 C -44.777344 -35.742188 -44.695312 -36.222656 -44.695312 -36.78125 C -44.695312 -37.261719 -44.617188 -38.058594 -44.457031 -39.179688 Z M -31.824219 -39.179688 "/>
</g>
<g id="glyph-2-13">
<path d="M -19.667969 -26.304688 C -19.667969 -23.347656 -19.109375 -21.109375 -18.148438 -19.667969 C -17.191406 -18.230469 -15.75 -17.511719 -13.832031 -17.511719 C -12.074219 -17.511719 -10.632812 -18.070312 -9.675781 -19.269531 C -8.636719 -20.46875 -8.15625 -22.148438 -8.15625 -24.226562 C -8.15625 -26.867188 -9.035156 -29.105469 -10.953125 -30.863281 C -12.875 -32.621094 -15.191406 -33.582031 -18.070312 -33.582031 L -19.667969 -33.582031 Z M -24.945312 -47.65625 L 0 -47.65625 L 0 -33.582031 L -6.476562 -33.582031 C -3.757812 -31.664062 -1.839844 -29.585938 -0.71875 -27.265625 C 0.398438 -24.867188 1.039062 -22.066406 1.039062 -18.710938 C 1.039062 -14.152344 -0.238281 -10.472656 -2.878906 -7.675781 C -5.4375 -4.796875 -8.875 -3.4375 -13.113281 -3.4375 C -18.230469 -3.4375 -21.988281 -5.195312 -24.386719 -8.714844 C -26.785156 -12.234375 -27.984375 -17.75 -27.984375 -25.347656 L -27.984375 -33.582031 L -29.105469 -33.582031 C -31.261719 -33.582031 -32.863281 -32.703125 -33.902344 -30.945312 C -34.941406 -29.183594 -35.5 -26.464844 -35.5 -22.789062 C -35.5 -19.75 -35.179688 -16.949219 -34.542969 -14.390625 C -33.902344 -11.832031 -33.023438 -9.433594 -31.902344 -7.277344 L -42.539062 -7.277344 C -43.257812 -10.234375 -43.816406 -13.191406 -44.214844 -16.230469 C -44.535156 -19.269531 -44.777344 -22.308594 -44.777344 -25.347656 C -44.777344 -33.183594 -43.175781 -38.859375 -40.058594 -42.378906 C -36.941406 -45.894531 -31.902344 -47.65625 -24.945312 -47.65625 Z M -24.945312 -47.65625 "/>
</g>
<g id="glyph-2-14">
<path d="M -43.738281 -0.960938 L -43.738281 -14.953125 L -14.074219 -26.707031 L -43.738281 -36.699219 L -43.738281 -50.691406 L 4.078125 -32.304688 C 8.875 -30.382812 12.3125 -28.226562 14.234375 -25.828125 C 16.152344 -23.347656 17.191406 -20.070312 17.191406 -16.070312 L 17.191406 -7.996094 L 7.996094 -7.996094 L 7.996094 -12.394531 C 7.996094 -14.710938 7.597656 -16.390625 6.875 -17.511719 C 6.078125 -18.628906 4.71875 -19.429688 2.796875 -20.070312 L 1.597656 -20.46875 Z M -43.738281 -0.960938 "/>
</g>
<g id="glyph-3-0">
<path d="M 23.628906 -39.699219 C 19.308594 -39.699219 15.890625 -38.078125 13.371094 -34.902344 C 10.855469 -31.664062 9.59375 -27.34375 9.59375 -21.828125 C 9.59375 -16.3125 10.855469 -11.933594 13.371094 -8.753906 C 15.890625 -5.515625 19.308594 -3.957031 23.628906 -3.957031 C 27.886719 -3.957031 31.304688 -5.515625 33.820312 -8.753906 C 36.339844 -11.933594 37.601562 -16.3125 37.601562 -21.828125 C 37.601562 -27.34375 36.339844 -31.664062 33.820312 -34.902344 C 31.304688 -38.078125 27.886719 -39.699219 23.628906 -39.699219 Z M 23.628906 -44.496094 C 29.746094 -44.496094 34.601562 -42.398438 38.320312 -38.320312 C 41.976562 -34.242188 43.835938 -28.726562 43.835938 -21.828125 C 43.835938 -14.871094 41.976562 -9.414062 38.320312 -5.335938 C 34.601562 -1.257812 29.746094 0.78125 23.628906 0.78125 C 17.449219 0.78125 12.535156 -1.257812 8.875 -5.335938 C 5.15625 -9.414062 3.359375 -14.871094 3.359375 -21.828125 C 3.359375 -28.726562 5.15625 -34.242188 8.875 -38.320312 C 12.535156 -42.398438 17.449219 -44.496094 23.628906 -44.496094 Z M 23.628906 -44.496094 "/>
</g>
<g id="glyph-3-1">
<path d="M 5.097656 -12.953125 L 5.097656 -32.800781 L 10.496094 -32.800781 L 10.496094 -13.132812 C 10.496094 -10.015625 11.09375 -7.734375 12.292969 -6.175781 C 13.492188 -4.617188 15.292969 -3.839844 17.75 -3.839844 C 20.628906 -3.839844 22.96875 -4.738281 24.648438 -6.597656 C 26.324219 -8.457031 27.164062 -10.972656 27.164062 -14.210938 L 27.164062 -32.800781 L 32.5625 -32.800781 L 32.5625 0 L 27.164062 0 L 27.164062 -5.039062 C 25.847656 -3 24.285156 -1.558594 22.609375 -0.601562 C 20.867188 0.300781 18.890625 0.78125 16.609375 0.78125 C 12.832031 0.78125 9.953125 -0.359375 8.035156 -2.699219 C 6.058594 -4.976562 5.097656 -8.394531 5.097656 -12.953125 Z M 18.648438 -33.582031 Z M 18.648438 -33.582031 "/>
</g>
<g id="glyph-3-2">
<path d="M 24.648438 -27.765625 C 24.046875 -28.125 23.386719 -28.363281 22.667969 -28.542969 C 21.949219 -28.664062 21.167969 -28.785156 20.328125 -28.785156 C 17.269531 -28.785156 14.933594 -27.765625 13.3125 -25.785156 C 11.632812 -23.808594 10.855469 -20.988281 10.855469 -17.269531 L 10.855469 0 L 5.457031 0 L 5.457031 -32.800781 L 10.855469 -32.800781 L 10.855469 -27.707031 C 11.933594 -29.683594 13.433594 -31.183594 15.230469 -32.144531 C 17.03125 -33.101562 19.25 -33.582031 21.886719 -33.582031 C 22.25 -33.582031 22.667969 -33.523438 23.148438 -33.523438 C 23.566406 -33.460938 24.046875 -33.402344 24.648438 -33.28125 Z M 24.648438 -27.765625 "/>
</g>
<g id="glyph-3-3">
</g>
<g id="glyph-3-4">
<path d="M 5.875 -43.714844 L 14.691406 -43.714844 L 25.847656 -13.972656 L 37.058594 -43.714844 L 45.875 -43.714844 L 45.875 0 L 40.117188 0 L 40.117188 -38.378906 L 28.84375 -8.394531 L 22.90625 -8.394531 L 11.632812 -38.378906 L 11.632812 0 L 5.875 0 Z M 5.875 -43.714844 "/>
</g>
<g id="glyph-3-5">
<path d="M 33.703125 -17.75 L 33.703125 -15.113281 L 8.933594 -15.113281 C 9.175781 -11.394531 10.253906 -8.515625 12.292969 -6.597656 C 14.273438 -4.675781 17.03125 -3.71875 20.628906 -3.71875 C 22.667969 -3.71875 24.707031 -3.957031 26.625 -4.4375 C 28.542969 -4.917969 30.523438 -5.695312 32.441406 -6.777344 L 32.441406 -1.679688 C 30.523438 -0.839844 28.542969 -0.179688 26.507812 0.179688 C 24.46875 0.539062 22.367188 0.78125 20.328125 0.78125 C 15.050781 0.78125 10.914062 -0.71875 7.855469 -3.71875 C 4.796875 -6.714844 3.296875 -10.855469 3.296875 -16.070312 C 3.296875 -21.410156 4.738281 -25.667969 7.617188 -28.84375 C 10.496094 -31.964844 14.453125 -33.582031 19.371094 -33.582031 C 23.808594 -33.582031 27.285156 -32.144531 29.863281 -29.324219 C 32.382812 -26.445312 33.703125 -22.609375 33.703125 -17.75 Z M 28.304688 -19.308594 C 28.246094 -22.25 27.40625 -24.585938 25.847656 -26.386719 C 24.226562 -28.125 22.066406 -29.023438 19.429688 -29.023438 C 16.429688 -29.023438 14.03125 -28.125 12.234375 -26.445312 C 10.433594 -24.765625 9.355469 -22.367188 9.113281 -19.308594 Z M 28.304688 -19.308594 "/>
</g>
<g id="glyph-3-6">
<path d="M 10.972656 -42.097656 L 10.972656 -32.800781 L 22.066406 -32.800781 L 22.066406 -28.605469 L 10.972656 -28.605469 L 10.972656 -10.792969 C 10.972656 -8.09375 11.332031 -6.355469 12.054688 -5.636719 C 12.773438 -4.855469 14.273438 -4.496094 16.550781 -4.496094 L 22.066406 -4.496094 L 22.066406 0 L 16.550781 0 C 12.351562 0 9.476562 -0.78125 7.914062 -2.339844 C 6.355469 -3.898438 5.578125 -6.714844 5.578125 -10.792969 L 5.578125 -28.605469 L 1.617188 -28.605469 L 1.617188 -32.800781 L 5.578125 -32.800781 L 5.578125 -42.097656 Z M 10.972656 -42.097656 "/>
</g>
<g id="glyph-3-7">
<path d="M 32.921875 -19.789062 L 32.921875 0 L 27.523438 0 L 27.523438 -19.609375 C 27.523438 -22.726562 26.867188 -25.007812 25.667969 -26.566406 C 24.46875 -28.125 22.667969 -28.90625 20.269531 -28.90625 C 17.332031 -28.90625 15.050781 -27.945312 13.371094 -26.085938 C 11.695312 -24.226562 10.855469 -21.707031 10.855469 -18.53125 L 10.855469 0 L 5.457031 0 L 5.457031 -45.574219 L 10.855469 -45.574219 L 10.855469 -27.707031 C 12.113281 -29.625 13.613281 -31.125 15.410156 -32.082031 C 17.152344 -33.042969 19.191406 -33.582031 21.46875 -33.582031 C 25.1875 -33.582031 28.066406 -32.382812 29.984375 -30.042969 C 31.902344 -27.707031 32.921875 -24.285156 32.921875 -19.789062 Z M 32.921875 -19.789062 "/>
</g>
<g id="glyph-3-8">
<path d="M 18.351562 -29.023438 C 15.472656 -29.023438 13.191406 -27.886719 11.515625 -25.605469 C 9.835938 -23.328125 8.996094 -20.269531 8.996094 -16.371094 C 8.996094 -12.414062 9.773438 -9.355469 11.453125 -7.078125 C 13.132812 -4.796875 15.410156 -3.71875 18.351562 -3.71875 C 21.230469 -3.71875 23.507812 -4.796875 25.1875 -7.078125 C 26.867188 -9.355469 27.707031 -12.414062 27.707031 -16.371094 C 27.707031 -20.210938 26.867188 -23.328125 25.1875 -25.605469 C 23.507812 -27.886719 21.230469 -29.023438 18.351562 -29.023438 Z M 18.351562 -33.582031 C 23.027344 -33.582031 26.6875 -32.023438 29.382812 -29.023438 C 32.023438 -25.964844 33.402344 -21.769531 33.402344 -16.371094 C 33.402344 -10.972656 32.023438 -6.777344 29.382812 -3.777344 C 26.6875 -0.71875 23.027344 0.78125 18.351562 0.78125 C 13.613281 0.78125 9.894531 -0.71875 7.257812 -3.777344 C 4.617188 -6.777344 3.296875 -10.972656 3.296875 -16.371094 C 3.296875 -21.769531 4.617188 -25.964844 7.257812 -29.023438 C 9.894531 -32.023438 13.613281 -33.582031 18.351562 -33.582031 Z M 18.351562 -33.582031 "/>
</g>
<g id="glyph-3-9">
<path d="M 27.226562 -27.824219 L 27.226562 -45.574219 L 32.621094 -45.574219 L 32.621094 0 L 27.226562 0 L 27.226562 -4.917969 C 26.085938 -2.9375 24.648438 -1.5 22.90625 -0.601562 C 21.167969 0.300781 19.128906 0.78125 16.730469 0.78125 C 12.773438 0.78125 9.535156 -0.78125 7.015625 -3.898438 C 4.496094 -7.015625 3.296875 -11.214844 3.296875 -16.371094 C 3.296875 -21.527344 4.496094 -25.667969 7.015625 -28.84375 C 9.535156 -31.964844 12.773438 -33.582031 16.730469 -33.582031 C 19.128906 -33.582031 21.167969 -33.101562 22.90625 -32.144531 C 24.648438 -31.183594 26.085938 -29.746094 27.226562 -27.824219 Z M 8.875 -16.371094 C 8.875 -12.414062 9.65625 -9.296875 11.273438 -7.015625 C 12.894531 -4.738281 15.113281 -3.65625 17.992188 -3.65625 C 20.867188 -3.65625 23.085938 -4.738281 24.765625 -7.015625 C 26.386719 -9.296875 27.226562 -12.414062 27.226562 -16.371094 C 27.226562 -20.328125 26.386719 -23.386719 24.765625 -25.667969 C 23.085938 -27.945312 20.867188 -29.085938 17.992188 -29.085938 C 15.113281 -29.085938 12.894531 -27.945312 11.273438 -25.667969 C 9.65625 -23.386719 8.875 -20.328125 8.875 -16.371094 Z M 8.875 -16.371094 "/>
</g>
<g id="glyph-3-10">
<path d="M 11.8125 -20.867188 L 11.8125 -4.855469 L 21.289062 -4.855469 C 24.46875 -4.855469 26.804688 -5.515625 28.363281 -6.835938 C 29.863281 -8.15625 30.644531 -10.132812 30.644531 -12.894531 C 30.644531 -15.589844 29.863281 -17.570312 28.363281 -18.890625 C 26.804688 -20.210938 24.46875 -20.867188 21.289062 -20.867188 Z M 11.8125 -38.859375 L 11.8125 -25.667969 L 20.570312 -25.667969 C 23.449219 -25.667969 25.546875 -26.207031 26.984375 -27.285156 C 28.425781 -28.363281 29.144531 -29.984375 29.144531 -32.261719 C 29.144531 -34.421875 28.425781 -36.101562 26.984375 -37.179688 C 25.546875 -38.257812 23.449219 -38.859375 20.570312 -38.859375 Z M 5.875 -43.714844 L 20.988281 -43.714844 C 25.488281 -43.714844 28.964844 -42.757812 31.421875 -40.898438 C 33.820312 -38.980469 35.082031 -36.339844 35.082031 -32.921875 C 35.082031 -30.222656 34.421875 -28.066406 33.164062 -26.507812 C 31.902344 -24.945312 30.105469 -23.925781 27.707031 -23.566406 C 30.582031 -22.90625 32.863281 -21.589844 34.480469 -19.609375 C 36.039062 -17.628906 36.878906 -15.171875 36.878906 -12.234375 C 36.878906 -8.277344 35.5 -5.277344 32.863281 -3.179688 C 30.222656 -1.019531 26.445312 0 21.589844 0 L 5.875 0 Z M 5.875 -43.714844 "/>
</g>
<g id="glyph-3-11">
<path d="M 20.570312 -16.492188 C 16.191406 -16.492188 13.191406 -15.953125 11.515625 -14.992188 C 9.835938 -13.972656 8.996094 -12.292969 8.996094 -9.894531 C 8.996094 -7.976562 9.59375 -6.417969 10.855469 -5.335938 C 12.113281 -4.199219 13.851562 -3.65625 16.011719 -3.65625 C 19.011719 -3.65625 21.410156 -4.675781 23.207031 -6.835938 C 25.007812 -8.933594 25.90625 -11.753906 25.90625 -15.292969 L 25.90625 -16.492188 Z M 31.304688 -18.710938 L 31.304688 0 L 25.90625 0 L 25.90625 -4.976562 C 24.648438 -2.9375 23.085938 -1.5 21.289062 -0.601562 C 19.488281 0.300781 17.210938 0.78125 14.570312 0.78125 C 11.214844 0.78125 8.515625 -0.121094 6.535156 -1.980469 C 4.558594 -3.839844 3.597656 -6.355469 3.597656 -9.535156 C 3.597656 -13.191406 4.796875 -15.953125 7.316406 -17.871094 C 9.773438 -19.730469 13.433594 -20.6875 18.351562 -20.6875 L 25.90625 -20.6875 L 25.90625 -21.230469 C 25.90625 -23.6875 25.066406 -25.605469 23.449219 -26.984375 C 21.828125 -28.304688 19.550781 -29.023438 16.609375 -29.023438 C 14.691406 -29.023438 12.894531 -28.785156 11.09375 -28.304688 C 9.296875 -27.824219 7.617188 -27.164062 5.996094 -26.324219 L 5.996094 -31.304688 C 7.914062 -32.023438 9.835938 -32.621094 11.695312 -32.984375 C 13.554688 -33.34375 15.351562 -33.582031 17.152344 -33.582031 C 21.886719 -33.582031 25.425781 -32.324219 27.765625 -29.863281 C 30.105469 -27.40625 31.304688 -23.6875 31.304688 -18.710938 Z M 31.304688 -18.710938 "/>
</g>
<g id="glyph-3-12">
<path d="M 26.566406 -31.84375 L 26.566406 -26.746094 C 25.007812 -27.464844 23.449219 -28.066406 21.828125 -28.484375 C 20.148438 -28.84375 18.46875 -29.085938 16.730469 -29.085938 C 14.03125 -29.085938 11.992188 -28.664062 10.675781 -27.824219 C 9.355469 -26.984375 8.695312 -25.785156 8.695312 -24.167969 C 8.695312 -22.90625 9.175781 -21.949219 10.132812 -21.230469 C 11.09375 -20.507812 13.011719 -19.789062 15.890625 -19.191406 L 17.75 -18.769531 C 21.589844 -17.929688 24.285156 -16.730469 25.90625 -15.292969 C 27.464844 -13.792969 28.304688 -11.695312 28.304688 -9.054688 C 28.304688 -5.996094 27.105469 -3.597656 24.707031 -1.859375 C 22.308594 -0.0585938 18.949219 0.78125 14.753906 0.78125 C 12.953125 0.78125 11.152344 0.601562 9.234375 0.300781 C 7.316406 0 5.335938 -0.480469 3.238281 -1.199219 L 3.238281 -6.777344 C 5.21875 -5.695312 7.195312 -4.917969 9.113281 -4.4375 C 11.035156 -3.898438 12.953125 -3.65625 14.871094 -3.65625 C 17.390625 -3.65625 19.371094 -4.078125 20.75 -4.917969 C 22.066406 -5.757812 22.789062 -7.015625 22.789062 -8.636719 C 22.789062 -10.074219 22.25 -11.214844 21.289062 -11.992188 C 20.328125 -12.773438 18.171875 -13.554688 14.8125 -14.273438 L 12.953125 -14.691406 C 9.59375 -15.410156 7.136719 -16.492188 5.695312 -17.929688 C 4.199219 -19.371094 3.476562 -21.347656 3.476562 -23.925781 C 3.476562 -26.984375 4.558594 -29.382812 6.714844 -31.0625 C 8.875 -32.742188 11.992188 -33.582031 16.070312 -33.582031 C 18.050781 -33.582031 19.910156 -33.402344 21.707031 -33.101562 C 23.449219 -32.800781 25.066406 -32.382812 26.566406 -31.84375 Z M 26.566406 -31.84375 "/>
</g>
<g id="glyph-3-13">
<path d="M 5.636719 -45.574219 L 11.035156 -45.574219 L 11.035156 0 L 5.636719 0 Z M 5.636719 -45.574219 "/>
</g>
<g id="glyph-3-14">
<path d="M 5.636719 -32.800781 L 11.035156 -32.800781 L 11.035156 0 L 5.636719 0 Z M 5.636719 -45.574219 L 11.035156 -45.574219 L 11.035156 -38.738281 L 5.636719 -38.738281 Z M 5.636719 -45.574219 "/>
</g>
<g id="glyph-3-15">
<path d="M 32.921875 -19.789062 L 32.921875 0 L 27.523438 0 L 27.523438 -19.609375 C 27.523438 -22.726562 26.867188 -25.007812 25.667969 -26.566406 C 24.46875 -28.125 22.667969 -28.90625 20.269531 -28.90625 C 17.332031 -28.90625 15.050781 -27.945312 13.371094 -26.085938 C 11.695312 -24.226562 10.855469 -21.707031 10.855469 -18.53125 L 10.855469 0 L 5.457031 0 L 5.457031 -32.800781 L 10.855469 -32.800781 L 10.855469 -27.707031 C 12.113281 -29.625 13.613281 -31.125 15.410156 -32.082031 C 17.152344 -33.042969 19.191406 -33.582031 21.46875 -33.582031 C 25.1875 -33.582031 28.066406 -32.382812 29.984375 -30.042969 C 31.902344 -27.707031 32.921875 -24.285156 32.921875 -19.789062 Z M 32.921875 -19.789062 "/>
</g>
</g>
<clipPath id="clip-0">
<path clip-rule="nonzero" d="M 0.304688 0 L 1932.859375 0 L 1932.859375 1357.554688 L 0.304688 1357.554688 Z M 0.304688 0 "/>
</clipPath>
<clipPath id="clip-1">
<path clip-rule="nonzero" d="M 222.121094 7.195312 L 223 7.195312 L 223 1178.652344 L 222.121094 1178.652344 Z M 222.121094 7.195312 "/>
</clipPath>
<clipPath id="clip-2">
<path clip-rule="nonzero" d="M 489 7.195312 L 491 7.195312 L 491 1178.652344 L 489 1178.652344 Z M 489 7.195312 "/>
</clipPath>
<clipPath id="clip-3">
<path clip-rule="nonzero" d="M 763 7.195312 L 765 7.195312 L 765 1178.652344 L 763 1178.652344 Z M 763 7.195312 "/>
</clipPath>
<clipPath id="clip-4">
<path clip-rule="nonzero" d="M 1037 7.195312 L 1039 7.195312 L 1039 1178.652344 L 1037 1178.652344 Z M 1037 7.195312 "/>
</clipPath>
<clipPath id="clip-5">
<path clip-rule="nonzero" d="M 1311 7.195312 L 1312 7.195312 L 1312 1178.652344 L 1311 1178.652344 Z M 1311 7.195312 "/>
</clipPath>
<clipPath id="clip-6">
<path clip-rule="nonzero" d="M 1584 7.195312 L 1586 7.195312 L 1586 1178.652344 L 1584 1178.652344 Z M 1584 7.195312 "/>
</clipPath>
<clipPath id="clip-7">
<path clip-rule="nonzero" d="M 1858 7.195312 L 1858.898438 7.195312 L 1858.898438 1178.652344 L 1858 1178.652344 Z M 1858 7.195312 "/>
</clipPath>
<clipPath id="clip-8">
<path clip-rule="nonzero" d="M 222.121094 1168 L 1858.898438 1168 L 1858.898438 1170 L 222.121094 1170 Z M 222.121094 1168 "/>
</clipPath>
<clipPath id="clip-9">
<path clip-rule="nonzero" d="M 222.121094 963 L 1858.898438 963 L 1858.898438 964 L 222.121094 964 Z M 222.121094 963 "/>
</clipPath>
<clipPath id="clip-10">
<path clip-rule="nonzero" d="M 222.121094 757 L 1858.898438 757 L 1858.898438 759 L 222.121094 759 Z M 222.121094 757 "/>
</clipPath>
<clipPath id="clip-11">
<path clip-rule="nonzero" d="M 222.121094 552 L 1858.898438 552 L 1858.898438 554 L 222.121094 554 Z M 222.121094 552 "/>
</clipPath>
<clipPath id="clip-12">
<path clip-rule="nonzero" d="M 222.121094 347 L 1858.898438 347 L 1858.898438 348 L 222.121094 348 Z M 222.121094 347 "/>
</clipPath>
<clipPath id="clip-13">
<path clip-rule="nonzero" d="M 222.121094 141 L 1858.898438 141 L 1858.898438 143 L 222.121094 143 Z M 222.121094 141 "/>
</clipPath>
<clipPath id="clip-14">
<path clip-rule="nonzero" d="M 222.121094 79 L 708 79 L 708 899 L 222.121094 899 Z M 222.121094 79 "/>
</clipPath>
<clipPath id="clip-15">
<path clip-rule="nonzero" d="M 222.121094 64 L 1201 64 L 1201 942 L 222.121094 942 Z M 222.121094 64 "/>
</clipPath>
<clipPath id="clip-16">
<path clip-rule="nonzero" d="M 222.121094 56 L 1694 56 L 1694 944 L 222.121094 944 Z M 222.121094 56 "/>
</clipPath>
<clipPath id="clip-17">
<path clip-rule="nonzero" d="M 222.121094 93 L 708 93 L 708 1091 L 222.121094 1091 Z M 222.121094 93 "/>
</clipPath>
<clipPath id="clip-18">
<path clip-rule="nonzero" d="M 222.121094 69 L 1201 69 L 1201 1130 L 222.121094 1130 Z M 222.121094 69 "/>
</clipPath>
<clipPath id="clip-19">
<path clip-rule="nonzero" d="M 222.121094 65 L 1694 65 L 1694 1097 L 222.121094 1097 Z M 222.121094 65 "/>
</clipPath>
</defs>
<g clip-path="url(#clip-0)">
<path fill-rule="nonzero" fill="rgb(100%, 100%, 100%)" fill-opacity="1" d="M 0.304688 1357.554688 L 1932.859375 1357.554688 L 1932.859375 0 L 0.304688 0 Z M 0.304688 1357.554688 "/>
</g>
<path fill-rule="nonzero" fill="rgb(100%, 100%, 100%)" fill-opacity="1" d="M 222.121094 1178.652344 L 1858.898438 1178.652344 L 1858.898438 7.195312 L 222.121094 7.195312 Z M 222.121094 1178.652344 "/>
<g clip-path="url(#clip-1)">
<path fill="none" stroke-width="0.8" stroke-linecap="butt" stroke-linejoin="round" stroke="rgb(69.018555%, 69.018555%, 69.018555%)" stroke-opacity="0.6" stroke-dasharray="0.8 1.32" stroke-miterlimit="10" d="M 221.934019 178.997035 L 221.934019 1351.077732 " transform="matrix(0.999468, 0, 0, -0.999468, 0.305166, 1357.554135)"/>
</g>
<path fill="none" stroke-width="15" stroke-linecap="butt" stroke-linejoin="round" stroke="rgb(0%, 0%, 0%)" stroke-opacity="1" stroke-miterlimit="10" d="M 221.934019 163.996866 L 221.934019 193.997205 " transform="matrix(0.999468, 0, 0, -0.999468, 0.305166, 1357.554135)"/>
<g fill="rgb(0%, 0%, 0%)" fill-opacity="1">
<use xlink:href="#glyph-0-0" x="199.867673" y="1251.801061"/>
</g>
<g clip-path="url(#clip-2)">
<path fill="none" stroke-width="0.8" stroke-linecap="butt" stroke-linejoin="round" stroke="rgb(69.018555%, 69.018555%, 69.018555%)" stroke-opacity="0.6" stroke-dasharray="0.8 1.32" stroke-miterlimit="10" d="M 490.311197 178.997035 L 490.311197 1351.077732 " transform="matrix(0.999468, 0, 0, -0.999468, 0.305166, 1357.554135)"/>
</g>
<path fill="none" stroke-width="15" stroke-linecap="butt" stroke-linejoin="round" stroke="rgb(0%, 0%, 0%)" stroke-opacity="1" stroke-miterlimit="10" d="M 490.311197 163.996866 L 490.311197 193.997205 " transform="matrix(0.999468, 0, 0, -0.999468, 0.305166, 1357.554135)"/>
<g fill="rgb(0%, 0%, 0%)" fill-opacity="1">
<use xlink:href="#glyph-0-1" x="445.848516" y="1251.801061"/>
<use xlink:href="#glyph-0-2" x="490.344827" y="1251.801061"/>
</g>
<g clip-path="url(#clip-3)">
<path fill="none" stroke-width="0.8" stroke-linecap="butt" stroke-linejoin="round" stroke="rgb(69.018555%, 69.018555%, 69.018555%)" stroke-opacity="0.6" stroke-dasharray="0.8 1.32" stroke-miterlimit="10" d="M 764.167854 178.997035 L 764.167854 1351.077732 " transform="matrix(0.999468, 0, 0, -0.999468, 0.305166, 1357.554135)"/>
</g>
<path fill="none" stroke-width="15" stroke-linecap="butt" stroke-linejoin="round" stroke="rgb(0%, 0%, 0%)" stroke-opacity="1" stroke-miterlimit="10" d="M 764.167854 163.996866 L 764.167854 193.997205 " transform="matrix(0.999468, 0, 0, -0.999468, 0.305166, 1357.554135)"/>
<g fill="rgb(0%, 0%, 0%)" fill-opacity="1">
<use xlink:href="#glyph-0-0" x="697.303535" y="1251.801061"/>
<use xlink:href="#glyph-0-2" x="741.799846" y="1251.801061"/>
<use xlink:href="#glyph-0-2" x="786.296157" y="1251.801061"/>
</g>
<g clip-path="url(#clip-4)">
<path fill="none" stroke-width="0.8" stroke-linecap="butt" stroke-linejoin="round" stroke="rgb(69.018555%, 69.018555%, 69.018555%)" stroke-opacity="0.6" stroke-dasharray="0.8 1.32" stroke-miterlimit="10" d="M 1038.020603 178.997035 L 1038.020603 1351.077732 " transform="matrix(0.999468, 0, 0, -0.999468, 0.305166, 1357.554135)"/>
</g>
<path fill="none" stroke-width="15" stroke-linecap="butt" stroke-linejoin="round" stroke="rgb(0%, 0%, 0%)" stroke-opacity="1" stroke-miterlimit="10" d="M 1038.020603 163.996866 L 1038.020603 193.997205 " transform="matrix(0.999468, 0, 0, -0.999468, 0.305166, 1357.554135)"/>
<g fill="rgb(0%, 0%, 0%)" fill-opacity="1">
<use xlink:href="#glyph-0-0" x="971.012332" y="1251.801061"/>
<use xlink:href="#glyph-0-1" x="1015.508643" y="1251.801061"/>
<use xlink:href="#glyph-0-2" x="1060.004954" y="1251.801061"/>
</g>
<g clip-path="url(#clip-5)">
<path fill="none" stroke-width="0.8" stroke-linecap="butt" stroke-linejoin="round" stroke="rgb(69.018555%, 69.018555%, 69.018555%)" stroke-opacity="0.6" stroke-dasharray="0.8 1.32" stroke-miterlimit="10" d="M 1311.877259 178.997035 L 1311.877259 1351.077732 " transform="matrix(0.999468, 0, 0, -0.999468, 0.305166, 1357.554135)"/>
</g>
<path fill="none" stroke-width="15" stroke-linecap="butt" stroke-linejoin="round" stroke="rgb(0%, 0%, 0%)" stroke-opacity="1" stroke-miterlimit="10" d="M 1311.877259 163.996866 L 1311.877259 193.997205 " transform="matrix(0.999468, 0, 0, -0.999468, 0.305166, 1357.554135)"/>
<g fill="rgb(0%, 0%, 0%)" fill-opacity="1">
<use xlink:href="#glyph-0-3" x="1244.721129" y="1251.801061"/>
<use xlink:href="#glyph-0-2" x="1289.21744" y="1251.801061"/>
<use xlink:href="#glyph-0-2" x="1333.713751" y="1251.801061"/>
</g>
<g clip-path="url(#clip-6)">
<path fill="none" stroke-width="0.8" stroke-linecap="butt" stroke-linejoin="round" stroke="rgb(69.018555%, 69.018555%, 69.018555%)" stroke-opacity="0.6" stroke-dasharray="0.8 1.32" stroke-miterlimit="10" d="M 1585.730008 178.997035 L 1585.730008 1351.077732 " transform="matrix(0.999468, 0, 0, -0.999468, 0.305166, 1357.554135)"/>
</g>
<path fill="none" stroke-width="15" stroke-linecap="butt" stroke-linejoin="round" stroke="rgb(0%, 0%, 0%)" stroke-opacity="1" stroke-miterlimit="10" d="M 1585.730008 163.996866 L 1585.730008 193.997205 " transform="matrix(0.999468, 0, 0, -0.999468, 0.305166, 1357.554135)"/>
<g fill="rgb(0%, 0%, 0%)" fill-opacity="1">
<use xlink:href="#glyph-0-3" x="1518.429926" y="1251.801061"/>
<use xlink:href="#glyph-0-1" x="1562.926237" y="1251.801061"/>
<use xlink:href="#glyph-0-2" x="1607.422548" y="1251.801061"/>
</g>
<g clip-path="url(#clip-7)">
<path fill="none" stroke-width="0.8" stroke-linecap="butt" stroke-linejoin="round" stroke="rgb(69.018555%, 69.018555%, 69.018555%)" stroke-opacity="0.6" stroke-dasharray="0.8 1.32" stroke-miterlimit="10" d="M 1859.582757 178.997035 L 1859.582757 1351.077732 " transform="matrix(0.999468, 0, 0, -0.999468, 0.305166, 1357.554135)"/>
</g>
<path fill="none" stroke-width="15" stroke-linecap="butt" stroke-linejoin="round" stroke="rgb(0%, 0%, 0%)" stroke-opacity="1" stroke-miterlimit="10" d="M 1859.582757 163.996866 L 1859.582757 193.997205 " transform="matrix(0.999468, 0, 0, -0.999468, 0.305166, 1357.554135)"/>
<g fill="rgb(0%, 0%, 0%)" fill-opacity="1">
<use xlink:href="#glyph-0-4" x="1792.138723" y="1251.801061"/>
<use xlink:href="#glyph-0-2" x="1836.635034" y="1251.801061"/>
<use xlink:href="#glyph-0-2" x="1881.131345" y="1251.801061"/>
</g>
<g fill="rgb(14.901733%, 14.901733%, 14.901733%)" fill-opacity="1">
<use xlink:href="#glyph-1-0" x="684.684564" y="1333.101528"/>
</g>
<g fill="rgb(14.901733%, 14.901733%, 14.901733%)" fill-opacity="1">
<use xlink:href="#glyph-1-1" x="730.438955" y="1333.101528"/>
<use xlink:href="#glyph-1-2" x="769.857969" y="1333.101528"/>
<use xlink:href="#glyph-1-3" x="823.829235" y="1333.101528"/>
<use xlink:href="#glyph-1-4" x="851.254635" y="1333.101528"/>
<use xlink:href="#glyph-1-3" x="908.184326" y="1333.101528"/>
<use xlink:href="#glyph-1-4" x="935.609725" y="1333.101528"/>
<use xlink:href="#glyph-1-5" x="992.539417" y="1333.101528"/>
<use xlink:href="#glyph-1-6" x="1049.788938" y="1333.101528"/>
<use xlink:href="#glyph-1-7" x="1077.614124" y="1333.101528"/>
<use xlink:href="#glyph-1-8" x="1132.22505" y="1333.101528"/>
<use xlink:href="#glyph-1-9" x="1189.474572" y="1333.101528"/>
<use xlink:href="#glyph-1-10" x="1244.405327" y="1333.101528"/>
<use xlink:href="#glyph-1-11" x="1291.820084" y="1333.101528"/>
<use xlink:href="#glyph-1-12" x="1348.749776" y="1333.101528"/>
</g>
<g clip-path="url(#clip-8)">
<path fill="none" stroke-width="0.8" stroke-linecap="butt" stroke-linejoin="round" stroke="rgb(69.018555%, 69.018555%, 69.018555%)" stroke-opacity="0.6" stroke-dasharray="0.8 1.32" stroke-miterlimit="10" d="M 221.934019 188.838209 L 1859.582757 188.838209 " transform="matrix(0.999468, 0, 0, -0.999468, 0.305166, 1357.554135)"/>
</g>
<path fill="none" stroke-width="15" stroke-linecap="butt" stroke-linejoin="round" stroke="rgb(0%, 0%, 0%)" stroke-opacity="1" stroke-miterlimit="10" d="M 236.934188 188.838209 L 206.933849 188.838209 " transform="matrix(0.999468, 0, 0, -0.999468, 0.305166, 1357.554135)"/>
<g fill="rgb(0%, 0%, 0%)" fill-opacity="1">
<use xlink:href="#glyph-0-2" x="90.878822" y="1195.395698"/>
<use xlink:href="#glyph-0-5" x="135.375132" y="1195.395698"/>
<use xlink:href="#glyph-0-3" x="157.623288" y="1195.395698"/>
</g>
<g clip-path="url(#clip-9)">
<path fill="none" stroke-width="0.8" stroke-linecap="butt" stroke-linejoin="round" stroke="rgb(69.018555%, 69.018555%, 69.018555%)" stroke-opacity="0.6" stroke-dasharray="0.8 1.32" stroke-miterlimit="10" d="M 221.934019 394.299098 L 1859.582757 394.299098 " transform="matrix(0.999468, 0, 0, -0.999468, 0.305166, 1357.554135)"/>
</g>
<path fill="none" stroke-width="15" stroke-linecap="butt" stroke-linejoin="round" stroke="rgb(0%, 0%, 0%)" stroke-opacity="1" stroke-miterlimit="10" d="M 236.934188 394.299098 L 206.933849 394.299098 " transform="matrix(0.999468, 0, 0, -0.999468, 0.305166, 1357.554135)"/>
<g fill="rgb(0%, 0%, 0%)" fill-opacity="1">
<use xlink:href="#glyph-0-2" x="90.878822" y="990.042766"/>
<use xlink:href="#glyph-0-5" x="135.375132" y="990.042766"/>
<use xlink:href="#glyph-0-4" x="157.623288" y="990.042766"/>
</g>
<g clip-path="url(#clip-10)">
<path fill="none" stroke-width="0.8" stroke-linecap="butt" stroke-linejoin="round" stroke="rgb(69.018555%, 69.018555%, 69.018555%)" stroke-opacity="0.6" stroke-dasharray="0.8 1.32" stroke-miterlimit="10" d="M 221.934019 599.763895 L 1859.582757 599.763895 " transform="matrix(0.999468, 0, 0, -0.999468, 0.305166, 1357.554135)"/>
</g>
<path fill="none" stroke-width="15" stroke-linecap="butt" stroke-linejoin="round" stroke="rgb(0%, 0%, 0%)" stroke-opacity="1" stroke-miterlimit="10" d="M 236.934188 599.763895 L 206.933849 599.763895 " transform="matrix(0.999468, 0, 0, -0.999468, 0.305166, 1357.554135)"/>
<g fill="rgb(0%, 0%, 0%)" fill-opacity="1">
<use xlink:href="#glyph-0-2" x="90.878822" y="784.689834"/>
<use xlink:href="#glyph-0-5" x="135.375132" y="784.689834"/>
<use xlink:href="#glyph-0-6" x="157.623288" y="784.689834"/>
</g>
<g clip-path="url(#clip-11)">
<path fill="none" stroke-width="0.8" stroke-linecap="butt" stroke-linejoin="round" stroke="rgb(69.018555%, 69.018555%, 69.018555%)" stroke-opacity="0.6" stroke-dasharray="0.8 1.32" stroke-miterlimit="10" d="M 221.934019 805.224783 L 1859.582757 805.224783 " transform="matrix(0.999468, 0, 0, -0.999468, 0.305166, 1357.554135)"/>
</g>
<path fill="none" stroke-width="15" stroke-linecap="butt" stroke-linejoin="round" stroke="rgb(0%, 0%, 0%)" stroke-opacity="1" stroke-miterlimit="10" d="M 236.934188 805.224783 L 206.933849 805.224783 " transform="matrix(0.999468, 0, 0, -0.999468, 0.305166, 1357.554135)"/>
<g fill="rgb(0%, 0%, 0%)" fill-opacity="1">
<use xlink:href="#glyph-0-2" x="90.878822" y="579.336902"/>
<use xlink:href="#glyph-0-5" x="135.375132" y="579.336902"/>
<use xlink:href="#glyph-0-1" x="157.623288" y="579.336902"/>
</g>
<g clip-path="url(#clip-12)">
<path fill="none" stroke-width="0.8" stroke-linecap="butt" stroke-linejoin="round" stroke="rgb(69.018555%, 69.018555%, 69.018555%)" stroke-opacity="0.6" stroke-dasharray="0.8 1.32" stroke-miterlimit="10" d="M 221.934019 1010.685671 L 1859.582757 1010.685671 " transform="matrix(0.999468, 0, 0, -0.999468, 0.305166, 1357.554135)"/>
</g>
<path fill="none" stroke-width="15" stroke-linecap="butt" stroke-linejoin="round" stroke="rgb(0%, 0%, 0%)" stroke-opacity="1" stroke-miterlimit="10" d="M 236.934188 1010.685671 L 206.933849 1010.685671 " transform="matrix(0.999468, 0, 0, -0.999468, 0.305166, 1357.554135)"/>
<g fill="rgb(0%, 0%, 0%)" fill-opacity="1">
<use xlink:href="#glyph-0-2" x="90.878822" y="373.983971"/>
<use xlink:href="#glyph-0-5" x="135.375132" y="373.983971"/>
<use xlink:href="#glyph-0-7" x="157.623288" y="373.983971"/>
</g>
<g clip-path="url(#clip-13)">
<path fill="none" stroke-width="0.8" stroke-linecap="butt" stroke-linejoin="round" stroke="rgb(69.018555%, 69.018555%, 69.018555%)" stroke-opacity="0.6" stroke-dasharray="0.8 1.32" stroke-miterlimit="10" d="M 221.934019 1216.150468 L 1859.582757 1216.150468 " transform="matrix(0.999468, 0, 0, -0.999468, 0.305166, 1357.554135)"/>
</g>
<path fill="none" stroke-width="15" stroke-linecap="butt" stroke-linejoin="round" stroke="rgb(0%, 0%, 0%)" stroke-opacity="1" stroke-miterlimit="10" d="M 236.934188 1216.150468 L 206.933849 1216.150468 " transform="matrix(0.999468, 0, 0, -0.999468, 0.305166, 1357.554135)"/>
<g fill="rgb(0%, 0%, 0%)" fill-opacity="1">
<use xlink:href="#glyph-0-2" x="90.878822" y="168.631039"/>
<use xlink:href="#glyph-0-5" x="135.375132" y="168.631039"/>
<use xlink:href="#glyph-0-8" x="157.623288" y="168.631039"/>
</g>
<g fill="rgb(14.901733%, 14.901733%, 14.901733%)" fill-opacity="1">
<use xlink:href="#glyph-2-0" x="67.625576" y="1038.491811"/>
</g>
<g fill="rgb(14.901733%, 14.901733%, 14.901733%)" fill-opacity="1">
<use xlink:href="#glyph-2-1" x="67.625576" y="994.580189"/>
<use xlink:href="#glyph-2-2" x="67.625576" y="939.649433"/>
<use xlink:href="#glyph-2-3" x="67.625576" y="882.399912"/>
<use xlink:href="#glyph-2-4" x="67.625576" y="849.217578"/>
<use xlink:href="#glyph-2-5" x="67.625576" y="793.567205"/>
<use xlink:href="#glyph-2-0" x="67.625576" y="765.742019"/>
</g>
<g fill="rgb(14.901733%, 14.901733%, 14.901733%)" fill-opacity="1">
<use xlink:href="#glyph-2-6" x="67.625576" y="721.830396"/>
<use xlink:href="#glyph-2-7" x="67.625576" y="667.619258"/>
<use xlink:href="#glyph-2-8" x="67.625576" y="620.044586"/>
<use xlink:href="#glyph-2-5" x="67.625576" y="581.824933"/>
<use xlink:href="#glyph-2-9" x="67.625576" y="553.999747"/>
<use xlink:href="#glyph-2-10" x="67.625576" y="492.112695"/>
<use xlink:href="#glyph-2-10" x="67.625576" y="444.697937"/>
<use xlink:href="#glyph-2-11" x="67.625576" y="397.28318"/>
<use xlink:href="#glyph-2-12" x="67.625576" y="340.353489"/>
<use xlink:href="#glyph-2-13" x="67.625576" y="300.934475"/>
<use xlink:href="#glyph-2-10" x="67.625576" y="246.963208"/>
<use xlink:href="#glyph-2-14" x="67.625576" y="199.548451"/>
</g>
<g clip-path="url(#clip-14)">
<path fill="none" stroke-width="8" stroke-linecap="butt" stroke-linejoin="round" stroke="rgb(0%, 50.195312%, 0%)" stroke-opacity="1" stroke-dasharray="29.6 12.8" stroke-miterlimit="10" d="M 221.934019 463.707124 L 227.409588 491.811922 L 232.889066 515.140742 L 238.364636 536.359063 L 243.844114 558.589642 L 249.319684 574.57471 L 254.795254 625.680028 L 260.274732 656.962299 L 265.750302 682.921424 L 271.22978 702.728839 L 276.70535 722.618328 L 282.18092 741.58936 L 287.660398 757.746395 L 293.135968 773.465696 L 298.615446 785.538527 L 304.091016 799.651505 L 309.566585 812.865567 L 315.046064 823.566574 L 320.521633 819.732503 L 325.997203 830.183376 L 331.476681 840.157433 L 336.952251 845.715078 L 342.431729 846.113728 L 347.907299 852.00358 L 353.382869 859.101107 L 358.862347 865.9954 L 364.337917 872.01032 L 369.817395 882.855934 L 375.292965 896.476463 L 380.768535 900.146385 L 386.248013 900.232368 L 391.723582 904.734764 L 397.203061 916.811502 L 402.67863 920.88789 L 408.1542 922.165914 L 413.633678 924.131804 L 419.109248 929.580015 L 424.584818 934.418527 L 430.064296 943.868868 L 435.539866 946.878282 L 441.019344 958.18508 L 446.494914 963.543399 L 451.970484 972.051833 L 457.449962 978.453677 L 462.925532 986.430578 L 468.40501 994.419204 L 473.88058 999.675907 L 479.356149 1003.31847 L 484.835627 1010.90063 L 490.311197 1021.535194 L 495.790675 1026.729365 L 501.266245 1036.246147 L 506.741815 1040.080219 L 512.221293 1048.940402 L 517.696863 1055.170279 L 523.172433 1063.850679 L 528.651911 1072.910187 L 534.127481 1079.526989 L 539.606959 1086.319666 L 545.082529 1094.034709 L 550.558098 1102.167943 L 556.037577 1108.792562 L 561.513146 1117.891153 L 566.992625 1121.838566 L 572.468194 1130.006975 L 577.943764 1136.995068 L 583.423242 1144.678844 L 588.898812 1154.817051 L 594.37829 1163.352843 L 599.85386 1170.841203 L 605.32943 1179.564595 L 610.808908 1186.978696 L 616.284478 1194.365439 L 621.760048 1204.632621 L 627.239526 1212.644696 L 632.715095 1219.58589 L 638.194574 1226.093259 L 643.670143 1232.768686 L 649.145713 1238.994655 L 654.625191 1245.201082 L 660.100761 1250.969777 L 665.580239 1257.160571 L 671.055809 1261.854475 L 676.531379 1265.766713 L 682.010857 1268.940276 L 687.486427 1270.589592 L 692.965905 1272.360065 L 698.441475 1273.743614 L 703.917045 1274.576088 " transform="matrix(0.999468, 0, 0, -0.999468, 0.305166, 1357.554135)"/>
</g>
<g clip-path="url(#clip-15)">
<path fill="none" stroke-width="8" stroke-linecap="butt" stroke-linejoin="round" stroke="rgb(0%, 50.195312%, 0%)" stroke-opacity="1" stroke-dasharray="29.6 12.8" stroke-miterlimit="10" d="M 221.934019 420.105798 L 227.409588 450.125678 L 232.889066 471.801274 L 243.844114 520.616311 L 249.319684 540.435451 L 254.795254 590.809911 L 260.274732 622.47129 L 265.750302 653.347094 L 271.22978 677.879679 L 276.70535 688.158586 L 282.18092 706.066552 L 287.660398 718.811615 L 293.135968 723.657944 L 298.615446 733.819601 L 304.091016 742.847842 L 309.566585 752.192658 L 315.046064 761.263891 L 320.521633 764.750121 L 325.997203 767.665735 L 331.476681 784.647428 L 336.952251 788.563574 L 342.431729 800.202579 L 347.907299 815.073774 L 353.382869 819.912286 L 358.862347 824.285707 L 364.337917 829.87071 L 369.817395 833.986181 L 375.292965 833.07554 L 380.768535 842.236665 L 391.723582 844.558212 L 397.203061 843.108222 L 402.67863 840.54045 L 408.1542 842.545423 L 413.633678 844.327621 L 419.109248 849.900899 L 424.584818 856.224576 L 430.064296 866.202542 L 435.539866 866.081384 L 441.019344 866.48785 L 446.494914 871.701562 L 451.970484 877.947072 L 457.449962 884.556058 L 462.925532 879.084396 L 468.40501 881.015111 L 473.88058 882.65661 L 484.835627 882.934101 L 490.311197 888.038379 L 495.790675 891.739568 L 501.266245 895.636172 L 506.741815 899.388169 L 512.221293 899.345177 L 517.696863 904.320481 L 523.172433 907.193103 L 528.651911 908.607918 L 534.127481 910.296317 L 539.606959 914.146021 L 545.082529 915.31852 L 550.558098 912.074607 L 556.037577 915.38887 L 561.513146 915.822695 L 566.992625 919.699758 L 572.468194 927.363992 L 577.943764 932.401829 L 583.423242 936.360967 L 588.898812 935.497226 L 594.37829 933.695486 L 599.85386 936.118651 L 605.32943 947.863181 L 610.808908 949.289721 L 616.284478 953.889825 L 621.760048 956.441965 L 627.239526 958.575913 L 632.715095 958.958929 L 638.194574 961.245302 L 643.670143 970.300901 L 649.145713 971.344425 L 654.625191 971.993208 L 660.100761 974.064623 L 665.580239 975.510705 L 671.055809 971.547659 L 676.531379 969.956968 L 682.010857 974.228773 L 687.486427 979.067285 L 692.965905 985.035304 L 698.441475 987.19661 L 703.917045 997.674842 L 709.396523 1003.212945 L 714.872093 1005.815893 L 720.347662 1009.798481 L 725.82714 1015.926741 L 731.30271 1023.966176 L 736.782188 1026.721548 L 742.257758 1026.092307 L 747.733328 1028.148088 L 753.212806 1031.833643 L 758.688376 1037.019996 L 764.167854 1040.760268 L 769.643424 1043.582082 L 775.118994 1049.659534 L 780.598472 1056.901669 L 786.074042 1062.553114 L 791.55352 1064.472104 L 797.02909 1071.636072 L 802.504659 1074.422711 L 807.984138 1076.326067 L 813.459707 1077.979291 L 818.935277 1080.55488 L 824.414755 1081.801637 L 829.890325 1082.907695 L 835.369803 1085.526275 L 840.845373 1088.332456 L 846.320943 1093.796301 L 851.800421 1094.843733 L 857.275991 1097.712447 L 862.755469 1102.621309 L 868.231039 1106.302956 L 873.706609 1108.761295 L 879.186087 1114.373656 L 884.661656 1119.364593 L 890.141135 1123.390173 L 895.616704 1126.118187 L 901.092274 1129.498892 L 906.571752 1133.57528 L 912.047322 1132.535664 L 917.522892 1134.579721 L 923.00237 1138.288725 L 928.47794 1140.067015 L 933.957418 1143.768204 L 939.432988 1147.692166 L 944.908558 1148.653616 L 950.388036 1147.016025 L 955.863606 1149.009274 L 961.343084 1154.37541 L 966.818654 1163.223868 L 977.773701 1170.032179 L 983.249271 1177.149247 L 988.728749 1180.041411 L 994.204319 1182.738158 L 999.679889 1189.171269 L 1005.159367 1197.886844 L 1010.634937 1201.888973 L 1016.114415 1204.93747 L 1021.589985 1207.544326 L 1027.065555 1212.390655 L 1032.545033 1216.255993 L 1038.020603 1221.395447 L 1043.496172 1225.546093 L 1048.975651 1229.051864 L 1054.45122 1232.420844 L 1059.930698 1235.641308 L 1065.406268 1239.752871 L 1070.881838 1243.254734 L 1076.361316 1247.385839 L 1081.836886 1250.789994 L 1087.316364 1253.560999 L 1092.791934 1256.101414 L 1098.267504 1259.603277 L 1103.746982 1262.346924 L 1109.222552 1265.25863 L 1114.70203 1268.475185 L 1120.1776 1270.745925 L 1125.653169 1273.626364 L 1131.132648 1275.807212 L 1136.608217 1277.80046 L 1147.563265 1282.209056 L 1153.038835 1283.635596 L 1158.518313 1285.238011 L 1163.993883 1286.414418 L 1169.469453 1287.399317 L 1174.948931 1288.501466 L 1180.424501 1288.802408 L 1191.379549 1289.842023 L 1196.855119 1290.22504 " transform="matrix(0.999468, 0, 0, -0.999468, 0.305166, 1357.554135)"/>
</g>
<g clip-path="url(#clip-16)">
<path fill="none" stroke-width="8" stroke-linecap="butt" stroke-linejoin="round" stroke="rgb(0%, 50.195312%, 0%)" stroke-opacity="1" stroke-dasharray="29.6 12.8" stroke-miterlimit="10" d="M 221.934019 418.710525 L 227.409588 444.427334 L 232.889066 474.513655 L 238.364636 494.864327 L 243.844114 516.504749 L 249.319684 533.251941 L 254.795254 590.680937 L 260.274732 624.726396 L 265.750302 656.430766 L 271.22978 683.546757 L 276.70535 693.012731 L 282.18092 711.323255 L 287.660398 728.570714 L 293.135968 742.800942 L 298.615446 754.29534 L 304.091016 765.344188 L 309.566585 772.297106 L 315.046064 783.881395 L 320.521633 786.91035 L 325.997203 782.146097 L 331.476681 792.049804 L 336.952251 798.955822 L 342.431729 798.006098 L 347.907299 808.003605 L 353.382869 810.508845 L 358.862347 813.909091 L 364.337917 816.793439 L 369.817395 825.860763 L 375.292965 831.031484 L 380.768535 838.676176 L 386.248013 844.769262 L 391.723582 847.845118 L 397.203061 853.160446 L 402.67863 854.692511 L 408.1542 859.488032 L 413.633678 859.222265 L 419.109248 863.849727 L 424.584818 862.90782 L 430.064296 865.268451 L 435.539866 869.778663 L 441.019344 868.817214 L 446.494914 868.969639 L 451.970484 866.315883 L 457.449962 864.467243 L 462.925532 865.553759 L 468.40501 873.827693 L 473.88058 877.767289 L 479.356149 880.510937 L 484.835627 880.999478 L 490.311197 876.89964 L 495.790675 879.553396 L 501.266245 881.183169 L 506.741815 883.559434 L 512.221293 887.112105 L 517.696863 886.275723 L 523.172433 882.476826 L 528.651911 883.004451 L 534.127481 882.734776 L 539.606959 880.518753 L 545.082529 886.303081 L 550.558098 885.69729 L 556.037577 890.719494 L 561.513146 896.214605 L 566.992625 896.410022 L 572.468194 897.867828 L 577.943764 902.448391 L 583.423242 899.794635 L 588.898812 901.58465 L 594.37829 905.954162 L 599.85386 907.974769 L 605.32943 911.425824 L 610.808908 912.06679 L 616.284478 910.245508 L 621.760048 908.639185 L 627.239526 913.505055 L 632.715095 911.758032 L 638.194574 916.100186 L 643.670143 917.890201 L 654.625191 922.662272 L 660.100761 925.859285 L 665.580239 926.390818 L 671.055809 931.272322 L 676.531379 929.185274 L 682.010857 928.173016 L 687.486427 927.680567 L 692.965905 932.620696 L 698.441475 931.522455 L 703.917045 932.718404 L 709.396523 932.941179 L 714.872093 926.617501 L 720.347662 929.21654 L 725.82714 928.759266 L 731.30271 935.086851 L 736.782188 935.669193 L 742.257758 944.369134 L 747.733328 940.316197 L 753.212806 942.735453 L 758.688376 945.526 L 764.167854 946.108341 L 769.643424 950.53257 L 775.118994 944.842042 L 780.598472 949.133388 L 786.074042 949.168563 L 791.55352 954.374458 L 797.02909 954.390092 L 802.504659 960.784119 L 807.984138 965.071556 L 813.459707 967.135154 L 818.935277 970.367343 L 824.414755 975.913263 L 829.890325 981.029266 L 835.369803 981.236408 L 840.845373 987.610893 L 846.320943 986.567369 L 851.800421 987.638252 L 857.275991 985.949853 L 862.755469 981.478724 L 868.231039 981.994624 L 873.706609 984.765629 L 879.186087 985.633279 L 884.661656 987.755502 L 890.141135 989.127325 L 895.616704 992.74253 L 901.092274 996.971343 L 906.571752 996.193585 L 912.047322 1000.516198 L 917.522892 1008.751048 L 923.00237 1008.375849 L 928.47794 1008.880023 L 933.957418 1012.272453 L 939.432988 1019.36998 L 944.908558 1022.754593 L 950.388036 1020.886412 L 955.863606 1022.48101 L 961.343084 1027.944855 L 966.818654 1031.368552 L 972.294223 1034.542115 L 977.773701 1039.791002 L 988.728749 1039.228203 L 994.204319 1038.258937 L 999.679889 1038.966345 L 1005.159367 1038.348829 L 1010.634937 1038.325379 L 1016.114415 1037.911096 L 1021.589985 1038.571603 L 1027.065555 1039.619036 L 1032.545033 1041.584925 L 1038.020603 1046.595404 L 1043.496172 1050.988367 L 1048.975651 1056.073103 L 1054.45122 1060.512966 L 1059.930698 1064.776953 L 1065.406268 1066.23476 L 1070.881838 1070.838773 L 1076.361316 1070.65899 L 1081.836886 1073.69967 L 1087.316364 1075.399793 L 1092.791934 1078.213791 L 1098.267504 1080.527522 L 1103.746982 1075.180927 L 1109.222552 1074.848719 L 1114.70203 1079.218231 L 1125.653169 1084.752426 L 1131.132648 1089.79808 L 1142.083787 1089.778538 L 1147.563265 1091.810869 L 1153.038835 1094.257484 L 1158.518313 1101.827918 L 1163.993883 1104.595016 L 1169.469453 1102.672118 L 1180.424501 1102.582226 L 1185.903979 1104.849057 L 1191.379549 1106.576539 L 1196.855119 1110.203469 L 1202.334597 1110.910876 L 1207.810167 1111.758984 L 1218.765214 1115.784563 L 1224.240784 1120.591809 L 1229.720262 1127.646344 L 1235.195832 1130.823816 L 1240.671402 1132.695906 L 1246.15088 1139.453408 L 1251.62645 1142.845838 L 1257.105928 1147.016025 L 1262.581498 1148.153349 L 1268.057068 1148.634074 L 1273.536546 1147.758608 L 1279.012116 1151.491063 L 1284.491594 1151.733379 L 1289.967164 1154.230802 L 1295.442733 1157.283207 L 1300.922212 1156.5758 L 1306.397781 1158.756648 L 1311.877259 1162.035736 L 1317.352829 1166.198107 L 1322.828399 1166.975865 L 1328.307877 1172.467068 L 1333.783447 1174.257083 L 1339.259017 1178.012988 L 1344.738495 1181.557843 L 1350.214065 1183.183708 L 1355.693543 1186.837996 L 1361.169113 1189.999835 L 1366.644683 1185.008898 L 1372.124161 1187.631387 L 1377.59973 1193.232023 L 1388.554778 1200.231842 L 1394.030348 1202.924681 L 1399.509826 1205.023454 L 1404.985396 1206.586786 L 1410.464874 1208.5644 L 1415.940444 1210.690532 L 1421.416014 1219.062174 L 1426.895492 1219.034815 L 1432.371062 1222.110671 L 1437.846632 1223.646644 L 1443.32611 1225.385851 L 1448.80168 1226.988266 L 1454.281158 1228.879898 L 1459.756728 1231.451579 L 1465.232297 1233.421377 L 1470.711775 1235.0746 L 1476.187345 1237.743989 L 1481.666823 1241.742211 L 1487.142393 1243.528317 L 1492.617963 1246.07264 L 1498.097441 1247.600797 L 1503.573011 1249.965336 L 1509.052489 1252.044567 L 1514.528059 1254.42474 L 1520.003629 1255.546431 L 1525.483107 1258.19237 L 1530.958677 1259.888585 L 1536.434246 1261.870108 L 1541.913725 1264.433972 L 1547.389294 1265.833154 L 1558.344342 1270.9218 L 1563.819912 1272.305348 L 1569.29939 1274.662071 L 1574.77496 1277.253294 L 1580.254438 1278.386709 L 1585.730008 1280.204082 L 1596.685056 1283.049346 L 1602.160626 1284.956611 L 1607.640104 1285.976685 L 1613.115674 1286.848243 L 1618.591243 1288.931382 L 1624.070722 1289.537174 L 1629.546291 1291.06533 L 1635.021861 1292.038505 L 1651.456387 1294.637544 L 1656.931957 1295.223793 L 1662.407527 1296.083626 L 1667.887005 1296.603434 L 1673.362575 1296.740225 L 1678.842053 1297.213133 L 1684.317623 1297.326474 L 1689.793193 1297.799382 " transform="matrix(0.999468, 0, 0, -0.999468, 0.305166, 1357.554135)"/>
</g>
<g clip-path="url(#clip-17)">
<path fill="none" stroke-width="8" stroke-linecap="butt" stroke-linejoin="round" stroke="rgb(100%, 0%, 0%)" stroke-opacity="0.8" stroke-dasharray="8 13.2" stroke-miterlimit="10" d="M 221.934019 270.932673 L 227.409588 322.444458 L 232.889066 348.430941 L 238.364636 371.056262 L 243.844114 400.521159 L 249.319684 416.353802 L 254.795254 472.129574 L 260.274732 525.177332 L 265.750302 567.60225 L 271.22978 604.281924 L 276.70535 625.015612 L 282.18092 639.968881 L 287.660398 664.747691 L 293.135968 689.886067 L 298.615446 707.555626 L 304.091016 730.177038 L 309.566585 744.970065 L 315.046064 758.887627 L 320.521633 767.697002 L 325.997203 772.058698 L 331.476681 773.078772 L 336.952251 783.005929 L 342.431729 785.417368 L 347.907299 788.825432 L 353.382869 789.310065 L 358.862347 795.551667 L 364.337917 805.166158 L 369.817395 809.707637 L 375.292965 817.012305 L 380.768535 820.350019 L 386.248013 837.933594 L 391.723582 845.50012 L 397.203061 857.862166 L 402.67863 866.331517 L 408.1542 874.496017 L 413.633678 881.448936 L 419.109248 885.259557 L 424.584818 893.041041 L 430.064296 899.118494 L 435.539866 910.644158 L 441.019344 914.810437 L 446.494914 920.70029 L 451.970484 924.823578 L 457.449962 933.10142 L 462.925532 941.070504 L 468.40501 948.531505 L 473.88058 958.325779 L 479.356149 966.169797 L 484.835627 971.367875 L 490.311197 980.239784 L 495.790675 988.713042 L 501.266245 996.760293 L 506.741815 1006.472492 L 512.221293 1010.869363 L 517.696863 1018.811089 L 523.172433 1025.201208 L 528.651911 1033.854249 L 534.127481 1041.54975 L 539.606959 1047.052679 L 545.082529 1056.166903 L 550.558098 1062.193548 L 556.037577 1068.360892 L 561.513146 1077.299242 L 566.992625 1087.073974 L 572.468194 1094.339559 L 577.943764 1103.614025 L 583.423242 1110.781901 L 588.898812 1120.072001 L 594.37829 1133.321238 L 599.85386 1141.986005 L 605.32943 1152.921511 L 610.808908 1162.094361 L 616.284478 1169.297413 L 621.760048 1178.470262 L 627.239526 1187.920603 L 632.715095 1195.983487 L 638.194574 1204.405938 L 643.670143 1211.136081 L 649.145713 1218.245333 L 654.625191 1224.608093 L 660.100761 1231.177996 L 665.580239 1237.411781 L 671.055809 1243.680742 L 676.531379 1248.382463 L 682.010857 1252.220442 L 687.486427 1254.807756 L 692.965905 1256.847905 L 698.441475 1258.731719 L 703.917045 1260.455293 " transform="matrix(0.999468, 0, 0, -0.999468, 0.305166, 1357.554135)"/>
</g>
<g clip-path="url(#clip-18)">
<path fill="none" stroke-width="8" stroke-linecap="butt" stroke-linejoin="round" stroke="rgb(100%, 0%, 0%)" stroke-opacity="0.8" stroke-dasharray="8 13.2" stroke-miterlimit="10" d="M 221.934019 232.271477 L 227.409588 275.61876 L 238.364636 349.454924 L 243.844114 376.355957 L 249.319684 399.145427 L 254.795254 470.241851 L 260.274732 524.860757 L 271.22978 597.375905 L 276.70535 621.552832 L 282.18092 642.99002 L 287.660398 663.242984 L 293.135968 671.575543 L 298.615446 691.375141 L 304.091016 708.255217 L 309.566585 714.774311 L 315.046064 724.39271 L 320.521633 734.937383 L 325.997203 742.714959 L 331.476681 755.608538 L 336.952251 761.619549 L 342.431729 764.668047 L 347.907299 772.215031 L 353.382869 771.898456 L 358.862347 772.00789 L 364.337917 763.628431 L 369.817395 761.045025 L 375.292965 766.723828 L 380.768535 769.311142 L 386.248013 769.987283 L 391.723582 776.056919 L 397.203061 783.49447 L 402.67863 786.038793 L 408.1542 782.005397 L 413.633678 781.743539 L 419.109248 794.488602 L 424.584818 803.423043 L 430.064296 804.978558 L 435.539866 808.726646 L 441.019344 815.78509 L 446.494914 818.020654 L 451.970484 821.225485 L 457.449962 822.859166 L 462.925532 834.634963 L 468.40501 843.342722 L 473.88058 843.48733 L 479.356149 844.612929 L 484.835627 849.803191 L 490.311197 847.864659 L 495.790675 851.393881 L 501.266245 853.453571 L 506.741815 856.713118 L 512.221293 864.40471 L 517.696863 866.894316 L 523.172433 866.976391 L 528.651911 873.92931 L 534.127481 877.11069 L 539.606959 875.086175 L 545.082529 881.749877 L 550.558098 882.570626 L 556.037577 887.839055 L 561.513146 889.707236 L 566.992625 893.873516 L 572.468194 898.19222 L 577.943764 906.42707 L 583.423242 909.127726 L 588.898812 913.512872 L 594.37829 922.154189 L 599.85386 925.261311 L 605.32943 932.550346 L 610.808908 933.47662 L 616.284478 935.622293 L 621.760048 933.734569 L 627.239526 932.562071 L 632.715095 934.524052 L 638.194574 939.405556 L 643.670143 942.629928 L 649.145713 942.626019 L 654.625191 932.589429 L 660.100761 930.650897 L 665.580239 935.872426 L 671.055809 940.37873 L 676.531379 946.85874 L 682.010857 950.923403 L 687.486427 946.620332 L 692.965905 949.277996 L 698.441475 952.54536 L 703.917045 956.324715 L 709.396523 971.211542 L 714.872093 967.787845 L 720.347662 967.920729 L 725.82714 970.500226 L 736.782188 978.832785 L 742.257758 989.791741 L 747.733328 995.255586 L 753.212806 991.972589 L 758.688376 993.231071 L 764.167854 998.042225 L 769.643424 1009.93918 L 775.118994 1016.274583 L 780.598472 1019.405155 L 786.074042 1021.12482 L 791.55352 1025.94379 L 797.02909 1028.460755 L 802.504659 1030.739311 L 807.984138 1037.668779 L 813.459707 1042.292333 L 818.935277 1046.216296 L 824.414755 1050.714783 L 829.890325 1053.610856 L 835.369803 1054.924054 L 840.845373 1058.601793 L 846.320943 1058.085893 L 851.800421 1061.751906 L 857.275991 1064.843395 L 862.755469 1073.25412 L 868.231039 1077.912849 L 873.706609 1081.066871 L 879.186087 1085.256601 L 884.661656 1086.909824 L 890.141135 1093.108435 L 895.616704 1097.454497 L 901.092274 1103.961866 L 906.571752 1104.368333 L 912.047322 1109.019245 L 917.522892 1111.9075 L 928.47794 1122.182499 L 933.957418 1125.442046 L 939.432988 1130.690933 L 944.908558 1134.388212 L 950.388036 1140.352323 L 955.863606 1145.159569 L 961.343084 1152.886337 L 966.818654 1154.527835 L 972.294223 1157.545065 L 977.773701 1162.735327 L 983.249271 1165.830724 L 988.728749 1169.492829 L 994.204319 1175.445215 L 999.679889 1178.747754 L 1005.159367 1180.944235 L 1010.634937 1185.540431 L 1016.114415 1189.253344 L 1021.589985 1193.732289 L 1027.065555 1196.878495 L 1032.545033 1200.931433 L 1038.020603 1205.340028 L 1043.496172 1208.017234 L 1048.975651 1210.50684 L 1054.45122 1215.435244 L 1059.930698 1220.172139 L 1065.406268 1223.740444 L 1070.881838 1227.719124 L 1081.836886 1238.205172 L 1087.316364 1241.769569 L 1092.791934 1245.079924 L 1098.267504 1249.34782 L 1103.746982 1252.658175 L 1109.222552 1255.390098 L 1114.70203 1257.969595 L 1120.1776 1261.221325 L 1125.653169 1264.226831 L 1131.132648 1266.411587 L 1136.608217 1269.127876 L 1142.083787 1271.398616 L 1147.563265 1273.935122 L 1158.518313 1278.038868 L 1169.469453 1281.247606 L 1174.948931 1282.47873 L 1180.424501 1282.963363 L 1185.903979 1283.580879 L 1191.379549 1283.963896 L 1196.855119 1284.51497 " transform="matrix(0.999468, 0, 0, -0.999468, 0.305166, 1357.554135)"/>
</g>
<g clip-path="url(#clip-19)">
<path fill="none" stroke-width="8" stroke-linecap="butt" stroke-linejoin="round" stroke="rgb(100%, 0%, 0%)" stroke-opacity="0.8" stroke-dasharray="8 13.2" stroke-miterlimit="10" d="M 221.934019 265.55872 L 227.409588 303.109951 L 232.889066 335.326312 L 238.364636 369.535921 L 243.844114 397.601636 L 249.319684 418.495567 L 254.795254 480.958491 L 260.274732 527.022064 L 265.750302 567.5788 L 271.22978 601.245152 L 276.70535 625.128954 L 282.18092 648.317074 L 287.660398 670.821236 L 293.135968 681.393267 L 298.615446 688.025703 L 304.091016 703.584763 L 309.566585 710.244556 L 315.046064 720.957288 L 320.521633 726.933124 L 325.997203 732.647102 L 331.476681 742.066176 L 336.952251 748.299962 L 342.431729 752.454516 L 347.907299 759.403527 L 353.382869 767.228002 L 364.337917 778.030626 L 369.817395 780.488965 L 375.292965 786.914259 L 380.768535 795.551667 L 386.248013 792.612603 L 391.723582 799.190322 L 397.203061 799.811747 L 402.67863 805.166158 L 413.633678 805.670333 L 419.109248 809.344162 L 424.584818 809.883512 L 430.064296 804.88085 L 435.539866 802.086394 L 441.019344 810.934853 L 446.494914 811.161536 L 451.970484 813.780117 L 457.449962 810.137553 L 462.925532 816.019589 L 473.88058 822.085317 L 479.356149 824.363873 L 484.835627 834.072164 L 490.311197 839.446117 L 495.790675 837.808527 L 501.266245 836.897886 L 506.741815 832.684707 L 512.221293 831.465308 L 517.696863 835.440079 L 523.172433 833.849389 L 528.651911 833.19279 L 534.127481 838.977118 L 539.606959 836.057595 L 545.082529 836.522687 L 550.558098 838.484668 L 556.037577 835.189946 L 561.513146 846.516286 L 566.992625 854.954369 L 572.468194 855.165419 L 577.943764 859.249623 L 583.423242 863.513611 L 588.898812 863.509703 L 594.37829 868.371665 L 599.85386 871.205204 L 605.32943 876.825382 L 610.808908 883.000543 L 616.284478 880.280345 L 621.760048 878.705288 L 627.239526 881.484111 L 632.715095 883.919 L 638.194574 877.286565 L 643.670143 877.884539 L 649.145713 883.121701 L 654.625191 885.263465 L 660.100761 882.426018 L 665.580239 884.262933 L 671.055809 888.061829 L 676.531379 894.63564 L 682.010857 895.124181 L 687.486427 893.291174 L 692.965905 897.72322 L 698.441475 899.192752 L 703.917045 899.653935 L 709.396523 895.80423 L 714.872093 900.267543 L 720.347662 899.45461 L 725.82714 900.677917 L 731.30271 899.626577 L 736.782188 901.662817 L 742.257758 905.985429 L 747.733328 906.888253 L 753.212806 908.27571 L 758.688376 908.787701 L 764.167854 916.225253 L 769.643424 916.479294 L 775.118994 923.885579 L 780.598472 924.995544 L 786.074042 929.533115 L 791.55352 929.623007 L 797.02909 930.959655 L 802.504659 938.67079 L 807.984138 938.940465 L 813.459707 940.554605 L 818.935277 943.806335 L 824.414755 942.325078 L 829.890325 943.95876 L 835.369803 948.336089 L 840.845373 946.729765 L 846.320943 950.810062 L 851.800421 950.821787 L 857.275991 949.004413 L 862.755469 952.252235 L 868.231039 951.341594 L 873.706609 948.437705 L 879.186087 954.69885 L 884.661656 953.139426 L 890.141135 954.839549 L 895.616704 960.276036 L 901.092274 965.075465 L 906.571752 972.055741 L 912.047322 976.577679 L 923.00237 980.88075 L 928.47794 986.477478 L 933.957418 987.024644 L 939.432988 991.378523 L 944.908558 987.978276 L 950.388036 990.084866 L 961.343084 987.380302 L 966.818654 987.904018 L 972.294223 990.405349 L 977.773701 996.224852 L 983.249271 999.202999 L 988.728749 1002.829929 L 994.204319 1004.475336 L 999.679889 1011.150763 L 1005.159367 1012.573395 L 1010.634937 1015.50855 L 1016.114415 1019.514588 L 1021.589985 1025.89689 L 1027.065555 1029.797403 L 1032.545033 1029.930287 L 1038.020603 1031.450627 L 1043.496172 1032.646576 L 1048.975651 1031.786743 L 1054.45122 1030.711952 L 1059.930698 1033.002234 L 1065.406268 1033.353983 L 1070.881838 1033.568941 L 1076.361316 1035.249523 L 1081.836886 1038.184679 L 1087.316364 1042.210258 L 1092.791934 1045.164955 L 1098.267504 1045.477622 L 1103.746982 1049.57746 L 1109.222552 1056.116095 L 1114.70203 1056.628086 L 1120.1776 1057.401935 L 1125.653169 1061.728456 L 1131.132648 1059.301384 L 1136.608217 1061.130482 L 1142.083787 1063.252705 L 1147.563265 1063.835046 L 1153.038835 1069.627191 L 1158.518313 1071.425022 L 1163.993883 1069.306707 L 1169.469453 1074.751011 L 1174.948931 1081.328729 L 1180.424501 1084.107552 L 1185.903979 1089.579213 L 1191.379549 1091.52947 L 1196.855119 1094.058159 L 1202.334597 1097.872689 L 1207.810167 1097.84533 L 1218.765214 1108.081246 L 1224.240784 1107.924913 L 1229.720262 1107.881921 L 1240.671402 1113.201158 L 1246.15088 1115.225672 L 1251.62645 1116.949246 L 1257.105928 1120.447201 L 1262.581498 1124.500138 L 1268.057068 1125.680454 L 1273.536546 1130.397808 L 1279.012116 1132.011948 L 1284.491594 1136.635502 L 1289.967164 1137.636034 L 1295.442733 1141.075364 L 1300.922212 1144.049603 L 1306.397781 1147.227075 L 1311.877259 1149.595523 L 1317.352829 1151.326913 L 1322.828399 1154.946026 L 1328.307877 1156.325667 L 1333.783447 1160.593563 L 1339.259017 1162.199886 L 1344.738495 1166.49514 L 1350.214065 1168.761971 L 1355.693543 1172.553051 L 1361.169113 1175.214624 L 1366.644683 1175.617182 L 1372.124161 1178.736029 L 1377.59973 1179.181578 L 1383.079209 1181.569568 L 1388.554778 1184.891648 L 1394.030348 1186.556596 L 1399.509826 1188.862511 L 1404.985396 1190.894842 L 1410.464874 1189.913851 L 1415.940444 1192.571516 L 1421.416014 1194.869613 L 1426.895492 1198.03536 L 1432.371062 1201.92024 L 1437.846632 1204.605262 L 1443.32611 1207.036243 L 1448.80168 1210.815598 L 1454.281158 1211.562089 L 1459.756728 1214.587136 L 1465.232297 1219.112982 L 1470.711775 1221.508788 L 1476.187345 1224.979385 L 1481.666823 1226.538808 L 1487.142393 1229.305906 L 1492.617963 1228.555506 L 1498.097441 1230.474496 L 1503.573011 1233.339302 L 1509.052489 1237.411781 L 1514.528059 1240.288312 L 1520.003629 1242.969426 L 1525.483107 1245.353507 L 1530.958677 1248.054163 L 1536.434246 1250.274094 L 1541.913725 1252.877042 L 1547.389294 1258.184553 L 1552.868772 1260.533459 L 1558.344342 1262.651774 L 1563.819912 1264.449606 L 1569.29939 1266.044204 L 1574.77496 1268.588527 L 1580.254438 1270.484067 L 1585.730008 1272.672731 L 1591.205578 1275.088079 L 1596.685056 1276.913269 L 1602.160626 1278.87525 L 1607.640104 1280.313516 L 1613.115674 1281.872939 L 1618.591243 1283.287754 L 1624.070722 1284.882353 L 1635.021861 1286.492585 L 1640.501339 1286.942043 L 1645.976909 1287.751067 L 1651.456387 1288.298233 L 1656.931957 1288.450658 L 1667.887005 1289.095532 L 1673.362575 1289.138524 L 1684.317623 1288.958741 L 1689.793193 1289.083807 " transform="matrix(0.999468, 0, 0, -0.999468, 0.305166, 1357.554135)"/>
</g>
<path fill="none" stroke-width="3" stroke-linecap="square" stroke-linejoin="miter" stroke="rgb(14.901733%, 14.901733%, 14.901733%)" stroke-opacity="1" stroke-miterlimit="10" d="M 221.934019 178.997035 L 221.934019 1351.077732 " transform="matrix(0.999468, 0, 0, -0.999468, 0.305166, 1357.554135)"/>
<path fill="none" stroke-width="3" stroke-linecap="square" stroke-linejoin="miter" stroke="rgb(14.901733%, 14.901733%, 14.901733%)" stroke-opacity="1" stroke-miterlimit="10" d="M 1859.582757 178.997035 L 1859.582757 1351.077732 " transform="matrix(0.999468, 0, 0, -0.999468, 0.305166, 1357.554135)"/>
<path fill="none" stroke-width="3" stroke-linecap="square" stroke-linejoin="miter" stroke="rgb(14.901733%, 14.901733%, 14.901733%)" stroke-opacity="1" stroke-miterlimit="10" d="M 221.934019 178.997035 L 1859.582757 178.997035 " transform="matrix(0.999468, 0, 0, -0.999468, 0.305166, 1357.554135)"/>
<path fill="none" stroke-width="3" stroke-linecap="square" stroke-linejoin="miter" stroke="rgb(14.901733%, 14.901733%, 14.901733%)" stroke-opacity="1" stroke-miterlimit="10" d="M 221.934019 1351.077732 L 1859.582757 1351.077732 " transform="matrix(0.999468, 0, 0, -0.999468, 0.305166, 1357.554135)"/>
<path fill="none" stroke-width="8" stroke-linecap="butt" stroke-linejoin="round" stroke="rgb(0%, 50.195312%, 0%)" stroke-opacity="1" stroke-dasharray="29.6 12.8" stroke-miterlimit="10" d="M 1307.52338 330.55815 L 1427.520825 330.55815 " transform="matrix(0.999468, 0, 0, -0.999468, 0.305166, 1357.554135)"/>
<g fill="rgb(0%, 0%, 0%)" fill-opacity="1">
<use xlink:href="#glyph-3-0" x="1475.041915" y="1048.159477"/>
<use xlink:href="#glyph-3-1" x="1522.236789" y="1048.159477"/>
<use xlink:href="#glyph-3-2" x="1560.256548" y="1048.159477"/>
<use xlink:href="#glyph-3-3" x="1584.903427" y="1048.159477"/>
<use xlink:href="#glyph-3-4" x="1603.973274" y="1048.159477"/>
<use xlink:href="#glyph-3-5" x="1655.725722" y="1048.159477"/>
<use xlink:href="#glyph-3-6" x="1692.606087" y="1048.159477"/>
<use xlink:href="#glyph-3-7" x="1716.113572" y="1048.159477"/>
<use xlink:href="#glyph-3-8" x="1754.133331" y="1048.159477"/>
<use xlink:href="#glyph-3-9" x="1790.833793" y="1048.159477"/>
</g>
<path fill="none" stroke-width="8" stroke-linecap="butt" stroke-linejoin="round" stroke="rgb(100%, 0%, 0%)" stroke-opacity="0.8" stroke-dasharray="8 13.2" stroke-miterlimit="10" d="M 1307.52338 242.480034 L 1427.520825 242.480034 " transform="matrix(0.999468, 0, 0, -0.999468, 0.305166, 1357.554135)"/>
<g fill="rgb(0%, 0%, 0%)" fill-opacity="1">
<use xlink:href="#glyph-3-10" x="1475.041915" y="1136.190735"/>
<use xlink:href="#glyph-3-11" x="1516.180014" y="1136.190735"/>
<use xlink:href="#glyph-3-12" x="1552.940443" y="1136.190735"/>
<use xlink:href="#glyph-3-5" x="1584.18381" y="1136.190735"/>
<use xlink:href="#glyph-3-13" x="1621.064175" y="1136.190735"/>
<use xlink:href="#glyph-3-14" x="1637.7353" y="1136.190735"/>
<use xlink:href="#glyph-3-15" x="1654.406424" y="1136.190735"/>
<use xlink:href="#glyph-3-5" x="1692.426183" y="1136.190735"/>
</g>
</svg>
