<svg width="1751" height="1655" xmlns="http://www.w3.org/2000/svg" xmlns:xlink="http://www.w3.org/1999/xlink" xml:space="preserve" overflow="hidden"><g transform="translate(-1329 -132)"><g><path d="M0 41.4999C-1.0567e-14 18.5801 18.5802-5.28349e-15 41.5001-5.28349e-15 64.42-1.0567e-14 83.0002 18.5801 83.0002 41.4999 83.0002 64.4197 64.42 82.9998 41.5001 82.9998 18.5802 82.9998-2.11341e-14 64.4197 0 41.4999Z" fill="#6D9EEB" fill-rule="evenodd" fill-opacity="1" transform="matrix(1 -1.22465e-16 -1.22465e-16 -1 1670 1601)"/><path d="M0 41.4999C-1.04397e-14 18.5801 18.3563-5.28349e-15 40.9999-5.28349e-15 63.6435-1.0567e-14 81.9998 18.5801 81.9998 41.4999 81.9998 64.4197 63.6435 82.9998 40.9999 82.9998 18.3563 82.9998-2.08793e-14 64.4197 0 41.4999Z" fill="#6D9EEB" fill-rule="evenodd" fill-opacity="1" transform="matrix(1 -1.22465e-16 -1.22465e-16 -1 1853 1601)"/><path d="M0 41.4999C-1.0567e-14 18.5801 18.5801-5.28349e-15 41.4999-5.28349e-15 64.4197-1.0567e-14 82.9998 18.5801 82.9998 41.4999 82.9998 64.4197 64.4197 82.9998 41.4999 82.9998 18.5801 82.9998-2.1134e-14 64.4197 0 41.4999Z" fill="#6D9EEB" fill-rule="evenodd" fill-opacity="1" transform="matrix(1 -1.22465e-16 -1.22465e-16 -1 1487 1601)"/><path d="M0 0 0.000360892 288.517" stroke="#BDBDBD" stroke-width="6.875" stroke-linecap="butt" stroke-linejoin="round" stroke-miterlimit="10" stroke-opacity="1" fill="none" fill-rule="evenodd" transform="matrix(1 -1.22465e-16 -1.22465e-16 -1 1529.5 1519.02)"/><path d="M0 0 0.000360892 288.517" stroke="#6AA84F" stroke-width="6.875" stroke-linecap="butt" stroke-linejoin="round" stroke-miterlimit="10" stroke-opacity="1" fill="none" fill-rule="evenodd" transform="matrix(1 -1.22465e-16 -1.22465e-16 -1 1711.5 1519.02)"/><path d="M0 0 0.000360892 288.517" stroke="#BDBDBD" stroke-width="6.875" stroke-linecap="butt" stroke-linejoin="round" stroke-miterlimit="10" stroke-opacity="1" fill="none" fill-rule="evenodd" transform="matrix(1 -1.22465e-16 -1.22465e-16 -1 1894.5 1519.02)"/><path d="M0 0 182.684 288.517" stroke="#6AA84F" stroke-width="6.875" stroke-linecap="butt" stroke-linejoin="round" stroke-miterlimit="10" stroke-opacity="1" fill="none" fill-rule="evenodd" transform="matrix(1 -1.22465e-16 -1.22465e-16 -1 1529.5 1519.02)"/><path d="M1712.18 1519.02 1529.5 1230.5" stroke="#BDBDBD" stroke-width="6.875" stroke-linecap="butt" stroke-linejoin="round" stroke-miterlimit="10" stroke-opacity="1" fill="none" fill-rule="evenodd"/><path d="M0 0 182.684 288.517" stroke="#6AA84F" stroke-width="6.875" stroke-linecap="butt" stroke-linejoin="round" stroke-miterlimit="10" stroke-opacity="1" fill="none" fill-rule="evenodd" transform="matrix(1 -1.22465e-16 -1.22465e-16 -1 1711.5 1519.02)"/><path d="M1894.18 1519.02 1711.5 1230.5" stroke="#6AA84F" stroke-width="6.875" stroke-linecap="butt" stroke-linejoin="round" stroke-miterlimit="10" stroke-opacity="1" fill="none" fill-rule="evenodd"/><path d="M0 0 365.369 288.517" stroke="#6AA84F" stroke-width="6.875" stroke-linecap="butt" stroke-linejoin="round" stroke-miterlimit="10" stroke-opacity="1" fill="none" fill-rule="evenodd" transform="matrix(1 -1.22465e-16 -1.22465e-16 -1 1529.5 1519.02)"/><path d="M1894.87 1519.02 1529.5 1230.5" stroke="#6AA84F" stroke-width="6.875" stroke-linecap="butt" stroke-linejoin="round" stroke-miterlimit="10" stroke-opacity="1" fill="none" fill-rule="evenodd"/><path d="M0 41.4999C-1.0567e-14 18.5801 18.5802-5.28349e-15 41.5001-5.28349e-15 64.42-1.0567e-14 83.0002 18.5801 83.0002 41.4999 83.0002 64.4197 64.42 82.9998 41.5001 82.9998 18.5802 82.9998-2.11341e-14 64.4197 0 41.4999Z" fill="#6D9EEB" fill-rule="evenodd" fill-opacity="1" transform="matrix(1 -1.22465e-16 -1.22465e-16 -1 1670 1230)"/><path d="M0 41.4999C-1.04397e-14 18.5801 18.3563-5.28349e-15 40.9999-5.28349e-15 63.6435-1.0567e-14 81.9998 18.5801 81.9998 41.4999 81.9998 64.4197 63.6435 82.9998 40.9999 82.9998 18.3563 82.9998-2.08793e-14 64.4197 0 41.4999Z" fill="#6D9EEB" fill-rule="evenodd" fill-opacity="1" transform="matrix(1 -1.22465e-16 -1.22465e-16 -1 1853 1230)"/><path d="M0 41.4999C-1.0567e-14 18.5801 18.5801-5.28349e-15 41.4999-5.28349e-15 64.4197-1.0567e-14 82.9998 18.5801 82.9998 41.4999 82.9998 64.4197 64.4197 82.9998 41.4999 82.9998 18.5801 82.9998-2.1134e-14 64.4197 0 41.4999Z" fill="#6D9EEB" fill-rule="evenodd" fill-opacity="1" transform="matrix(1 -1.22465e-16 -1.22465e-16 -1 1487 1230)"/><text fill="#000000" fill-opacity="1" font-family="Proxima Nova,Proxima Nova_MSFontService,sans-serif" font-style="normal" font-variant="normal" font-weight="400" font-stretch="normal" font-size="46" text-anchor="start" direction="ltr" writing-mode="lr-tb" unicode-bidi="normal" text-decoration="none" transform="matrix(1 0 0 1 1775.83 942)">training</text><path d="M1670 317C1670 294.356 1688.58 276 1711.5 276 1734.42 276 1753 294.356 1753 317 1753 339.644 1734.42 358 1711.5 358 1688.58 358 1670 339.644 1670 317Z" fill="#6D9EEB" fill-rule="evenodd" fill-opacity="1"/><path d="M1853 317C1853 294.356 1871.36 276 1894 276 1916.64 276 1935 294.356 1935 317 1935 339.644 1916.64 358 1894 358 1871.36 358 1853 339.644 1853 317Z" fill="#6D9EEB" fill-rule="evenodd" fill-opacity="1"/><path d="M1487 317C1487 294.356 1505.58 276 1528.5 276 1551.42 276 1570 294.356 1570 317 1570 339.644 1551.42 358 1528.5 358 1505.58 358 1487 339.644 1487 317Z" fill="#6D9EEB" fill-rule="evenodd" fill-opacity="1"/><path d="M1529.5 358.5 1529.5 647.017" stroke="#595959" stroke-width="6.875" stroke-linecap="butt" stroke-linejoin="round" stroke-miterlimit="10" stroke-opacity="1" fill="none" fill-rule="evenodd"/><path d="M1711.5 358.5 1711.5 647.017" stroke="#595959" stroke-width="6.875" stroke-linecap="butt" stroke-linejoin="round" stroke-miterlimit="10" stroke-opacity="1" fill="none" fill-rule="evenodd"/><path d="M1894.5 358.5 1894.5 647.017" stroke="#595959" stroke-width="6.875" stroke-linecap="butt" stroke-linejoin="round" stroke-miterlimit="10" stroke-opacity="1" fill="none" fill-rule="evenodd"/><path d="M1529.5 358.5 1712.18 647.017" stroke="#595959" stroke-width="6.875" stroke-linecap="butt" stroke-linejoin="round" stroke-miterlimit="10" stroke-opacity="1" fill="none" fill-rule="evenodd"/><path d="M0 0 182.684 288.517" stroke="#595959" stroke-width="6.875" stroke-linecap="butt" stroke-linejoin="round" stroke-miterlimit="10" stroke-opacity="1" fill="none" fill-rule="evenodd" transform="matrix(-1 0 0 1 1712.18 358.5)"/><path d="M1711.5 358.5 1894.18 647.017" stroke="#595959" stroke-width="6.875" stroke-linecap="butt" stroke-linejoin="round" stroke-miterlimit="10" stroke-opacity="1" fill="none" fill-rule="evenodd"/><path d="M0 0 182.684 288.517" stroke="#666666" stroke-width="6.875" stroke-linecap="butt" stroke-linejoin="round" stroke-miterlimit="10" stroke-opacity="1" fill="none" fill-rule="evenodd" transform="matrix(-1 0 0 1 1894.18 358.5)"/><path d="M1529.5 358.5 1894.87 647.017" stroke="#595959" stroke-width="6.875" stroke-linecap="butt" stroke-linejoin="round" stroke-miterlimit="10" stroke-opacity="1" fill="none" fill-rule="evenodd"/><path d="M0 0 365.369 288.517" stroke="#595959" stroke-width="6.875" stroke-linecap="butt" stroke-linejoin="round" stroke-miterlimit="10" stroke-opacity="1" fill="none" fill-rule="evenodd" transform="matrix(-1 0 0 1 1894.87 358.5)"/><path d="M1670 688.5C1670 665.58 1688.58 647 1711.5 647 1734.42 647 1753 665.58 1753 688.5 1753 711.42 1734.42 730 1711.5 730 1688.58 730 1670 711.42 1670 688.5Z" fill="#6D9EEB" fill-rule="evenodd" fill-opacity="1"/><path d="M1853 688.5C1853 665.58 1871.36 647 1894 647 1916.64 647 1935 665.58 1935 688.5 1935 711.42 1916.64 730 1894 730 1871.36 730 1853 711.42 1853 688.5Z" fill="#6D9EEB" fill-rule="evenodd" fill-opacity="1"/><path d="M1487 688.5C1487 665.58 1505.58 647 1528.5 647 1551.42 647 1570 665.58 1570 688.5 1570 711.42 1551.42 730 1528.5 730 1505.58 730 1487 711.42 1487 688.5Z" fill="#6D9EEB" fill-rule="evenodd" fill-opacity="1"/><text fill="#000000" fill-opacity="1" font-family="Proxima Nova,Proxima Nova_MSFontService,sans-serif" font-style="normal" font-variant="normal" font-weight="400" font-stretch="normal" font-size="64" text-anchor="start" direction="ltr" writing-mode="lr-tb" unicode-bidi="normal" text-decoration="none" transform="matrix(1 0 0 1 1506.82 1668)">dense solution</text><path d="M1683.5 1083.5 1698.5 1083.5 1698.5 764.5 1728.5 764.5 1728.5 1083.5 1743.5 1083.5 1713.5 1113.5Z" stroke="#FFFFFF" stroke-width="3.4375" stroke-linecap="butt" stroke-linejoin="miter" stroke-miterlimit="8" stroke-opacity="1" fill="#93C47D" fill-rule="evenodd" fill-opacity="1"/><path d="M2026.5 1426.5 2026.5 1411.5 1936.5 1411.5 1936.5 1381.5 2026.5 1381.5 2026.5 1366.5 2056.5 1396.5Z" stroke="#FFFFFF" stroke-width="3.4375" stroke-linecap="butt" stroke-linejoin="miter" stroke-miterlimit="8" stroke-opacity="1" fill="#93C47D" fill-rule="evenodd" fill-opacity="1"/><text fill="#000000" fill-opacity="1" font-family="Proxima Nova,Proxima Nova_MSFontService,sans-serif" font-style="normal" font-variant="normal" font-weight="400" font-stretch="normal" font-size="64" text-anchor="start" direction="ltr" writing-mode="lr-tb" unicode-bidi="normal" text-decoration="none" transform="matrix(1 0 0 1 2054.25 1668)">pruned solution</text><text fill="#000000" fill-opacity="1" font-family="Proxima Nova,Proxima Nova_MSFontService,sans-serif" font-style="normal" font-variant="normal" font-weight="400" font-stretch="normal" font-size="46" text-anchor="start" direction="ltr" writing-mode="lr-tb" unicode-bidi="normal" text-decoration="none" transform="matrix(1 0 0 1 1919.15 1487)">pruning</text><path d="M0 41.5001C-1.04397e-14 18.5802 18.3564-5.28352e-15 41.0001-5.28352e-15 63.6438-1.0567e-14 82.0002 18.5802 82.0002 41.5001 82.0002 64.42 63.6438 83.0002 41.0001 83.0002 18.3564 83.0002-2.08794e-14 64.42 0 41.5001Z" fill="#6D9EEB" fill-rule="evenodd" fill-opacity="1" transform="matrix(1 -1.22465e-16 -1.22465e-16 -1 2814 730)"/><path d="M0 41.5001C-1.0567e-14 18.5802 18.5801-5.28352e-15 41.4999-5.28352e-15 64.4197-1.0567e-14 82.9998 18.5802 82.9998 41.5001 82.9998 64.42 64.4197 83.0002 41.4999 83.0002 18.5801 83.0002-2.1134e-14 64.42 0 41.5001Z" fill="#6D9EEB" fill-rule="evenodd" fill-opacity="1" transform="matrix(1 -1.22465e-16 -1.22465e-16 -1 2996 730)"/><path d="M0 41.5001C-1.04397e-14 18.5802 18.3563-5.28352e-15 40.9999-5.28352e-15 63.6435-1.0567e-14 81.9998 18.5802 81.9998 41.5001 81.9998 64.42 63.6435 83.0002 40.9999 83.0002 18.3563 83.0002-2.08793e-14 64.42 0 41.5001Z" fill="#6D9EEB" fill-rule="evenodd" fill-opacity="1" transform="matrix(1 -1.22465e-16 -1.22465e-16 -1 2631 730)"/><path d="M0 0 0.000360892 288.517" stroke="#000000" stroke-width="3.4375" stroke-linecap="butt" stroke-linejoin="round" stroke-miterlimit="10" stroke-dasharray="3.4375 10.3125" stroke-opacity="1" fill="none" fill-rule="evenodd" transform="matrix(1 -1.22465e-16 -1.22465e-16 -1 2672.5 647.017)"/><path d="M0 0 0.000360892 288.517" stroke="#595959" stroke-width="6.875" stroke-linecap="butt" stroke-linejoin="round" stroke-miterlimit="10" stroke-opacity="1" fill="none" fill-rule="evenodd" transform="matrix(1 -1.22465e-16 -1.22465e-16 -1 2855.5 647.017)"/><path d="M0 0 0.000360892 288.517" stroke="#000000" stroke-width="3.4375" stroke-linecap="butt" stroke-linejoin="round" stroke-miterlimit="10" stroke-dasharray="3.4375 10.3125" stroke-opacity="1" fill="none" fill-rule="evenodd" transform="matrix(1 -1.22465e-16 -1.22465e-16 -1 3037.5 647.017)"/><path d="M0 0 182.684 288.517" stroke="#595959" stroke-width="6.875" stroke-linecap="butt" stroke-linejoin="round" stroke-miterlimit="10" stroke-opacity="1" fill="none" fill-rule="evenodd" transform="matrix(1 -1.22465e-16 -1.22465e-16 -1 2672.5 647.017)"/><path d="M2855.18 647.017 2672.5 358.5" stroke="#000000" stroke-width="3.4375" stroke-linecap="butt" stroke-linejoin="round" stroke-miterlimit="10" stroke-dasharray="3.4375 10.3125" stroke-opacity="1" fill="none" fill-rule="evenodd"/><path d="M0 0 182.684 288.517" stroke="#595959" stroke-width="6.875" stroke-linecap="butt" stroke-linejoin="round" stroke-miterlimit="10" stroke-opacity="1" fill="none" fill-rule="evenodd" transform="matrix(1 -1.22465e-16 -1.22465e-16 -1 2855.5 647.017)"/><path d="M3038.18 647.017 2855.5 358.5" stroke="#595959" stroke-width="6.875" stroke-linecap="butt" stroke-linejoin="round" stroke-miterlimit="10" stroke-opacity="1" fill="none" fill-rule="evenodd"/><path d="M0 0 365.369 288.517" stroke="#595959" stroke-width="6.875" stroke-linecap="butt" stroke-linejoin="round" stroke-miterlimit="10" stroke-opacity="1" fill="none" fill-rule="evenodd" transform="matrix(1 -1.22465e-16 -1.22465e-16 -1 2672.5 647.017)"/><path d="M3037.87 647.017 2672.5 358.5" stroke="#666666" stroke-width="6.875" stroke-linecap="butt" stroke-linejoin="round" stroke-miterlimit="10" stroke-opacity="1" fill="none" fill-rule="evenodd"/><path d="M0 40.9999C-1.04397e-14 18.3563 18.3564-5.21983e-15 41.0001-5.21983e-15 63.6438-1.04397e-14 82.0002 18.3563 82.0002 40.9999 82.0002 63.6435 63.6438 81.9998 41.0001 81.9998 18.3564 81.9998-2.08794e-14 63.6435 0 40.9999Z" fill="#6D9EEB" fill-rule="evenodd" fill-opacity="1" transform="matrix(1 -1.22465e-16 -1.22465e-16 -1 2814 358)"/><path d="M0 40.9999C-1.0567e-14 18.3563 18.5801-5.21983e-15 41.4999-5.21983e-15 64.4197-1.04397e-14 82.9998 18.3563 82.9998 40.9999 82.9998 63.6435 64.4197 81.9998 41.4999 81.9998 18.5801 81.9998-2.1134e-14 63.6435 0 40.9999Z" fill="#6D9EEB" fill-rule="evenodd" fill-opacity="1" transform="matrix(1 -1.22465e-16 -1.22465e-16 -1 2996 358)"/><path d="M0 40.9999C-1.04397e-14 18.3563 18.3563-5.21983e-15 40.9999-5.21983e-15 63.6435-1.04397e-14 81.9998 18.3563 81.9998 40.9999 81.9998 63.6435 63.6435 81.9998 40.9999 81.9998 18.3563 81.9998-2.08793e-14 63.6435 0 40.9999Z" fill="#6D9EEB" fill-rule="evenodd" fill-opacity="1" transform="matrix(1 -1.22465e-16 -1.22465e-16 -1 2631 358)"/><path d="M2651.33 792.107 2640.31 782.119 2319.17 1136.34 2297.13 1116.36 2618.28 762.143 2607.26 752.156 2649.27 750.099Z" stroke="#FFFFFF" stroke-width="3.4375" stroke-linecap="butt" stroke-linejoin="miter" stroke-miterlimit="8" stroke-opacity="1" fill="#666666" fill-rule="evenodd" fill-opacity="1"/><text fill="#000000" fill-opacity="1" font-family="Proxima Nova,Proxima Nova_MSFontService,sans-serif" font-style="normal" font-variant="normal" font-weight="700" font-stretch="normal" font-size="46" text-anchor="start" direction="ltr" writing-mode="lr-tb" unicode-bidi="normal" text-decoration="none" transform="matrix(0.662065 -0.749446 0.749446 0.662065 2344.12 991)">mask (only)</text><text fill="#000000" fill-opacity="1" font-family="Cambria,Cambria_MSFontService,sans-serif" font-style="normal" font-variant="normal" font-weight="400" font-stretch="normal" font-size="55" text-anchor="start" direction="ltr" writing-mode="lr-tb" unicode-bidi="normal" text-decoration="none" transform="matrix(1 0 0 1 1366.83 1425)">ϴ</text><text fill="#000000" fill-opacity="1" font-family="1,1_MSFontService,sans-serif" font-style="normal" font-variant="normal" font-weight="400" font-stretch="normal" font-size="37" text-anchor="start" direction="ltr" writing-mode="lr-tb" unicode-bidi="normal" text-decoration="none" transform="matrix(1 0 0 1 1402.93 1438)">t=T</text><text fill="#000000" fill-opacity="1" font-family="Cambria,Cambria_MSFontService,sans-serif" font-style="normal" font-variant="normal" font-weight="400" font-stretch="normal" font-size="55" text-anchor="start" direction="ltr" writing-mode="lr-tb" unicode-bidi="normal" text-decoration="none" transform="matrix(1 0 0 1 1371.33 542)">ϴ</text><text fill="#000000" fill-opacity="1" font-family="1,1_MSFontService,sans-serif" font-style="normal" font-variant="normal" font-weight="400" font-stretch="normal" font-size="37" text-anchor="start" direction="ltr" writing-mode="lr-tb" unicode-bidi="normal" text-decoration="none" transform="matrix(1 0 0 1 1407.42 555)">t=0</text><path d="M0 41.4999C-1.04397e-14 18.5801 18.3564-5.28349e-15 41.0001-5.28349e-15 63.6438-1.0567e-14 82.0002 18.5801 82.0002 41.4999 82.0002 64.4197 63.6438 82.9998 41.0001 82.9998 18.3564 82.9998-2.08794e-14 64.4197 0 41.4999Z" fill="#6D9EEB" fill-rule="evenodd" fill-opacity="1" transform="matrix(1 -1.22465e-16 -1.22465e-16 -1 2242 1601)"/><path d="M0 41.4999C-1.0567e-14 18.5801 18.5801-5.28349e-15 41.4999-5.28349e-15 64.4197-1.0567e-14 82.9998 18.5801 82.9998 41.4999 82.9998 64.4197 64.4197 82.9998 41.4999 82.9998 18.5801 82.9998-2.1134e-14 64.4197 0 41.4999Z" fill="#6D9EEB" fill-rule="evenodd" fill-opacity="1" transform="matrix(1 -1.22465e-16 -1.22465e-16 -1 2424 1601)"/><path d="M0 41.4999C-1.0567e-14 18.5801 18.5801-5.28349e-15 41.4999-5.28349e-15 64.4197-1.0567e-14 82.9998 18.5801 82.9998 41.4999 82.9998 64.4197 64.4197 82.9998 41.4999 82.9998 18.5801 82.9998-2.1134e-14 64.4197 0 41.4999Z" fill="#6D9EEB" fill-rule="evenodd" fill-opacity="1" transform="matrix(1 -1.22465e-16 -1.22465e-16 -1 2059 1601)"/><path d="M0 0 0.000360892 288.517" stroke="#6AA84F" stroke-width="6.875" stroke-linecap="butt" stroke-linejoin="round" stroke-miterlimit="10" stroke-opacity="1" fill="none" fill-rule="evenodd" transform="matrix(1 -1.22465e-16 -1.22465e-16 -1 2283.5 1519.02)"/><path d="M0 0 182.684 288.517" stroke="#6AA84F" stroke-width="6.875" stroke-linecap="butt" stroke-linejoin="round" stroke-miterlimit="10" stroke-opacity="1" fill="none" fill-rule="evenodd" transform="matrix(1 -1.22465e-16 -1.22465e-16 -1 2100.5 1519.02)"/><path d="M0 0 182.684 288.517" stroke="#6AA84F" stroke-width="6.875" stroke-linecap="butt" stroke-linejoin="round" stroke-miterlimit="10" stroke-opacity="1" fill="none" fill-rule="evenodd" transform="matrix(1 -1.22465e-16 -1.22465e-16 -1 2283.5 1519.02)"/><path d="M2466.18 1519.02 2283.5 1230.5" stroke="#6AA84F" stroke-width="6.875" stroke-linecap="butt" stroke-linejoin="round" stroke-miterlimit="10" stroke-opacity="1" fill="none" fill-rule="evenodd"/><path d="M0 0 365.369 288.517" stroke="#6AA84F" stroke-width="6.875" stroke-linecap="butt" stroke-linejoin="round" stroke-miterlimit="10" stroke-opacity="1" fill="none" fill-rule="evenodd" transform="matrix(1 -1.22465e-16 -1.22465e-16 -1 2100.5 1519.02)"/><path d="M0 41.4999C-1.04397e-14 18.5801 18.3564-5.28349e-15 41.0001-5.28349e-15 63.6438-1.0567e-14 82.0002 18.5801 82.0002 41.4999 82.0002 64.4197 63.6438 82.9998 41.0001 82.9998 18.3564 82.9998-2.08794e-14 64.4197 0 41.4999Z" fill="#6D9EEB" fill-rule="evenodd" fill-opacity="1" transform="matrix(1 -1.22465e-16 -1.22465e-16 -1 2242 1230)"/><path d="M0 41.4999C-1.0567e-14 18.5801 18.5801-5.28349e-15 41.4999-5.28349e-15 64.4197-1.0567e-14 82.9998 18.5801 82.9998 41.4999 82.9998 64.4197 64.4197 82.9998 41.4999 82.9998 18.5801 82.9998-2.1134e-14 64.4197 0 41.4999Z" fill="#6D9EEB" fill-rule="evenodd" fill-opacity="1" transform="matrix(1 -1.22465e-16 -1.22465e-16 -1 2424 1230)"/><path d="M0 41.4999C-1.0567e-14 18.5801 18.5801-5.28349e-15 41.4999-5.28349e-15 64.4197-1.0567e-14 82.9998 18.5801 82.9998 41.4999 82.9998 64.4197 64.4197 82.9998 41.4999 82.9998 18.5801 82.9998-2.1134e-14 64.4197 0 41.4999Z" fill="#6D9EEB" fill-rule="evenodd" fill-opacity="1" transform="matrix(1 -1.22465e-16 -1.22465e-16 -1 2059 1230)"/><path d="M0 0 0.000360892 288.517" stroke="#000000" stroke-width="3.4375" stroke-linecap="butt" stroke-linejoin="round" stroke-miterlimit="10" stroke-dasharray="3.4375 10.3125" stroke-opacity="1" fill="none" fill-rule="evenodd" transform="matrix(1 -1.22465e-16 -1.22465e-16 -1 2100.5 1519.02)"/><path d="M2283.18 1519.02 2100.5 1230.5" stroke="#000000" stroke-width="3.4375" stroke-linecap="butt" stroke-linejoin="round" stroke-miterlimit="10" stroke-dasharray="3.4375 10.3125" stroke-opacity="1" fill="none" fill-rule="evenodd"/><path d="M2465.87 1519.02 2100.5 1230.5" stroke="#6AA84F" stroke-width="6.875" stroke-linecap="butt" stroke-linejoin="round" stroke-miterlimit="10" stroke-opacity="1" fill="none" fill-rule="evenodd"/><path d="M0 0 0.000360892 288.517" stroke="#000000" stroke-width="3.4375" stroke-linecap="butt" stroke-linejoin="round" stroke-miterlimit="10" stroke-dasharray="3.4375 10.3125" stroke-opacity="1" fill="none" fill-rule="evenodd" transform="matrix(1 -1.22465e-16 -1.22465e-16 -1 2466.5 1519.02)"/><text fill="#6AA84F" fill-opacity="1" font-family="Proxima Nova,Proxima Nova_MSFontService,sans-serif" font-style="normal" font-variant="normal" font-weight="700" font-stretch="normal" font-size="55" text-anchor="start" direction="ltr" writing-mode="lr-tb" unicode-bidi="normal" text-decoration="none" transform="matrix(1 0 0 1 1649.48 1740)">good</text><text fill="#6AA84F" fill-opacity="1" font-family="Proxima Nova,Proxima Nova_MSFontService,sans-serif" font-style="normal" font-variant="normal" font-weight="700" font-stretch="normal" font-size="55" text-anchor="start" direction="ltr" writing-mode="lr-tb" unicode-bidi="normal" text-decoration="none" transform="matrix(1 0 0 1 2219.48 1740)">good</text><text fill="#000000" fill-opacity="1" font-family="Proxima Nova,Proxima Nova_MSFontService,sans-serif" font-style="normal" font-variant="normal" font-weight="400" font-stretch="normal" font-size="55" text-anchor="start" direction="ltr" writing-mode="lr-tb" unicode-bidi="normal" text-decoration="none" transform="matrix(1 0 0 1 2032.88 492)">Random initialization</text><text fill="#000000" fill-opacity="1" font-family="Proxima Nova,Proxima Nova_MSFontService,sans-serif" font-style="normal" font-variant="normal" font-weight="400" font-stretch="normal" font-size="64" text-anchor="start" direction="ltr" writing-mode="lr-tb" unicode-bidi="normal" text-decoration="none" transform="matrix(1 0 0 1 1454.92 230)">dense initialization</text></g></g></svg>