<svg width="830" height="913" xmlns="http://www.w3.org/2000/svg" xmlns:xlink="http://www.w3.org/1999/xlink" xml:space="preserve" overflow="hidden"><g transform="translate(-2103 -462)"><g><path d="M0 0 289.811 385.078" stroke="#666666" stroke-width="6.875" stroke-linecap="butt" stroke-linejoin="round" stroke-miterlimit="10" stroke-opacity="1" fill="none" fill-rule="evenodd" transform="matrix(-1 0 0 1 2799.31 726.5)"/><path d="M2242.5 726.5 2510.01 1111.58" stroke="#666666" stroke-width="6.875" stroke-linecap="butt" stroke-linejoin="round" stroke-miterlimit="10" stroke-opacity="1" fill="none" fill-rule="evenodd"/><path d="M2376 594.5C2376 667.125 2316.01 726 2242 726 2167.99 726 2108 667.125 2108 594.5 2108 521.875 2167.99 463 2242 463 2316.01 463 2376 521.875 2376 594.5Z" fill="#FF671F" fill-rule="evenodd" fill-opacity="1"/><path d="M2643 1243.5C2643 1316.13 2583.23 1375 2509.5 1375 2435.77 1375 2376 1316.13 2376 1243.5 2376 1170.87 2435.77 1112 2509.5 1112 2583.23 1112 2643 1170.87 2643 1243.5Z" fill="#FF671F" fill-rule="evenodd" fill-opacity="1"/><path d="M2933 594.5C2933 667.125 2873.23 726 2799.5 726 2725.77 726 2666 667.125 2666 594.5 2666 521.875 2725.77 463 2799.5 463 2873.23 463 2933 521.875 2933 594.5Z" fill="#FF671F" fill-rule="evenodd" fill-opacity="1"/><path d="M34.3749-6.87496 255.436-6.87468 255.436 6.87532 34.3749 6.87504ZM41.25 20.6251 0 0 41.25-20.6249ZM248.561-20.6247 289.811 0.000360892 248.561 20.6253Z" fill="#666666" fill-rule="nonzero" fill-opacity="1" transform="matrix(1 0 0 -1 2376 595)"/><text fill="#FFFFFF" fill-opacity="1" font-family="Cambria Math,Cambria Math_MSFontService,sans-serif" font-style="normal" font-variant="normal" font-weight="400" font-stretch="normal" font-size="50" text-anchor="start" direction="ltr" writing-mode="lr-tb" unicode-bidi="normal" text-decoration="none" transform="matrix(1 0 0 1 2464.37 1251)">𝑓</text><text fill="#FFFFFF" fill-opacity="1" font-family="Cambria Math,Cambria Math_MSFontService,sans-serif" font-style="normal" font-variant="normal" font-weight="400" font-stretch="normal" font-size="50" text-anchor="start" direction="ltr" writing-mode="lr-tb" unicode-bidi="normal" text-decoration="none" transform="matrix(1 0 0 1 2493.34 1251)">(</text><text fill="#FFFFFF" fill-opacity="1" font-family="Cambria Math,Cambria Math_MSFontService,sans-serif" font-style="normal" font-variant="normal" font-weight="400" font-stretch="normal" font-size="50" text-anchor="start" direction="ltr" writing-mode="lr-tb" unicode-bidi="normal" text-decoration="none" transform="matrix(1 0 0 1 2514.54 1251)">𝒙</text><text fill="#FFFFFF" fill-opacity="1" font-family="Cambria Math,Cambria Math_MSFontService,sans-serif" font-style="normal" font-variant="normal" font-weight="400" font-stretch="normal" font-size="50" text-anchor="start" direction="ltr" writing-mode="lr-tb" unicode-bidi="normal" text-decoration="none" transform="matrix(1 0 0 1 2543.76 1251)">)</text></g></g></svg>