<svg width="1288" height="944" xmlns="http://www.w3.org/2000/svg" xmlns:xlink="http://www.w3.org/1999/xlink" xml:space="preserve" overflow="hidden"><g transform="translate(-1920 -229)"><g><path d="M0 0 212.111 281.836" stroke="#666666" stroke-width="6.875" stroke-linecap="butt" stroke-linejoin="round" stroke-miterlimit="10" stroke-opacity="1" fill="none" fill-rule="evenodd" transform="matrix(-1 0 0 1 2428.61 697.5)"/><path d="M2020.5 697.5 2216.29 979.335" stroke="#666666" stroke-width="6.875" stroke-linecap="butt" stroke-linejoin="round" stroke-miterlimit="10" stroke-opacity="1" fill="none" fill-rule="evenodd"/><path d="M2118 600.5C2118 653.796 2074.12 697 2020 697 1965.88 697 1922 653.796 1922 600.5 1922 547.205 1965.88 504 2020 504 2074.12 504 2118 547.205 2118 600.5Z" fill="#FF671F" fill-rule="evenodd" fill-opacity="1"/><text fill="#FF671F" fill-opacity="1" font-family="Cambria Math,Cambria Math_MSFontService,sans-serif" font-style="normal" font-variant="normal" font-weight="400" font-stretch="normal" font-size="128" text-anchor="start" direction="ltr" writing-mode="lr-tb" unicode-bidi="normal" text-decoration="none" transform="matrix(1 0 0 1 2509.65 1119)">≡</text><text fill="#FFFFFF" fill-opacity="1" font-family="Cambria Math,Cambria Math_MSFontService,sans-serif" font-style="normal" font-variant="normal" font-weight="400" font-stretch="normal" font-size="64" text-anchor="start" direction="ltr" writing-mode="lr-tb" unicode-bidi="normal" text-decoration="none" transform="matrix(1 0 0 1 1984.59 606)">𝒘</text><text fill="#FFFFFF" fill-opacity="1" font-family="Cambria Math,Cambria Math_MSFontService,sans-serif" font-style="normal" font-variant="normal" font-weight="400" font-stretch="normal" font-size="47" text-anchor="start" direction="ltr" writing-mode="lr-tb" unicode-bidi="normal" text-decoration="none" transform="matrix(1 0 0 1 2035.01 619)">𝑖</text><path d="M2313 1075.5C2313 1128.8 2269.35 1172 2215.5 1172 2161.65 1172 2118 1128.8 2118 1075.5 2118 1022.2 2161.65 979 2215.5 979 2269.35 979 2313 1022.2 2313 1075.5Z" fill="#FF671F" fill-rule="evenodd" fill-opacity="1"/><path d="M2526 600.5C2526 653.796 2482.12 697 2428 697 2373.88 697 2330 653.796 2330 600.5 2330 547.205 2373.88 504 2428 504 2482.12 504 2526 547.205 2526 600.5Z" fill="#FF671F" fill-rule="evenodd" fill-opacity="1"/><text fill="#FFFFFF" fill-opacity="1" font-family="Cambria Math,Cambria Math_MSFontService,sans-serif" font-style="normal" font-variant="normal" font-weight="400" font-stretch="normal" font-size="64" text-anchor="start" direction="ltr" writing-mode="lr-tb" unicode-bidi="normal" text-decoration="none" transform="matrix(1 0 0 1 2395.89 614)">𝒘</text><text fill="#FFFFFF" fill-opacity="1" font-family="Cambria Math,Cambria Math_MSFontService,sans-serif" font-style="normal" font-variant="normal" font-weight="400" font-stretch="normal" font-size="47" text-anchor="start" direction="ltr" writing-mode="lr-tb" unicode-bidi="normal" text-decoration="none" transform="matrix(1 0 0 1 2440.6 628)">𝑗</text><path d="M34.375-6.87494 177.736-6.8747 177.736 6.8753 34.375 6.87506ZM41.25 20.6251 0 0 41.25-20.6249ZM170.861-20.6247 212.111 0.000360892 170.861 20.6253Z" fill="#666666" fill-rule="nonzero" fill-opacity="1" transform="matrix(1 0 0 -1 2118 600)"/><path d="M0 0 212.111 281.836" stroke="#666666" stroke-width="6.875" stroke-linecap="butt" stroke-linejoin="round" stroke-miterlimit="10" stroke-opacity="1" fill="none" fill-rule="evenodd" transform="matrix(-1 0 0 1 3108.61 697.5)"/><path d="M2700.5 697.5 2896.29 979.335" stroke="#666666" stroke-width="6.875" stroke-linecap="butt" stroke-linejoin="round" stroke-miterlimit="10" stroke-opacity="1" fill="none" fill-rule="evenodd"/><path d="M2798 600.5C2798 653.796 2754.12 697 2700 697 2645.88 697 2602 653.796 2602 600.5 2602 547.205 2645.88 504 2700 504 2754.12 504 2798 547.205 2798 600.5Z" fill="#FF671F" fill-rule="evenodd" fill-opacity="1"/><text fill="#FFFFFF" fill-opacity="1" font-family="Cambria Math,Cambria Math_MSFontService,sans-serif" font-style="normal" font-variant="normal" font-weight="400" font-stretch="normal" font-size="64" text-anchor="start" direction="ltr" writing-mode="lr-tb" unicode-bidi="normal" text-decoration="none" transform="matrix(1 0 0 1 2664.9 605)">𝒘</text><text fill="#FFFFFF" fill-opacity="1" font-family="Cambria Math,Cambria Math_MSFontService,sans-serif" font-style="normal" font-variant="normal" font-weight="400" font-stretch="normal" font-size="47" text-anchor="start" direction="ltr" writing-mode="lr-tb" unicode-bidi="normal" text-decoration="none" transform="matrix(1 0 0 1 2709.61 618)">𝑗</text><path d="M2993 1075.5C2993 1128.8 2949.35 1172 2895.5 1172 2841.65 1172 2798 1128.8 2798 1075.5 2798 1022.2 2841.65 979 2895.5 979 2949.35 979 2993 1022.2 2993 1075.5Z" fill="#FF671F" fill-rule="evenodd" fill-opacity="1"/><path d="M3206 600.5C3206 653.796 3162.12 697 3108 697 3053.88 697 3010 653.796 3010 600.5 3010 547.205 3053.88 504 3108 504 3162.12 504 3206 547.205 3206 600.5Z" fill="#FF671F" fill-rule="evenodd" fill-opacity="1"/><text fill="#FFFFFF" fill-opacity="1" font-family="Cambria Math,Cambria Math_MSFontService,sans-serif" font-style="normal" font-variant="normal" font-weight="400" font-stretch="normal" font-size="64" text-anchor="start" direction="ltr" writing-mode="lr-tb" unicode-bidi="normal" text-decoration="none" transform="matrix(1 0 0 1 3075.65 615)">𝒘</text><text fill="#FFFFFF" fill-opacity="1" font-family="Cambria Math,Cambria Math_MSFontService,sans-serif" font-style="normal" font-variant="normal" font-weight="400" font-stretch="normal" font-size="47" text-anchor="start" direction="ltr" writing-mode="lr-tb" unicode-bidi="normal" text-decoration="none" transform="matrix(1 0 0 1 3126.06 629)">𝑖</text><text fill="#FFFFFF" fill-opacity="1" font-family="Cambria Math,Cambria Math_MSFontService,sans-serif" font-style="normal" font-variant="normal" font-weight="400" font-stretch="normal" font-size="50" text-anchor="start" direction="ltr" writing-mode="lr-tb" unicode-bidi="normal" text-decoration="none" transform="matrix(1 0 0 1 2803.56 1088)">𝑓</text><text fill="#FFFFFF" fill-opacity="1" font-family="Cambria Math,Cambria Math_MSFontService,sans-serif" font-style="normal" font-variant="normal" font-weight="400" font-stretch="normal" font-size="50" text-anchor="start" direction="ltr" writing-mode="lr-tb" unicode-bidi="normal" text-decoration="none" transform="matrix(1 0 0 1 2832.52 1088)">(</text><text fill="#FFFFFF" fill-opacity="1" font-family="Cambria Math,Cambria Math_MSFontService,sans-serif" font-style="normal" font-variant="normal" font-weight="400" font-stretch="normal" font-size="50" text-anchor="start" direction="ltr" writing-mode="lr-tb" unicode-bidi="normal" text-decoration="none" transform="matrix(1 0 0 1 2853.72 1088)">𝒙</text><text fill="#FFFFFF" fill-opacity="1" font-family="Cambria Math,Cambria Math_MSFontService,sans-serif" font-style="normal" font-variant="normal" font-weight="400" font-stretch="normal" font-size="50" text-anchor="start" direction="ltr" writing-mode="lr-tb" unicode-bidi="normal" text-decoration="none" transform="matrix(1 0 0 1 2882.94 1088)">;</text><text fill="#FFFFFF" fill-opacity="1" font-family="Cambria Math,Cambria Math_MSFontService,sans-serif" font-style="normal" font-variant="normal" font-weight="400" font-stretch="normal" font-size="50" text-anchor="start" direction="ltr" writing-mode="lr-tb" unicode-bidi="normal" text-decoration="none" transform="matrix(1 0 0 1 2904.53 1088)">𝛉</text><text fill="#FFFFFF" fill-opacity="1" font-family="Cambria Math,Cambria Math_MSFontService,sans-serif" font-style="normal" font-variant="normal" font-weight="400" font-stretch="normal" font-size="37" text-anchor="start" direction="ltr" writing-mode="lr-tb" unicode-bidi="normal" text-decoration="none" transform="matrix(1 0 0 1 2929.85 1098)">𝑗</text><text fill="#FFFFFF" fill-opacity="1" font-family="Cambria Math,Cambria Math_MSFontService,sans-serif" font-style="normal" font-variant="normal" font-weight="400" font-stretch="normal" font-size="37" text-anchor="start" direction="ltr" writing-mode="lr-tb" unicode-bidi="normal" text-decoration="none" transform="matrix(1 0 0 1 2948.3 1098)">,</text><text fill="#FFFFFF" fill-opacity="1" font-family="Cambria Math,Cambria Math_MSFontService,sans-serif" font-style="normal" font-variant="normal" font-weight="400" font-stretch="normal" font-size="37" text-anchor="start" direction="ltr" writing-mode="lr-tb" unicode-bidi="normal" text-decoration="none" transform="matrix(1 0 0 1 2955.75 1098)">𝑖</text><text fill="#FFFFFF" fill-opacity="1" font-family="Cambria Math,Cambria Math_MSFontService,sans-serif" font-style="normal" font-variant="normal" font-weight="400" font-stretch="normal" font-size="50" text-anchor="start" direction="ltr" writing-mode="lr-tb" unicode-bidi="normal" text-decoration="none" transform="matrix(1 0 0 1 2972.27 1088)">)</text><path d="M34.375-6.87494 177.736-6.8747 177.736 6.8753 34.375 6.87506ZM41.25 20.6251 0 0 41.25-20.6249ZM170.861-20.6247 212.111 0.000360892 170.861 20.6253Z" fill="#666666" fill-rule="nonzero" fill-opacity="1" transform="matrix(1 0 0 -1 2798 600)"/><text fill="#FFFFFF" fill-opacity="1" font-family="Cambria Math,Cambria Math_MSFontService,sans-serif" font-style="normal" font-variant="normal" font-weight="400" font-stretch="normal" font-size="50" text-anchor="start" direction="ltr" writing-mode="lr-tb" unicode-bidi="normal" text-decoration="none" transform="matrix(1 0 0 1 2122.12 1093)">𝑓</text><text fill="#FFFFFF" fill-opacity="1" font-family="Cambria Math,Cambria Math_MSFontService,sans-serif" font-style="normal" font-variant="normal" font-weight="400" font-stretch="normal" font-size="50" text-anchor="start" direction="ltr" writing-mode="lr-tb" unicode-bidi="normal" text-decoration="none" transform="matrix(1 0 0 1 2151.09 1093)">(</text><text fill="#FFFFFF" fill-opacity="1" font-family="Cambria Math,Cambria Math_MSFontService,sans-serif" font-style="normal" font-variant="normal" font-weight="400" font-stretch="normal" font-size="50" text-anchor="start" direction="ltr" writing-mode="lr-tb" unicode-bidi="normal" text-decoration="none" transform="matrix(1 0 0 1 2172.29 1093)">𝒙</text><text fill="#FFFFFF" fill-opacity="1" font-family="Cambria Math,Cambria Math_MSFontService,sans-serif" font-style="normal" font-variant="normal" font-weight="400" font-stretch="normal" font-size="50" text-anchor="start" direction="ltr" writing-mode="lr-tb" unicode-bidi="normal" text-decoration="none" transform="matrix(1 0 0 1 2201.51 1093)">;</text><text fill="#FFFFFF" fill-opacity="1" font-family="Cambria Math,Cambria Math_MSFontService,sans-serif" font-style="normal" font-variant="normal" font-weight="400" font-stretch="normal" font-size="50" text-anchor="start" direction="ltr" writing-mode="lr-tb" unicode-bidi="normal" text-decoration="none" transform="matrix(1 0 0 1 2223.09 1093)">𝛉</text><text fill="#FFFFFF" fill-opacity="1" font-family="Cambria Math,Cambria Math_MSFontService,sans-serif" font-style="normal" font-variant="normal" font-weight="400" font-stretch="normal" font-size="37" text-anchor="start" direction="ltr" writing-mode="lr-tb" unicode-bidi="normal" text-decoration="none" transform="matrix(1 0 0 1 2252.89 1103)">𝑖</text><text fill="#FFFFFF" fill-opacity="1" font-family="Cambria Math,Cambria Math_MSFontService,sans-serif" font-style="normal" font-variant="normal" font-weight="400" font-stretch="normal" font-size="37" text-anchor="start" direction="ltr" writing-mode="lr-tb" unicode-bidi="normal" text-decoration="none" transform="matrix(1 0 0 1 2267.32 1103)">,</text><text fill="#FFFFFF" fill-opacity="1" font-family="Cambria Math,Cambria Math_MSFontService,sans-serif" font-style="normal" font-variant="normal" font-weight="400" font-stretch="normal" font-size="37" text-anchor="start" direction="ltr" writing-mode="lr-tb" unicode-bidi="normal" text-decoration="none" transform="matrix(1 0 0 1 2274.77 1103)">𝑗</text><text fill="#FFFFFF" fill-opacity="1" font-family="Cambria Math,Cambria Math_MSFontService,sans-serif" font-style="normal" font-variant="normal" font-weight="400" font-stretch="normal" font-size="50" text-anchor="start" direction="ltr" writing-mode="lr-tb" unicode-bidi="normal" text-decoration="none" transform="matrix(1 0 0 1 2295.3 1093)">)</text><path d="M2035.79 486.843 2046.48 480.115C2046.57 480.059 2046.66 480.011 2046.76 479.972L2056.06 476.265 2066.68 472.583 2078.49 468.97 2091.43 465.429 2105.46 461.968 2120.52 458.592 2136.58 455.309 2153.59 452.124 2171.48 449.047 2190.22 446.084 2209.76 443.242 2230.04 440.529 2251.01 437.952 2272.64 435.519 2294.85 433.238 2317.62 431.115 2340.89 429.159 2364.6 427.376 2388.71 425.775 2413.17 424.363 2462.93 422.136 2513.49 420.755 2564.45 420.281 2615.41 420.755 2665.97 422.135 2715.74 424.362 2740.2 425.774 2764.32 427.375 2788.03 429.157 2811.29 431.114 2834.06 433.236 2856.28 435.517 2877.9 437.95 2898.87 440.526 2919.15 443.239 2938.69 446.081 2957.43 449.043 2975.32 452.12 2992.32 455.303 3008.37 458.585 3023.44 461.959 3037.46 465.418 3050.39 468.955 3062.18 472.564 3072.79 476.238 3082.17 479.972C3082.27 480.011 3082.36 480.059 3082.45 480.114L3093.14 486.843 3091.31 489.752 3080.62 483.023 3080.9 483.166 3071.67 479.486 3061.18 475.851 3049.48 472.271 3036.63 468.756 3022.69 465.314 3007.68 461.953 2991.68 458.682 2974.74 455.508 2956.89 452.439 2938.19 449.482 2918.7 446.646 2898.46 443.938 2877.51 441.366 2855.93 438.937 2833.74 436.659 2811 434.539 2787.77 432.585 2764.09 430.805 2740.01 429.206 2715.58 427.796 2665.88 425.571 2615.38 424.192 2564.48 423.719 2513.58 424.192 2463.08 425.57 2413.37 427.795 2388.94 429.205 2364.86 430.804 2341.17 432.584 2317.94 434.538 2295.21 436.657 2273.02 438.935 2251.43 441.364 2230.49 443.936 2210.25 446.644 2190.76 449.479 2172.06 452.435 2154.22 455.503 2137.27 458.676 2121.28 461.946 2106.28 465.305 2092.34 468.745 2079.49 472.257 2067.81 475.831 2057.33 479.458 2048.03 483.166 2048.31 483.024 2037.62 489.752ZM2049.67 494.781 2020.5 504.5 2030.23 475.333ZM3098.7 475.333 3108.43 504.5 3079.26 494.781Z" fill="#ED2624" fill-rule="nonzero" fill-opacity="1"/><path d="M-20.9293 8.8902-29.5183 13.2272-29.1682 12.9925-36.2883 19.1546-42.9782 26.2899-49.3324 34.4268-55.2837 43.4656-60.7667 53.3058-65.7175 63.8464-70.0734 74.986-73.7723 86.6234-76.7531 98.6574-78.9551 110.987-80.3181 123.51-80.7824 136.127-80.3091 148.738-78.9384 161.255-76.7294 173.579-73.7419 185.61-70.036 197.245-65.6724 208.384-60.7123 218.926-55.2176 228.769-49.2512 237.812-42.877 245.954-36.1602 253.094-29.1681 259.133-29.5181 258.898-20.929 263.235-22.4784 266.304-31.0675 261.967C-31.1934 261.903-31.3109 261.824-31.4176 261.732L-38.6656 255.447-45.5848 248.071-52.1213 239.703-58.2198 230.443-63.8232 220.388-68.8735 209.637-73.3117 198.287-77.0784 186.437-80.1132 174.185-82.3556 161.628-83.7442 148.866-84.2176 135.999-83.7353 123.137-82.3389 110.381-80.0895 97.83-77.048 85.5812-73.2744 73.7332-68.8284 62.3839-63.7688 51.6314-58.1538 41.5737-52.0403 32.3092-45.4837 23.9364-38.5378 16.5553-31.4177 10.3933C-31.3111 10.301-31.1935 10.2222-31.0677 10.1587L-22.4787 5.8217ZM-30.4584-4.19526 0 0-21.6312 21.8495ZM-21.631 250.276 0.000360892 272.125-30.458 276.321Z" fill="#ED2624" fill-rule="nonzero" fill-opacity="1" transform="matrix(1.83697e-16 1 1 -1.83697e-16 2428.5 504.5)"/><text fill="#FF671F" fill-opacity="1" font-family="Cambria Math,Cambria Math_MSFontService,sans-serif" font-style="normal" font-variant="normal" font-weight="400" font-stretch="normal" font-size="128" text-anchor="start" direction="ltr" writing-mode="lr-tb" unicode-bidi="normal" text-decoration="none" transform="matrix(1 0 0 1 2524.02 358)">𝜋</text></g></g></svg>